Athiti-200.ufo
<glyph name="numbersign" format="1">
  <advance width="715"/>
  <unicode hex="0023"/>
  <note>
	numbersign
  </note>
  <outline>
    <contour>
      <point x="244" y="194" type="line"/>
      <point x="431" y="194" type="line"/>
      <point x="405" y="-2" type="line"/>
      <point x="439" y="-4" type="line"/>
      <point x="466" y="194" type="line"/>
      <point x="579" y="194" type="line"/>
      <point x="579" y="225" type="line"/>
      <point x="470" y="225" type="line"/>
      <point x="495" y="404" type="line"/>
      <point x="605" y="404" type="line"/>
      <point x="605" y="435" type="line"/>
      <point x="499" y="435" type="line"/>
      <point x="523" y="624" type="line"/>
      <point x="491" y="626" type="line"/>
      <point x="464" y="435" type="line"/>
      <point x="277" y="435" type="line"/>
      <point x="303" y="624" type="line"/>
      <point x="269" y="626" type="line"/>
      <point x="242" y="435" type="line"/>
      <point x="126" y="435" type="line"/>
      <point x="126" y="404" type="line"/>
      <point x="239" y="404" type="line"/>
      <point x="214" y="225" type="line"/>
      <point x="100" y="225" type="line"/>
      <point x="100" y="194" type="line"/>
      <point x="209" y="194" type="line"/>
      <point x="183" y="-2" type="line"/>
      <point x="217" y="-4" type="line"/>
    </contour>
    <contour>
      <point x="273" y="404" type="line"/>
      <point x="461" y="404" type="line"/>
      <point x="436" y="225" type="line"/>
      <point x="248" y="225" type="line"/>
    </contour>
  </outline>
</glyph>
<glyph name="dollar" format="1">
  <advance width="547"/>
  <unicode hex="0024"/>
  <note>
	dollar
  </note>
  <outline>
    <contour>
      <point x="296" y="-110" type="line"/>
      <point x="296" y="-7" type="line"/>
      <point x="424" y="0"/>
      <point x="457" y="75"/>
      <point x="457" y="158" type="curve" smooth="yes"/>
      <point x="457" y="248"/>
      <point x="421" y="287"/>
      <point x="303" y="323" type="curve" smooth="yes"/>
      <point x="196" y="356"/>
      <point x="139" y="382"/>
      <point x="139" y="466" type="curve" smooth="yes"/>
      <point x="139" y="550"/>
      <point x="189" y="597"/>
      <point x="292" y="597" type="curve" smooth="yes"/>
      <point x="332" y="597"/>
      <point x="368" y="593"/>
      <point x="406" y="588" type="curve"/>
      <point x="410" y="498" type="line"/>
      <point x="427" y="498" type="line"/>
      <point x="434" y="521"/>
      <point x="438" y="549"/>
      <point x="438" y="574" type="curve" smooth="yes"/>
      <point x="438" y="592" type="line"/>
      <point x="405" y="612"/>
      <point x="362" y="622"/>
      <point x="303" y="627" type="curve"/>
      <point x="303" y="710" type="line"/>
      <point x="272" y="710" type="line"/>
      <point x="272" y="626" type="line"/>
      <point x="162" y="614"/>
      <point x="107" y="567"/>
      <point x="107" y="464" type="curve" smooth="yes"/>
      <point x="107" y="360"/>
      <point x="193" y="322"/>
      <point x="289" y="293" type="curve" smooth="yes"/>
      <point x="394" y="261"/>
      <point x="425" y="235"/>
      <point x="425" y="149" type="curve" smooth="yes"/>
      <point x="425" y="105"/>
      <point x="417" y="75"/>
      <point x="401" y="41" type="curve"/>
      <point x="364" y="31"/>
      <point x="321" y="24"/>
      <point x="270" y="24" type="curve" smooth="yes"/>
      <point x="205" y="24"/>
      <point x="158" y="33"/>
      <point x="102" y="59" type="curve"/>
      <point x="90" y="31" type="line"/>
      <point x="141" y="6"/>
      <point x="195" y="-8"/>
      <point x="265" y="-8" type="curve"/>
      <point x="265" y="-110" type="line"/>
    </contour>
  </outline>
</glyph>
<glyph name="percent" format="1">
  <advance width="805"/>
  <unicode hex="0025"/>
  <note>
	percent
  </note>
  <outline>
    <contour>
      <point x="601" y="596" type="line"/>
      <point x="576" y="606" type="line"/>
      <point x="207" y="7" type="line"/>
      <point x="231" y="-4" type="line"/>
    </contour>
    <contour>
      <point x="292" y="308"/>
      <point x="330" y="371"/>
      <point x="330" y="457" type="curve" smooth="yes"/>
      <point x="330" y="550"/>
      <point x="298" y="601"/>
      <point x="223" y="601" type="curve" smooth="yes"/>
      <point x="142" y="601"/>
      <point x="110" y="538"/>
      <point x="110" y="452" type="curve" smooth="yes"/>
      <point x="110" y="354"/>
      <point x="147" y="308"/>
      <point x="212" y="308" type="curve" smooth="yes"/>
    </contour>
    <contour>
      <point x="159" y="337"/>
      <point x="140" y="374"/>
      <point x="140" y="458" type="curve" smooth="yes"/>
      <point x="140" y="495"/>
      <point x="146" y="526"/>
      <point x="157" y="562" type="curve"/>
      <point x="178" y="569"/>
      <point x="195" y="572"/>
      <point x="220" y="572" type="curve" smooth="yes"/>
      <point x="283" y="572"/>
      <point x="300" y="532"/>
      <point x="300" y="451" type="curve" smooth="yes"/>
      <point x="300" y="414"/>
      <point x="295" y="383"/>
      <point x="283" y="348" type="curve"/>
      <point x="262" y="340"/>
      <point x="239" y="337"/>
      <point x="215" y="337" type="curve" smooth="yes"/>
    </contour>
    <contour>
      <point x="657" y="-8"/>
      <point x="695" y="55"/>
      <point x="695" y="141" type="curve" smooth="yes"/>
      <point x="695" y="234"/>
      <point x="663" y="285"/>
      <point x="588" y="285" type="curve" smooth="yes"/>
      <point x="507" y="285"/>
      <point x="475" y="222"/>
      <point x="475" y="136" type="curve" smooth="yes"/>
      <point x="475" y="38"/>
      <point x="512" y="-8"/>
      <point x="577" y="-8" type="curve" smooth="yes"/>
    </contour>
    <contour>
      <point x="524" y="21"/>
      <point x="505" y="58"/>
      <point x="505" y="142" type="curve" smooth="yes"/>
      <point x="505" y="179"/>
      <point x="511" y="210"/>
      <point x="522" y="246" type="curve"/>
      <point x="543" y="253"/>
      <point x="560" y="256"/>
      <point x="585" y="256" type="curve" smooth="yes"/>
      <point x="648" y="256"/>
      <point x="665" y="216"/>
      <point x="665" y="135" type="curve" smooth="yes"/>
      <point x="665" y="98"/>
      <point x="660" y="67"/>
      <point x="648" y="32" type="curve"/>
      <point x="627" y="24"/>
      <point x="604" y="21"/>
      <point x="580" y="21" type="curve" smooth="yes"/>
    </contour>
  </outline>
</glyph>
<glyph name="ampersand" format="1">
  <advance width="714"/>
  <unicode hex="0026"/>
  <note>
	ampersand
  </note>
  <outline>
    <contour>
      <point x="381" y="-4"/>
      <point x="413" y="4"/>
      <point x="449" y="18" type="curve"/>
      <point x="462" y="41"/>
      <point x="475" y="75"/>
      <point x="483" y="106" type="curve"/>
      <point x="489" y="106" type="line"/>
      <point x="599" y="-4" type="line"/>
      <point x="624" y="13" type="line"/>
      <point x="494" y="144" type="line"/>
      <point x="512" y="196"/>
      <point x="522" y="244"/>
      <point x="531" y="303" type="curve"/>
      <point x="496" y="311" type="line"/>
      <point x="490" y="264"/>
      <point x="484" y="218"/>
      <point x="467" y="164" type="curve"/>
      <point x="282" y="345" type="line" smooth="yes"/>
      <point x="234" y="392"/>
      <point x="218" y="415"/>
      <point x="218" y="472" type="curve" smooth="yes"/>
      <point x="218" y="536"/>
      <point x="260" y="569"/>
      <point x="341" y="569" type="curve" smooth="yes"/>
      <point x="389" y="569"/>
      <point x="426" y="560"/>
      <point x="460" y="544" type="curve"/>
      <point x="468" y="464" type="line"/>
      <point x="483" y="464" type="line"/>
      <point x="489" y="484"/>
      <point x="492" y="511"/>
      <point x="492" y="527" type="curve" smooth="yes"/>
      <point x="492" y="549" type="line"/>
      <point x="462" y="577"/>
      <point x="409" y="600"/>
      <point x="341" y="600" type="curve" smooth="yes"/>
      <point x="245" y="600"/>
      <point x="186" y="558"/>
      <point x="186" y="471" type="curve" smooth="yes"/>
      <point x="186" y="416"/>
      <point x="207" y="380"/>
      <point x="246" y="343" type="curve"/>
      <point x="246" y="337" type="line"/>
      <point x="155" y="302"/>
      <point x="108" y="254"/>
      <point x="108" y="160" type="curve" smooth="yes"/>
      <point x="108" y="50"/>
      <point x="189" y="-4"/>
      <point x="309" y="-4" type="curve" smooth="yes"/>
    </contour>
    <contour>
      <point x="212" y="27"/>
      <point x="140" y="67"/>
      <point x="140" y="160" type="curve" smooth="yes"/>
      <point x="140" y="241"/>
      <point x="186" y="290"/>
      <point x="267" y="316" type="curve"/>
      <point x="457" y="134" type="line"/>
      <point x="450" y="103"/>
      <point x="437" y="63"/>
      <point x="423" y="40" type="curve"/>
      <point x="389" y="30"/>
      <point x="367" y="27"/>
      <point x="311" y="27" type="curve" smooth="yes"/>
    </contour>
  </outline>
</glyph>
<glyph name="quotesingle" format="1">
  <advance width="229"/>
  <unicode hex="0027"/>
  <note>
	quotesingle
  </note>
  <outline>
    <contour>
      <point x="122" y="423" type="line"/>
      <point x="130" y="554" type="line" smooth="yes"/>
      <point x="131" y="571"/>
      <point x="131" y="590"/>
      <point x="128" y="610" type="curve"/>
      <point x="101" y="610" type="line"/>
      <point x="98" y="590"/>
      <point x="98" y="571"/>
      <point x="99" y="554" type="curve" smooth="yes"/>
      <point x="107" y="423" type="line"/>
    </contour>
  </outline>
</glyph>
<glyph name="parenright" format="1">
  <advance width="353"/>
  <unicode hex="0029"/>
  <note>
	parenright
  </note>
  <outline>
    <contour>
      <point x="205" y="-84"/>
      <point x="232" y="-64"/>
      <point x="238" y="-34" type="curve"/>
      <point x="238" y="644" type="line"/>
      <point x="232" y="674"/>
      <point x="205" y="694"/>
      <point x="170" y="707" type="curve"/>
      <point x="149" y="707"/>
      <point x="130" y="706"/>
      <point x="112" y="704" type="curve"/>
      <point x="112" y="673" type="line"/>
      <point x="204" y="673" type="line"/>
      <point x="204" y="-63" type="line"/>
      <point x="112" y="-63" type="line"/>
      <point x="112" y="-94" type="line"/>
      <point x="130" y="-96"/>
      <point x="149" y="-97"/>
      <point x="170" y="-97" type="curve"/>
    </contour>
  </outline>
</glyph>
<glyph name="plus" format="1">
  <advance width="580"/>
  <unicode hex="002B"/>
  <note>
	plus
  </note>
  <outline>
    <contour>
      <point x="305" y="88" type="line"/>
      <point x="305" y="291" type="line"/>
      <point x="490" y="291" type="line"/>
      <point x="490" y="320" type="line"/>
      <point x="305" y="320" type="line"/>
      <point x="305" y="506" type="line"/>
      <point x="275" y="506" type="line"/>
      <point x="275" y="320" type="line"/>
      <point x="90" y="320" type="line"/>
      <point x="90" y="291" type="line"/>
      <point x="275" y="291" type="line"/>
      <point x="275" y="88" type="line"/>
    </contour>
  </outline>
</glyph>
<glyph name="slash" format="1">
  <advance width="489"/>
  <unicode hex="002F"/>
  <note>
	slash
  </note>
  <outline>
    <contour>
      <point x="391" y="650" type="line"/>
      <point x="360" y="658" type="line"/>
      <point x="98" y="-82" type="line"/>
      <point x="130" y="-90" type="line"/>
    </contour>
  </outline>
</glyph>
<glyph name="zero" format="1">
  <advance width="640"/>
  <unicode hex="0030"/>
  <note>
	zero
  </note>
  <outline>
    <contour>
      <point x="500" y="-4"/>
      <point x="545" y="128"/>
      <point x="545" y="304" type="curve" smooth="yes"/>
      <point x="545" y="505"/>
      <point x="475" y="600"/>
      <point x="331" y="600" type="curve" smooth="yes"/>
      <point x="140" y="600"/>
      <point x="95" y="468"/>
      <point x="95" y="292" type="curve" smooth="yes"/>
      <point x="95" y="91"/>
      <point x="165" y="-4"/>
      <point x="309" y="-4" type="curve" smooth="yes"/>
    </contour>
    <contour>
      <point x="180" y="27"/>
      <point x="127" y="106"/>
      <point x="127" y="299" type="curve" smooth="yes"/>
      <point x="127" y="390"/>
      <point x="145" y="470"/>
      <point x="181" y="544" type="curve"/>
      <point x="220" y="559"/>
      <point x="274" y="569"/>
      <point x="322" y="569" type="curve" smooth="yes"/>
      <point x="460" y="569"/>
      <point x="513" y="490"/>
      <point x="513" y="297" type="curve" smooth="yes"/>
      <point x="513" y="206"/>
      <point x="495" y="126"/>
      <point x="459" y="52" type="curve"/>
      <point x="420" y="37"/>
      <point x="366" y="27"/>
      <point x="318" y="27" type="curve" smooth="yes"/>
    </contour>
  </outline>
</glyph>
<glyph name="one" format="1">
  <advance width="392"/>
  <unicode hex="0031"/>
  <note>
	one
  </note>
  <outline>
    <contour>
      <point x="264" y="0" type="line"/>
      <point x="264" y="565" type="line" smooth="yes"/>
      <point x="264" y="578"/>
      <point x="245" y="596"/>
      <point x="219" y="600" type="curve"/>
      <point x="80" y="530" type="line"/>
      <point x="89" y="507" type="line"/>
      <point x="222" y="562" type="line"/>
      <point x="232" y="554" type="line"/>
      <point x="232" y="0" type="line"/>
    </contour>
  </outline>
</glyph>
<glyph name="two" format="1">
  <advance width="579"/>
  <unicode hex="0032"/>
  <note>
	two
  </note>
  <outline>
    <contour>
      <point x="481" y="0" type="line"/>
      <point x="481" y="26" type="line" smooth="yes"/>
      <point x="481" y="50"/>
      <point x="477" y="83"/>
      <point x="469" y="109" type="curve"/>
      <point x="449" y="109" type="line"/>
      <point x="449" y="29" type="line"/>
      <point x="130" y="29" type="line"/>
      <point x="130" y="36" type="line"/>
      <point x="300" y="148"/>
      <point x="457" y="286"/>
      <point x="457" y="446" type="curve" smooth="yes"/>
      <point x="457" y="548"/>
      <point x="405" y="600"/>
      <point x="293" y="600" type="curve" smooth="yes"/>
      <point x="218" y="600"/>
      <point x="170" y="585"/>
      <point x="113" y="559" type="curve"/>
      <point x="113" y="536" type="line" smooth="yes"/>
      <point x="113" y="501"/>
      <point x="118" y="475"/>
      <point x="126" y="449" type="curve"/>
      <point x="145" y="449" type="line"/>
      <point x="145" y="545" type="line"/>
      <point x="198" y="562"/>
      <point x="242" y="569"/>
      <point x="287" y="569" type="curve" smooth="yes"/>
      <point x="385" y="569"/>
      <point x="425" y="536"/>
      <point x="425" y="441" type="curve" smooth="yes"/>
      <point x="425" y="309"/>
      <point x="280" y="174"/>
      <point x="93" y="47" type="curve"/>
      <point x="93" y="0" type="line"/>
    </contour>
  </outline>
</glyph>
<glyph name="seven" format="1">
  <advance width="557"/>
  <unicode hex="0037"/>
  <note>
	seven
  </note>
  <outline>
    <contour>
      <point x="284" y="208"/>
      <point x="342" y="367"/>
      <point x="472" y="554" type="curve"/>
      <point x="472" y="600" type="line"/>
      <point x="88" y="600" type="line"/>
      <point x="88" y="567" type="line" smooth="yes"/>
      <point x="88" y="529"/>
      <point x="93" y="499"/>
      <point x="101" y="477" type="curve"/>
      <point x="120" y="477" type="line"/>
      <point x="120" y="569" type="line"/>
      <point x="440" y="569" type="line"/>
      <point x="440" y="563" type="line"/>
      <point x="325" y="400"/>
      <point x="256" y="236"/>
      <point x="210" y="7" type="curve"/>
      <point x="243" y="4" type="line"/>
    </contour>
  </outline>
</glyph>
<glyph name="colon" format="1">
  <advance width="234"/>
  <unicode hex="003A"/>
  <note>
	colon
  </note>
  <outline>
    <contour>
      <point x="144" y="357" type="line"/>
      <point x="144" y="411" type="line"/>
      <point x="90" y="411" type="line"/>
      <point x="90" y="357" type="line"/>
    </contour>
    <contour>
      <point x="144" y="22" type="line"/>
      <point x="144" y="76" type="line"/>
      <point x="90" y="76" type="line"/>
      <point x="90" y="22" type="line"/>
    </contour>
  </outline>
</glyph>
<glyph name="semicolon" format="1">
  <advance width="266"/>
  <unicode hex="003B"/>
  <note>
	semicolon
  </note>
  <outline>
    <contour>
      <point x="161" y="-9"/>
      <point x="176" y="32"/>
      <point x="176" y="79" type="curve" smooth="yes"/>
      <point x="176" y="117"/>
      <point x="158" y="137"/>
      <point x="123" y="137" type="curve" smooth="yes"/>
      <point x="110" y="137"/>
      <point x="99" y="135"/>
      <point x="90" y="132" type="curve"/>
      <point x="90" y="108" type="line"/>
      <point x="146" y="108" type="line"/>
      <point x="146" y="40"/>
      <point x="133" y="0"/>
      <point x="109" y="-42" type="curve"/>
      <point x="131" y="-47" type="line"/>
    </contour>
    <contour>
      <point x="158" y="357" type="line"/>
      <point x="158" y="411" type="line"/>
      <point x="104" y="411" type="line"/>
      <point x="104" y="357" type="line"/>
    </contour>
  </outline>
</glyph>
<glyph name="equal" format="1">
  <advance width="590"/>
  <unicode hex="003D"/>
  <note>
	equal
  </note>
  <outline>
    <contour>
      <point x="480" y="330" type="line"/>
      <point x="480" y="360" type="line"/>
      <point x="110" y="360" type="line"/>
      <point x="110" y="330" type="line"/>
    </contour>
    <contour>
      <point x="480" y="131" type="line"/>
      <point x="480" y="161" type="line"/>
      <point x="110" y="161" type="line"/>
      <point x="110" y="131" type="line"/>
    </contour>
  </outline>
</glyph>
<glyph name="greater" format="1">
  <advance width="617"/>
  <unicode hex="003E"/>
  <note>
	greater
  </note>
  <outline>
    <contour>
      <point x="522" y="230" type="line"/>
      <point x="522" y="266" type="line"/>
      <point x="125" y="458" type="line"/>
      <point x="115" y="421" type="line"/>
      <point x="482" y="251" type="line"/>
      <point x="482" y="245" type="line"/>
      <point x="115" y="75" type="line"/>
      <point x="125" y="38" type="line"/>
    </contour>
  </outline>
</glyph>
<glyph name="question" format="1">
  <advance width="553"/>
  <unicode hex="003F"/>
  <note>
	question
  </note>
  <outline>
    <contour>
      <point x="262" y="154" type="line"/>
      <point x="262" y="212" type="line" smooth="yes"/>
      <point x="262" y="240"/>
      <point x="265" y="245"/>
      <point x="286" y="261" type="curve" smooth="yes"/>
      <point x="399" y="346" type="line" smooth="yes"/>
      <point x="442" y="378"/>
      <point x="449" y="412"/>
      <point x="449" y="466" type="curve" smooth="yes"/>
      <point x="449" y="573"/>
      <point x="402" y="621"/>
      <point x="284" y="621" type="curve" smooth="yes"/>
      <point x="208" y="621"/>
      <point x="139" y="604"/>
      <point x="100" y="587" type="curve"/>
      <point x="100" y="565" type="line" smooth="yes"/>
      <point x="100" y="540"/>
      <point x="105" y="515"/>
      <point x="113" y="492" type="curve"/>
      <point x="132" y="492" type="line"/>
      <point x="132" y="570" type="line"/>
      <point x="179" y="583"/>
      <point x="232" y="590"/>
      <point x="282" y="590" type="curve" smooth="yes"/>
      <point x="379" y="590"/>
      <point x="417" y="555"/>
      <point x="417" y="470" type="curve" smooth="yes"/>
      <point x="417" y="395" type="line"/>
      <point x="260" y="278" type="line" smooth="yes"/>
      <point x="238" y="261"/>
      <point x="230" y="248"/>
      <point x="230" y="220" type="curve" smooth="yes"/>
      <point x="230" y="154" type="line"/>
    </contour>
    <contour>
      <point x="264" y="0" type="line"/>
      <point x="264" y="74" type="line"/>
      <point x="228" y="74" type="line"/>
      <point x="228" y="0" type="line"/>
    </contour>
  </outline>
</glyph>
<glyph name="B" format="1">
  <advance width="521"/>
  <unicode hex="0042"/>
  <note>
	B
  </note>
  <outline>
    <contour>
      <point x="244" y="0" type="line" smooth="yes"/>
      <point x="417" y="0"/>
      <point x="463" y="66"/>
      <point x="463" y="168" type="curve" smooth="yes"/>
      <point x="463" y="236"/>
      <point x="424" y="283"/>
      <point x="350" y="308" type="curve"/>
      <point x="350" y="312" type="line"/>
      <point x="404" y="348"/>
      <point x="433" y="397"/>
      <point x="433" y="460" type="curve" smooth="yes"/>
      <point x="433" y="556"/>
      <point x="377" y="620"/>
      <point x="241" y="620" type="curve" smooth="yes"/>
      <point x="201" y="620"/>
      <point x="143" y="614"/>
      <point x="90" y="601" type="curve"/>
      <point x="90" y="0" type="line"/>
    </contour>
    <contour>
      <point x="121" y="297" type="line"/>
      <point x="271" y="297" type="line" smooth="yes"/>
      <point x="374" y="297"/>
      <point x="431" y="240"/>
      <point x="431" y="167" type="curve" smooth="yes"/>
      <point x="431" y="83"/>
      <point x="402" y="30"/>
      <point x="242" y="30" type="curve" smooth="yes"/>
      <point x="121" y="30" type="line"/>
    </contour>
    <contour>
      <point x="121" y="577" type="line"/>
      <point x="157" y="584"/>
      <point x="199" y="589"/>
      <point x="235" y="589" type="curve" smooth="yes"/>
      <point x="343" y="589"/>
      <point x="401" y="549"/>
      <point x="401" y="459" type="curve" smooth="yes"/>
      <point x="401" y="404"/>
      <point x="382" y="365"/>
      <point x="337" y="328" type="curve"/>
      <point x="121" y="328" type="line"/>
    </contour>
  </outline>
</glyph>
<glyph name="C" format="1">
  <advance width="539"/>
  <unicode hex="0043"/>
  <note>
	C
  </note>
  <outline>
    <contour>
      <point x="390" y="-10"/>
      <point x="445" y="7"/>
      <point x="488" y="37" type="curve"/>
      <point x="472" y="61" type="line"/>
      <point x="428" y="35"/>
      <point x="382" y="21"/>
      <point x="315" y="21" type="curve" smooth="yes"/>
      <point x="166" y="21"/>
      <point x="94" y="114"/>
      <point x="94" y="295" type="curve" smooth="yes"/>
      <point x="94" y="409"/>
      <point x="122" y="494"/>
      <point x="181" y="567" type="curve"/>
      <point x="227" y="583"/>
      <point x="267" y="589"/>
      <point x="311" y="589" type="curve" smooth="yes"/>
      <point x="360" y="589"/>
      <point x="391" y="584"/>
      <point x="426" y="576" type="curve"/>
      <point x="437" y="490" type="line"/>
      <point x="453" y="490" type="line"/>
      <point x="457" y="504"/>
      <point x="460" y="534"/>
      <point x="460" y="554" type="curve" smooth="yes"/>
      <point x="460" y="585" type="line"/>
      <point x="424" y="604"/>
      <point x="381" y="620"/>
      <point x="312" y="620" type="curve" smooth="yes"/>
      <point x="133" y="620"/>
      <point x="62" y="473"/>
      <point x="62" y="295" type="curve" smooth="yes"/>
      <point x="62" y="102"/>
      <point x="143" y="-10"/>
      <point x="313" y="-10" type="curve" smooth="yes"/>
    </contour>
  </outline>
</glyph>
<glyph name="G" format="1">
  <advance width="573"/>
  <unicode hex="0047"/>
  <note>
	G
  </note>
  <outline>
    <contour>
      <point x="427" y="-10"/>
      <point x="497" y="29"/>
      <point x="497" y="88" type="curve" smooth="yes"/>
      <point x="497" y="285" type="line"/>
      <point x="465" y="309" type="line"/>
      <point x="326" y="309" type="line"/>
      <point x="326" y="278" type="line"/>
      <point x="465" y="278" type="line"/>
      <point x="465" y="52" type="line"/>
      <point x="423" y="32"/>
      <point x="386" y="21"/>
      <point x="315" y="21" type="curve" smooth="yes"/>
      <point x="174" y="21"/>
      <point x="94" y="109"/>
      <point x="94" y="295" type="curve" smooth="yes"/>
      <point x="94" y="409"/>
      <point x="122" y="494"/>
      <point x="181" y="567" type="curve"/>
      <point x="227" y="583"/>
      <point x="276" y="589"/>
      <point x="320" y="589" type="curve" smooth="yes"/>
      <point x="369" y="589"/>
      <point x="415" y="584"/>
      <point x="450" y="576" type="curve"/>
      <point x="461" y="490" type="line"/>
      <point x="477" y="490" type="line"/>
      <point x="481" y="504"/>
      <point x="484" y="534"/>
      <point x="484" y="554" type="curve" smooth="yes"/>
      <point x="484" y="585" type="line"/>
      <point x="448" y="604"/>
      <point x="392" y="620"/>
      <point x="323" y="620" type="curve" smooth="yes"/>
      <point x="135" y="620"/>
      <point x="62" y="473"/>
      <point x="62" y="295" type="curve" smooth="yes"/>
      <point x="62" y="98"/>
      <point x="151" y="-10"/>
      <point x="313" y="-10" type="curve" smooth="yes"/>
    </contour>
  </outline>
</glyph>
<glyph name="I" format="1">
  <advance width="218"/>
  <unicode hex="0049"/>
  <note>
	I
  </note>
  <outline>
    <contour>
      <point x="125" y="0" type="line"/>
      <point x="125" y="610" type="line"/>
      <point x="93" y="610" type="line"/>
      <point x="93" y="0" type="line"/>
    </contour>
  </outline>
</glyph>
<glyph name="K" format="1">
  <advance width="573"/>
  <unicode hex="004B"/>
  <note>
	K
  </note>
  <outline>
    <contour>
      <point x="519" y="-5"/>
      <point x="529" y="-3"/>
      <point x="541" y="1" type="curve"/>
      <point x="541" y="20" type="line"/>
      <point x="493" y="27" type="line"/>
      <point x="400" y="232" type="line" smooth="yes"/>
      <point x="379" y="277"/>
      <point x="361" y="297"/>
      <point x="315" y="317" type="curve"/>
      <point x="315" y="323" type="line"/>
      <point x="364" y="352"/>
      <point x="372" y="373"/>
      <point x="396" y="415" type="curve" smooth="yes"/>
      <point x="431" y="477"/>
      <point x="458" y="532"/>
      <point x="487" y="598" type="curve"/>
      <point x="458" y="610" type="line"/>
      <point x="430" y="545"/>
      <point x="402" y="486"/>
      <point x="369" y="425" type="curve" smooth="yes"/>
      <point x="344" y="378"/>
      <point x="319" y="333"/>
      <point x="243" y="333" type="curve" smooth="yes"/>
      <point x="122" y="333" type="line"/>
      <point x="122" y="610" type="line"/>
      <point x="91" y="610" type="line"/>
      <point x="91" y="0" type="line"/>
      <point x="122" y="0" type="line"/>
      <point x="122" y="303" type="line"/>
      <point x="248" y="303" type="line" smooth="yes"/>
      <point x="320" y="303"/>
      <point x="349" y="268"/>
      <point x="375" y="211" type="curve" smooth="yes"/>
      <point x="458" y="27" type="line" smooth="yes"/>
      <point x="468" y="6"/>
      <point x="481" y="-5"/>
      <point x="507" y="-5" type="curve" smooth="yes"/>
    </contour>
  </outline>
</glyph>
<glyph name="L" format="1">
  <advance width="454"/>
  <unicode hex="004C"/>
  <note>
	L
  </note>
  <outline>
    <contour>
      <point x="417" y="0" type="line"/>
      <point x="417" y="31" type="line"/>
      <point x="123" y="31" type="line"/>
      <point x="123" y="610" type="line"/>
      <point x="91" y="610" type="line"/>
      <point x="91" y="0" type="line"/>
    </contour>
  </outline>
</glyph>
<glyph name="P" format="1">
  <advance width="502"/>
  <unicode hex="0050"/>
  <note>
	P
  </note>
  <outline>
    <contour>
      <point x="123" y="0" type="line"/>
      <point x="123" y="218" type="line"/>
      <point x="259" y="218" type="line" smooth="yes"/>
      <point x="413" y="218"/>
      <point x="459" y="290"/>
      <point x="459" y="419" type="curve" smooth="yes"/>
      <point x="459" y="553"/>
      <point x="392" y="620"/>
      <point x="245" y="620" type="curve" smooth="yes"/>
      <point x="189" y="620"/>
      <point x="141" y="610"/>
      <point x="91" y="597" type="curve"/>
      <point x="91" y="0" type="line"/>
    </contour>
    <contour>
      <point x="123" y="575" type="line"/>
      <point x="164" y="586"/>
      <point x="211" y="589"/>
      <point x="243" y="589" type="curve" smooth="yes"/>
      <point x="368" y="589"/>
      <point x="427" y="538"/>
      <point x="427" y="416" type="curve" smooth="yes"/>
      <point x="427" y="353"/>
      <point x="414" y="303"/>
      <point x="386" y="267" type="curve"/>
      <point x="343" y="253"/>
      <point x="314" y="249"/>
      <point x="254" y="249" type="curve" smooth="yes"/>
      <point x="123" y="249" type="line"/>
    </contour>
  </outline>
</glyph>
<glyph name="U" format="1">
  <advance width="585"/>
  <unicode hex="0055"/>
  <note>
	U
  </note>
  <outline>
    <contour>
      <point x="415" y="-10"/>
      <point x="497" y="22"/>
      <point x="497" y="70" type="curve" smooth="yes"/>
      <point x="497" y="610" type="line"/>
      <point x="465" y="610" type="line"/>
      <point x="465" y="52" type="line"/>
      <point x="424" y="34"/>
      <point x="372" y="21"/>
      <point x="298" y="21" type="curve" smooth="yes"/>
      <point x="173" y="21"/>
      <point x="118" y="54"/>
      <point x="118" y="176" type="curve" smooth="yes"/>
      <point x="118" y="610" type="line"/>
      <point x="86" y="610" type="line"/>
      <point x="86" y="165" type="line" smooth="yes"/>
      <point x="86" y="45"/>
      <point x="153" y="-10"/>
      <point x="291" y="-10" type="curve" smooth="yes"/>
    </contour>
  </outline>
</glyph>
<glyph name="V" format="1">
  <advance width="569"/>
  <unicode hex="0056"/>
  <note>
	V
  </note>
  <outline>
    <contour>
      <point x="314" y="0" type="line"/>
      <point x="394" y="175"/>
      <point x="469" y="408"/>
      <point x="520" y="611" type="curve"/>
      <point x="486" y="615" type="line"/>
      <point x="440" y="417"/>
      <point x="354" y="164"/>
      <point x="295" y="31" type="curve"/>
      <point x="274" y="31" type="line"/>
      <point x="215" y="164"/>
      <point x="129" y="417"/>
      <point x="83" y="615" type="curve"/>
      <point x="49" y="611" type="line"/>
      <point x="100" y="408"/>
      <point x="175" y="175"/>
      <point x="255" y="0" type="curve"/>
    </contour>
  </outline>
</glyph>
<glyph name="X" format="1">
  <advance width="606"/>
  <unicode hex="0058"/>
  <note>
	X
  </note>
  <outline>
    <contour>
      <point x="141" y="92"/>
      <point x="198" y="177"/>
      <point x="284" y="290" type="curve"/>
      <point x="322" y="290" type="line"/>
      <point x="408" y="177"/>
      <point x="465" y="92"/>
      <point x="518" y="-5" type="curve"/>
      <point x="551" y="6" type="line"/>
      <point x="493" y="109"/>
      <point x="418" y="220"/>
      <point x="349" y="307" type="curve"/>
      <point x="411" y="391"/>
      <point x="480" y="504"/>
      <point x="537" y="608" type="curve"/>
      <point x="503" y="618" type="line"/>
      <point x="448" y="512"/>
      <point x="389" y="416"/>
      <point x="324" y="325" type="curve"/>
      <point x="282" y="325" type="line"/>
      <point x="217" y="416"/>
      <point x="158" y="512"/>
      <point x="103" y="618" type="curve"/>
      <point x="69" y="608" type="line"/>
      <point x="126" y="504"/>
      <point x="195" y="391"/>
      <point x="257" y="307" type="curve"/>
      <point x="188" y="220"/>
      <point x="113" y="109"/>
      <point x="55" y="6" type="curve"/>
      <point x="88" y="-5" type="line"/>
    </contour>
  </outline>
</glyph>
<glyph name="grave" format="1">
  <advance width="293"/>
  <unicode hex="0060"/>
  <note>
	grave
  </note>
  <outline>
    <contour>
      <point x="169" y="758" type="line"/>
      <point x="85" y="897" type="line"/>
      <point x="40" y="892" type="line"/>
      <point x="150" y="754" type="line"/>
    </contour>
  </outline>
</glyph>
<glyph name="f" format="1">
  <advance width="309"/>
  <unicode hex="0066"/>
  <note>
	f
  </note>
  <outline>
    <contour>
      <point x="139" y="0" type="line"/>
      <point x="139" y="435" type="line"/>
      <point x="240" y="435" type="line"/>
      <point x="244" y="464" type="line"/>
      <point x="139" y="464" type="line"/>
      <point x="139" y="556" type="line" smooth="yes"/>
      <point x="139" y="581"/>
      <point x="141" y="602"/>
      <point x="151" y="630" type="curve"/>
      <point x="178" y="637"/>
      <point x="198" y="639"/>
      <point x="222" y="639" type="curve" smooth="yes"/>
      <point x="249" y="639"/>
      <point x="265" y="638"/>
      <point x="286" y="632" type="curve"/>
      <point x="295" y="658" type="line"/>
      <point x="274" y="665"/>
      <point x="254" y="668"/>
      <point x="228" y="668" type="curve" smooth="yes"/>
      <point x="213" y="668"/>
      <point x="194" y="666"/>
      <point x="173" y="661" type="curve"/>
      <point x="143" y="644"/>
      <point x="109" y="610"/>
      <point x="109" y="558" type="curve" smooth="yes"/>
      <point x="109" y="464" type="line"/>
      <point x="46" y="464" type="line"/>
      <point x="42" y="435" type="line"/>
      <point x="109" y="435" type="line"/>
      <point x="109" y="0" type="line"/>
    </contour>
  </outline>
</glyph>
<glyph name="k" format="1">
  <advance width="470"/>
  <unicode hex="006B"/>
  <note>
	k
  </note>
  <outline>
    <contour>
      <point x="433" y="-5"/>
      <point x="437" y="-4"/>
      <point x="448" y="-2" type="curve"/>
      <point x="448" y="17" type="line"/>
      <point x="409" y="22" type="line"/>
      <point x="350" y="151" type="line" smooth="yes"/>
      <point x="327" y="201"/>
      <point x="304" y="228"/>
      <point x="250" y="245" type="curve"/>
      <point x="250" y="251" type="line"/>
      <point x="301" y="265"/>
      <point x="322" y="291"/>
      <point x="344" y="337" type="curve" smooth="yes"/>
      <point x="401" y="457" type="line"/>
      <point x="372" y="468" type="line"/>
      <point x="318" y="352" type="line" smooth="yes"/>
      <point x="294" y="301"/>
      <point x="266" y="261"/>
      <point x="185" y="261" type="curve" smooth="yes"/>
      <point x="115" y="261" type="line"/>
      <point x="115" y="665" type="line"/>
      <point x="85" y="665" type="line"/>
      <point x="85" y="0" type="line"/>
      <point x="115" y="0" type="line"/>
      <point x="115" y="232" type="line"/>
      <point x="190" y="232" type="line" smooth="yes"/>
      <point x="263" y="232"/>
      <point x="295" y="201"/>
      <point x="325" y="135" type="curve" smooth="yes"/>
      <point x="376" y="23" type="line" smooth="yes"/>
      <point x="384" y="6"/>
      <point x="398" y="-5"/>
      <point x="419" y="-5" type="curve" smooth="yes"/>
    </contour>
  </outline>
</glyph>
<glyph name="l" format="1">
  <advance width="258"/>
  <unicode hex="006C"/>
  <note>
	l
  </note>
  <outline>
    <contour>
      <point x="172" y="1"/>
      <point x="199" y="14"/>
      <point x="225" y="35" type="curve"/>
      <point x="211" y="52" type="line"/>
      <point x="141" y="21" type="line"/>
      <point x="125" y="21" type="line"/>
      <point x="116" y="37"/>
      <point x="113" y="45"/>
      <point x="113" y="74" type="curve" smooth="yes"/>
      <point x="113" y="665" type="line"/>
      <point x="83" y="665" type="line"/>
      <point x="83" y="63" type="line" smooth="yes"/>
      <point x="83" y="36"/>
      <point x="108" y="10"/>
      <point x="136" y="-6" type="curve"/>
    </contour>
  </outline>
</glyph>
<glyph name="m" format="1">
  <advance width="787"/>
  <unicode hex="006D"/>
  <note>
	m
  </note>
  <outline>
    <contour>
      <point x="118" y="0" type="line"/>
      <point x="118" y="370" type="line"/>
      <point x="169" y="417"/>
      <point x="238" y="443"/>
      <point x="300" y="443" type="curve" smooth="yes"/>
      <point x="339" y="443"/>
      <point x="356" y="438"/>
      <point x="380" y="428" type="curve"/>
      <point x="380" y="0" type="line"/>
      <point x="410" y="0" type="line"/>
      <point x="410" y="370" type="line"/>
      <point x="461" y="417"/>
      <point x="530" y="443"/>
      <point x="592" y="443" type="curve" smooth="yes"/>
      <point x="631" y="443"/>
      <point x="648" y="438"/>
      <point x="672" y="428" type="curve"/>
      <point x="672" y="0" type="line"/>
      <point x="702" y="0" type="line"/>
      <point x="702" y="396" type="line" smooth="yes"/>
      <point x="702" y="448"/>
      <point x="669" y="472"/>
      <point x="595" y="472" type="curve" smooth="yes"/>
      <point x="526" y="472"/>
      <point x="467" y="443"/>
      <point x="413" y="398" type="curve"/>
      <point x="407" y="398" type="line"/>
      <point x="407" y="447"/>
      <point x="374" y="472"/>
      <point x="303" y="472" type="curve" smooth="yes"/>
      <point x="234" y="472"/>
      <point x="175" y="443"/>
      <point x="121" y="398" type="curve"/>
      <point x="115" y="398" type="line"/>
      <point x="112" y="464" type="line"/>
      <point x="88" y="464" type="line"/>
      <point x="88" y="0" type="line"/>
    </contour>
  </outline>
</glyph>
<glyph name="p" format="1">
  <advance width="515"/>
  <unicode hex="0070"/>
  <note>
	p
  </note>
  <outline>
    <contour>
      <point x="119" y="-187" type="line"/>
      <point x="119" y="-30" type="line"/>
      <point x="116" y="63" type="line"/>
      <point x="123" y="63" type="line"/>
      <point x="167" y="23"/>
      <point x="222" y="0"/>
      <point x="278" y="0" type="curve" smooth="yes"/>
      <point x="402" y="0"/>
      <point x="453" y="91"/>
      <point x="453" y="235" type="curve" smooth="yes"/>
      <point x="453" y="397"/>
      <point x="397" y="473"/>
      <point x="298" y="473" type="curve" smooth="yes"/>
      <point x="235" y="473"/>
      <point x="183" y="446"/>
      <point x="126" y="395" type="curve"/>
      <point x="119" y="395" type="line"/>
      <point x="115" y="464" type="line"/>
      <point x="89" y="464" type="line"/>
      <point x="89" y="-187" type="line"/>
    </contour>
    <contour>
      <point x="222" y="29"/>
      <point x="168" y="48"/>
      <point x="119" y="99" type="curve"/>
      <point x="119" y="358" type="line"/>
      <point x="165" y="407"/>
      <point x="229" y="444"/>
      <point x="293" y="444" type="curve" smooth="yes"/>
      <point x="386" y="444"/>
      <point x="423" y="374"/>
      <point x="423" y="236" type="curve" smooth="yes"/>
      <point x="423" y="107"/>
      <point x="385" y="29"/>
      <point x="278" y="29" type="curve" smooth="yes"/>
    </contour>
  </outline>
</glyph>
<glyph name="q" format="1">
  <advance width="500"/>
  <unicode hex="0071"/>
  <note>
	q
  </note>
  <outline>
    <contour>
      <point x="412" y="-202" type="line"/>
      <point x="412" y="449" type="line"/>
      <point x="362" y="464"/>
      <point x="319" y="473"/>
      <point x="266" y="473" type="curve" smooth="yes"/>
      <point x="123" y="473"/>
      <point x="58" y="382"/>
      <point x="58" y="215" type="curve" smooth="yes"/>
      <point x="58" y="90"/>
      <point x="116" y="0"/>
      <point x="225" y="0" type="curve" smooth="yes"/>
      <point x="304" y="0"/>
      <point x="350" y="38"/>
      <point x="379" y="69" type="curve"/>
      <point x="387" y="69" type="line"/>
      <point x="382" y="-21" type="line"/>
      <point x="382" y="-202" type="line"/>
    </contour>
    <contour>
      <point x="135" y="29"/>
      <point x="88" y="101"/>
      <point x="88" y="218" type="curve" smooth="yes"/>
      <point x="88" y="369"/>
      <point x="144" y="444"/>
      <point x="264" y="444" type="curve" smooth="yes"/>
      <point x="313" y="444"/>
      <point x="350" y="438"/>
      <point x="382" y="430" type="curve"/>
      <point x="382" y="103" type="line"/>
      <point x="352" y="65"/>
      <point x="300" y="29"/>
      <point x="228" y="29" type="curve" smooth="yes"/>
    </contour>
  </outline>
</glyph>
<glyph name="u" format="1">
  <advance width="498"/>
  <unicode hex="0075"/>
  <note>
	u
  </note>
  <outline>
    <contour>
      <point x="271" y="-10"/>
      <point x="323" y="21"/>
      <point x="378" y="71" type="curve"/>
      <point x="384" y="71" type="line"/>
      <point x="387" y="0" type="line"/>
      <point x="410" y="0" type="line"/>
      <point x="410" y="464" type="line"/>
      <point x="380" y="464" type="line"/>
      <point x="380" y="101" type="line"/>
      <point x="340" y="58"/>
      <point x="273" y="19"/>
      <point x="199" y="19" type="curve" smooth="yes"/>
      <point x="163" y="19"/>
      <point x="141" y="23"/>
      <point x="114" y="33" type="curve"/>
      <point x="114" y="464" type="line"/>
      <point x="84" y="464" type="line"/>
      <point x="84" y="64" type="line" smooth="yes"/>
      <point x="84" y="13"/>
      <point x="125" y="-10"/>
      <point x="194" y="-10" type="curve" smooth="yes"/>
    </contour>
  </outline>
</glyph>
<glyph name="w" format="1">
  <advance width="693"/>
  <unicode hex="0077"/>
  <note>
	w
  </note>
  <outline>
    <contour>
      <point x="225" y="0" type="line"/>
      <point x="260" y="93"/>
      <point x="310" y="226"/>
      <point x="341" y="323" type="curve"/>
      <point x="347" y="323" type="line"/>
      <point x="376" y="224"/>
      <point x="413" y="113"/>
      <point x="453" y="0" type="curve"/>
      <point x="499" y="0" type="line"/>
      <point x="556" y="149"/>
      <point x="599" y="296"/>
      <point x="648" y="464" type="curve"/>
      <point x="618" y="468" type="line"/>
      <point x="570" y="293"/>
      <point x="523" y="138"/>
      <point x="483" y="31" type="curve"/>
      <point x="469" y="31" type="line"/>
      <point x="433" y="138"/>
      <point x="379" y="299"/>
      <point x="339" y="461" type="curve"/>
      <point x="312" y="456" type="line"/>
      <point x="318" y="430"/>
      <point x="325" y="397"/>
      <point x="332" y="372" type="curve"/>
      <point x="288" y="239"/>
      <point x="234" y="92"/>
      <point x="211" y="31" type="curve"/>
      <point x="200" y="31" type="line"/>
      <point x="159" y="147"/>
      <point x="116" y="298"/>
      <point x="75" y="467" type="curve"/>
      <point x="45" y="463" type="line"/>
      <point x="86" y="296"/>
      <point x="130" y="148"/>
      <point x="183" y="0" type="curve"/>
    </contour>
  </outline>
</glyph>
<glyph name="x" format="1">
  <advance width="468"/>
  <unicode hex="0078"/>
  <note>
	x
  </note>
  <outline>
    <contour>
      <point x="111" y="65"/>
      <point x="161" y="146"/>
      <point x="213" y="221" type="curve"/>
      <point x="256" y="221" type="line"/>
      <point x="308" y="146"/>
      <point x="358" y="65"/>
      <point x="397" y="-5" type="curve"/>
      <point x="425" y="2" type="line"/>
      <point x="382" y="74"/>
      <point x="325" y="166"/>
      <point x="275" y="235" type="curve"/>
      <point x="330" y="308"/>
      <point x="378" y="385"/>
      <point x="423" y="461" type="curve"/>
      <point x="394" y="467" type="line"/>
      <point x="353" y="393"/>
      <point x="312" y="325"/>
      <point x="255" y="248" type="curve"/>
      <point x="214" y="248" type="line"/>
      <point x="157" y="325"/>
      <point x="116" y="393"/>
      <point x="75" y="467" type="curve"/>
      <point x="46" y="461" type="line"/>
      <point x="91" y="385"/>
      <point x="139" y="308"/>
      <point x="194" y="235" type="curve"/>
      <point x="144" y="166"/>
      <point x="86" y="74"/>
      <point x="43" y="2" type="curve"/>
      <point x="72" y="-5" type="line"/>
    </contour>
  </outline>
</glyph>
<glyph name="z" format="1">
  <advance width="431"/>
  <unicode hex="007A"/>
  <note>
	z
  </note>
  <outline>
    <contour>
      <point x="371" y="0" type="line"/>
      <point x="371" y="31" type="line" smooth="yes"/>
      <point x="371" y="48"/>
      <point x="368" y="74"/>
      <point x="363" y="95" type="curve"/>
      <point x="344" y="95" type="line"/>
      <point x="340" y="29" type="line"/>
      <point x="92" y="29" type="line"/>
      <point x="92" y="35" type="line"/>
      <point x="359" y="418" type="line"/>
      <point x="359" y="464" type="line"/>
      <point x="71" y="464" type="line"/>
      <point x="71" y="438" type="line" smooth="yes"/>
      <point x="71" y="416"/>
      <point x="74" y="394"/>
      <point x="78" y="375" type="curve"/>
      <point x="98" y="375" type="line"/>
      <point x="102" y="435" type="line"/>
      <point x="329" y="435" type="line"/>
      <point x="329" y="429" type="line"/>
      <point x="62" y="44" type="line"/>
      <point x="62" y="0" type="line"/>
    </contour>
  </outline>
</glyph>
<glyph name="braceleft" format="1">
  <advance width="397"/>
  <unicode hex="007B"/>
  <note>
	braceleft
  </note>
  <outline>
    <contour>
      <point x="332" y="-90" type="line"/>
      <point x="292" y="-87"/>
      <point x="267" y="-78"/>
      <point x="235" y="-66" type="curve"/>
      <point x="224" y="-16"/>
      <point x="219" y="20"/>
      <point x="221" y="70" type="curve" smooth="yes"/>
      <point x="225" y="171" type="line" smooth="yes"/>
      <point x="228" y="245"/>
      <point x="201" y="295"/>
      <point x="137" y="313" type="curve"/>
      <point x="137" y="320" type="line"/>
      <point x="201" y="338"/>
      <point x="228" y="388"/>
      <point x="225" y="462" type="curve" smooth="yes"/>
      <point x="221" y="547" type="line" smooth="yes"/>
      <point x="219" y="597"/>
      <point x="224" y="633"/>
      <point x="235" y="683" type="curve"/>
      <point x="267" y="695"/>
      <point x="292" y="704"/>
      <point x="332" y="707" type="curve"/>
      <point x="332" y="738" type="line"/>
      <point x="224" y="728"/>
      <point x="181" y="674"/>
      <point x="189" y="551" type="curve" smooth="yes"/>
      <point x="194" y="478" type="line" smooth="yes"/>
      <point x="199" y="398"/>
      <point x="174" y="331"/>
      <point x="75" y="331" type="curve"/>
      <point x="75" y="302" type="line"/>
      <point x="174" y="302"/>
      <point x="199" y="235"/>
      <point x="194" y="155" type="curve" smooth="yes"/>
      <point x="189" y="66" type="line" smooth="yes"/>
      <point x="181" y="-57"/>
      <point x="224" y="-111"/>
      <point x="332" y="-121" type="curve"/>
    </contour>
  </outline>
</glyph>
<glyph name="bar" format="1">
  <advance width="221"/>
  <unicode hex="007C"/>
  <note>
	bar
  </note>
  <outline>
    <contour>
      <point x="124" y="-140" type="line"/>
      <point x="124" y="620" type="line"/>
      <point x="97" y="620" type="line"/>
      <point x="97" y="-140" type="line"/>
    </contour>
  </outline>
</glyph>
<glyph name="braceright" format="1">
  <advance width="397"/>
  <unicode hex="007D"/>
  <note>
	braceright
  </note>
  <outline>
    <contour>
      <point x="173" y="-111"/>
      <point x="216" y="-57"/>
      <point x="208" y="66" type="curve" smooth="yes"/>
      <point x="203" y="155" type="line" smooth="yes"/>
      <point x="198" y="235"/>
      <point x="223" y="302"/>
      <point x="322" y="302" type="curve"/>
      <point x="322" y="331" type="line"/>
      <point x="223" y="331"/>
      <point x="198" y="398"/>
      <point x="203" y="478" type="curve" smooth="yes"/>
      <point x="208" y="551" type="line" smooth="yes"/>
      <point x="216" y="674"/>
      <point x="173" y="728"/>
      <point x="65" y="738" type="curve"/>
      <point x="65" y="707" type="line"/>
      <point x="105" y="704"/>
      <point x="130" y="695"/>
      <point x="162" y="683" type="curve"/>
      <point x="173" y="633"/>
      <point x="178" y="597"/>
      <point x="176" y="547" type="curve" smooth="yes"/>
      <point x="172" y="462" type="line" smooth="yes"/>
      <point x="169" y="388"/>
      <point x="196" y="338"/>
      <point x="260" y="320" type="curve"/>
      <point x="260" y="313" type="line"/>
      <point x="196" y="295"/>
      <point x="169" y="245"/>
      <point x="172" y="171" type="curve" smooth="yes"/>
      <point x="176" y="70" type="line" smooth="yes"/>
      <point x="178" y="20"/>
      <point x="173" y="-16"/>
      <point x="162" y="-66" type="curve"/>
      <point x="130" y="-78"/>
      <point x="105" y="-87"/>
      <point x="65" y="-90" type="curve"/>
      <point x="65" y="-121" type="line"/>
    </contour>
  </outline>
</glyph>
<glyph name="currency" format="1">
  <advance width="558"/>
  <unicode hex="00A4"/>
  <note>
	currency
  </note>
  <outline>
    <contour>
      <point x="167" y="151" type="line"/>
      <point x="202" y="126"/>
      <point x="234" y="112"/>
      <point x="281" y="112" type="curve" smooth="yes"/>
      <point x="328" y="112"/>
      <point x="360" y="126"/>
      <point x="395" y="151" type="curve"/>
      <point x="463" y="85" type="line"/>
      <point x="484" y="105" type="line"/>
      <point x="418" y="173" type="line"/>
      <point x="446" y="212"/>
      <point x="457" y="244"/>
      <point x="457" y="291" type="curve" smooth="yes"/>
      <point x="457" y="338"/>
      <point x="446" y="370"/>
      <point x="418" y="409" type="curve"/>
      <point x="484" y="477" type="line"/>
      <point x="463" y="497" type="line"/>
      <point x="395" y="431" type="line"/>
      <point x="360" y="456"/>
      <point x="328" y="470"/>
      <point x="281" y="470" type="curve" smooth="yes"/>
      <point x="234" y="470"/>
      <point x="202" y="456"/>
      <point x="167" y="431" type="curve"/>
      <point x="99" y="497" type="line"/>
      <point x="78" y="477" type="line"/>
      <point x="144" y="409" type="line"/>
      <point x="116" y="370"/>
      <point x="105" y="338"/>
      <point x="105" y="291" type="curve" smooth="yes"/>
      <point x="105" y="244"/>
      <point x="116" y="212"/>
      <point x="144" y="173" type="curve"/>
      <point x="78" y="105" type="line"/>
      <point x="99" y="85" type="line"/>
    </contour>
    <contour>
      <point x="190" y="144"/>
      <point x="135" y="209"/>
      <point x="135" y="291" type="curve" smooth="yes"/>
      <point x="135" y="373"/>
      <point x="190" y="438"/>
      <point x="281" y="438" type="curve" smooth="yes"/>
      <point x="372" y="438"/>
      <point x="427" y="373"/>
      <point x="427" y="291" type="curve" smooth="yes"/>
      <point x="427" y="209"/>
      <point x="372" y="144"/>
      <point x="281" y="144" type="curve" smooth="yes"/>
    </contour>
  </outline>
</glyph>
<glyph name="yen" format="1">
  <advance width="616"/>
  <unicode hex="00A5"/>
  <note>
	yen
  </note>
  <outline>
    <contour>
      <point x="324" y="0" type="line"/>
      <point x="324" y="114" type="line"/>
      <point x="440" y="114" type="line"/>
      <point x="440" y="142" type="line"/>
      <point x="324" y="142" type="line"/>
      <point x="324" y="232" type="line"/>
      <point x="440" y="232" type="line"/>
      <point x="440" y="260" type="line"/>
      <point x="363" y="260" type="line"/>
      <point x="436" y="351"/>
      <point x="507" y="471"/>
      <point x="565" y="606" type="curve"/>
      <point x="533" y="617" type="line"/>
      <point x="479" y="479"/>
      <point x="400" y="353"/>
      <point x="328" y="262" type="curve"/>
      <point x="288" y="262" type="line"/>
      <point x="216" y="353"/>
      <point x="137" y="479"/>
      <point x="83" y="617" type="curve"/>
      <point x="51" y="606" type="line"/>
      <point x="108" y="471"/>
      <point x="180" y="351"/>
      <point x="253" y="260" type="curve"/>
      <point x="177" y="260" type="line"/>
      <point x="177" y="232" type="line"/>
      <point x="292" y="232" type="line"/>
      <point x="292" y="142" type="line"/>
      <point x="177" y="142" type="line"/>
      <point x="177" y="114" type="line"/>
      <point x="292" y="114" type="line"/>
      <point x="292" y="0" type="line"/>
    </contour>
  </outline>
</glyph>
<glyph name="copyright" format="1">
  <advance width="740"/>
  <unicode hex="00A9"/>
  <note>
	copyright
  </note>
  <outline>
    <contour>
      <point x="559" y="12"/>
      <point x="665" y="131"/>
      <point x="665" y="308" type="curve" smooth="yes"/>
      <point x="665" y="485"/>
      <point x="559" y="604"/>
      <point x="370" y="604" type="curve" smooth="yes"/>
      <point x="181" y="604"/>
      <point x="75" y="485"/>
      <point x="75" y="308" type="curve" smooth="yes"/>
      <point x="75" y="131"/>
      <point x="181" y="12"/>
      <point x="370" y="12" type="curve" smooth="yes"/>
    </contour>
    <contour>
      <point x="416" y="122"/>
      <point x="444" y="127"/>
      <point x="473" y="141" type="curve"/>
      <point x="461" y="167" type="line"/>
      <point x="436" y="156"/>
      <point x="416" y="151"/>
      <point x="376" y="151" type="curve" smooth="yes"/>
      <point x="302" y="151"/>
      <point x="257" y="201"/>
      <point x="257" y="298" type="curve" smooth="yes"/>
      <point x="257" y="365"/>
      <point x="272" y="415"/>
      <point x="296" y="455" type="curve"/>
      <point x="320" y="459"/>
      <point x="344" y="460"/>
      <point x="365" y="460" type="curve" smooth="yes"/>
      <point x="400" y="460"/>
      <point x="417" y="458"/>
      <point x="436" y="455" type="curve"/>
      <point x="440" y="398" type="line"/>
      <point x="458" y="398" type="line"/>
      <point x="463" y="414"/>
      <point x="466" y="431"/>
      <point x="466" y="450" type="curve" smooth="yes"/>
      <point x="466" y="465" type="line"/>
      <point x="447" y="478"/>
      <point x="411" y="489"/>
      <point x="368" y="489" type="curve" smooth="yes"/>
      <point x="271" y="489"/>
      <point x="227" y="399"/>
      <point x="227" y="299" type="curve" smooth="yes"/>
      <point x="227" y="196"/>
      <point x="279" y="122"/>
      <point x="376" y="122" type="curve" smooth="yes"/>
    </contour>
    <contour>
      <point x="195" y="30"/>
      <point x="94" y="138"/>
      <point x="94" y="308" type="curve" smooth="yes"/>
      <point x="94" y="478"/>
      <point x="195" y="586"/>
      <point x="370" y="586" type="curve" smooth="yes"/>
      <point x="545" y="586"/>
      <point x="646" y="478"/>
      <point x="646" y="308" type="curve" smooth="yes"/>
      <point x="646" y="138"/>
      <point x="545" y="30"/>
      <point x="370" y="30" type="curve" smooth="yes"/>
    </contour>
  </outline>
</glyph>
<glyph name="guillemotleft" format="1">
  <advance width="475"/>
  <unicode hex="00AB"/>
  <note>
	guillemotleft
  </note>
  <outline>
    <contour>
      <point x="380" y="90" type="line"/>
      <point x="261" y="249" type="line"/>
      <point x="261" y="253" type="line"/>
      <point x="380" y="412" type="line"/>
      <point x="360" y="420" type="line"/>
      <point x="230" y="251" type="line"/>
      <point x="360" y="82" type="line"/>
    </contour>
    <contour>
      <point x="220" y="90" type="line"/>
      <point x="101" y="249" type="line"/>
      <point x="101" y="253" type="line"/>
      <point x="220" y="412" type="line"/>
      <point x="200" y="420" type="line"/>
      <point x="70" y="251" type="line"/>
      <point x="200" y="82" type="line"/>
    </contour>
  </outline>
</glyph>
<glyph name="softhyphen" format="1">
  <advance width="312"/>
  <unicode hex="00AD"/>
  <note>
	softhyphen
  </note>
  <outline>
    <contour>
      <point x="247" y="245" type="line"/>
      <point x="247" y="275" type="line"/>
      <point x="65" y="275" type="line"/>
      <point x="65" y="245" type="line"/>
    </contour>
  </outline>
</glyph>
<glyph name="registered" format="1">
  <advance width="740"/>
  <unicode hex="00AE"/>
  <note>
	registered
  </note>
  <outline>
    <contour>
      <point x="559" y="12"/>
      <point x="665" y="131"/>
      <point x="665" y="308" type="curve" smooth="yes"/>
      <point x="665" y="485"/>
      <point x="559" y="604"/>
      <point x="370" y="604" type="curve" smooth="yes"/>
      <point x="181" y="604"/>
      <point x="75" y="485"/>
      <point x="75" y="308" type="curve" smooth="yes"/>
      <point x="75" y="131"/>
      <point x="181" y="12"/>
      <point x="370" y="12" type="curve" smooth="yes"/>
    </contour>
    <contour>
      <point x="195" y="30"/>
      <point x="94" y="138"/>
      <point x="94" y="308" type="curve" smooth="yes"/>
      <point x="94" y="478"/>
      <point x="195" y="586"/>
      <point x="370" y="586" type="curve" smooth="yes"/>
      <point x="545" y="586"/>
      <point x="646" y="478"/>
      <point x="646" y="308" type="curve" smooth="yes"/>
      <point x="646" y="138"/>
      <point x="545" y="30"/>
      <point x="370" y="30" type="curve" smooth="yes"/>
    </contour>
    <contour>
      <point x="501" y="133"/>
      <point x="509" y="135"/>
      <point x="517" y="138" type="curve"/>
      <point x="517" y="153" type="line"/>
      <point x="493" y="158" type="line"/>
      <point x="449" y="253" type="line" smooth="yes"/>
      <point x="438" y="275"/>
      <point x="425" y="286"/>
      <point x="406" y="293" type="curve"/>
      <point x="406" y="295" type="line"/>
      <point x="454" y="310"/>
      <point x="476" y="344"/>
      <point x="476" y="393" type="curve" smooth="yes"/>
      <point x="476" y="460"/>
      <point x="445" y="502"/>
      <point x="348" y="502" type="curve" smooth="yes"/>
      <point x="317" y="502"/>
      <point x="293" y="498"/>
      <point x="262" y="491" type="curve"/>
      <point x="262" y="136" type="line"/>
      <point x="292" y="136" type="line"/>
      <point x="292" y="288" type="line"/>
      <point x="347" y="288" type="line" smooth="yes"/>
      <point x="391" y="288"/>
      <point x="408" y="270"/>
      <point x="425" y="234" type="curve" smooth="yes"/>
      <point x="461" y="158" type="line" smooth="yes"/>
      <point x="469" y="141"/>
      <point x="479" y="133"/>
      <point x="492" y="133" type="curve" smooth="yes"/>
    </contour>
    <contour>
      <point x="292" y="469" type="line"/>
      <point x="312" y="472"/>
      <point x="331" y="473"/>
      <point x="351" y="473" type="curve" smooth="yes"/>
      <point x="420" y="473"/>
      <point x="446" y="448"/>
      <point x="446" y="390" type="curve" smooth="yes"/>
      <point x="446" y="340"/>
      <point x="423" y="317"/>
      <point x="340" y="317" type="curve" smooth="yes"/>
      <point x="292" y="317" type="line"/>
    </contour>
  </outline>
</glyph>
<glyph name="macron" format="1">
  <advance width="386"/>
  <unicode hex="00AF"/>
  <note>
	macron
  </note>
  <outline>
    <contour>
      <point x="321" y="557" type="line"/>
      <point x="321" y="586" type="line"/>
      <point x="65" y="586" type="line"/>
      <point x="65" y="557" type="line"/>
    </contour>
  </outline>
</glyph>
<glyph name="degree" format="1">
  <advance width="395"/>
  <unicode hex="00B0"/>
  <note>
	degree
  </note>
  <outline>
    <contour>
      <point x="313" y="296"/>
      <point x="363" y="359"/>
      <point x="363" y="460" type="curve" smooth="yes"/>
      <point x="363" y="557"/>
      <point x="312" y="601"/>
      <point x="220" y="601" type="curve" smooth="yes"/>
      <point x="110" y="601"/>
      <point x="60" y="538"/>
      <point x="60" y="437" type="curve" smooth="yes"/>
      <point x="60" y="340"/>
      <point x="111" y="296"/>
      <point x="203" y="296" type="curve" smooth="yes"/>
    </contour>
    <contour>
      <point x="129" y="329"/>
      <point x="97" y="355"/>
      <point x="97" y="445" type="curve" smooth="yes"/>
      <point x="97" y="480"/>
      <point x="102" y="518"/>
      <point x="113" y="553" type="curve"/>
      <point x="150" y="564"/>
      <point x="174" y="568"/>
      <point x="207" y="568" type="curve" smooth="yes"/>
      <point x="294" y="568"/>
      <point x="326" y="542"/>
      <point x="326" y="452" type="curve" smooth="yes"/>
      <point x="326" y="417"/>
      <point x="321" y="379"/>
      <point x="310" y="344" type="curve"/>
      <point x="273" y="333"/>
      <point x="249" y="329"/>
      <point x="216" y="329" type="curve" smooth="yes"/>
    </contour>
  </outline>
</glyph>
<glyph name="plusminus" format="1">
  <advance width="580"/>
  <unicode hex="00B1"/>
  <note>
	plusminus
  </note>
  <outline>
    <contour>
      <point x="305" y="121" type="line"/>
      <point x="305" y="324" type="line"/>
      <point x="490" y="324" type="line"/>
      <point x="490" y="353" type="line"/>
      <point x="305" y="353" type="line"/>
      <point x="305" y="539" type="line"/>
      <point x="275" y="539" type="line"/>
      <point x="275" y="353" type="line"/>
      <point x="90" y="353" type="line"/>
      <point x="90" y="324" type="line"/>
      <point x="275" y="324" type="line"/>
      <point x="275" y="121" type="line"/>
    </contour>
    <contour>
      <point x="485" y="0" type="line"/>
      <point x="485" y="29" type="line"/>
      <point x="105" y="29" type="line"/>
      <point x="105" y="0" type="line"/>
    </contour>
  </outline>
</glyph>
<glyph name="threesuperior" format="1">
  <advance width="308"/>
  <unicode hex="00B3"/>
  <note>
	threesuperior
  </note>
  <outline>
    <contour>
      <point x="228" y="330"/>
      <point x="258" y="373"/>
      <point x="258" y="423" type="curve" smooth="yes"/>
      <point x="258" y="459"/>
      <point x="242" y="492"/>
      <point x="180" y="508" type="curve"/>
      <point x="180" y="511" type="line"/>
      <point x="224" y="525"/>
      <point x="247" y="551"/>
      <point x="247" y="598" type="curve" smooth="yes"/>
      <point x="247" y="652"/>
      <point x="215" y="691"/>
      <point x="145" y="691" type="curve" smooth="yes"/>
      <point x="108" y="691"/>
      <point x="78" y="686"/>
      <point x="46" y="675" type="curve"/>
      <point x="46" y="661" type="line" smooth="yes"/>
      <point x="46" y="649"/>
      <point x="48" y="633"/>
      <point x="52" y="620" type="curve"/>
      <point x="76" y="620" type="line"/>
      <point x="76" y="657" type="line"/>
      <point x="102" y="661"/>
      <point x="116" y="662"/>
      <point x="143" y="662" type="curve" smooth="yes"/>
      <point x="192" y="662"/>
      <point x="216" y="640"/>
      <point x="216" y="593" type="curve" smooth="yes"/>
      <point x="216" y="546"/>
      <point x="190" y="524"/>
      <point x="138" y="524" type="curve" smooth="yes"/>
      <point x="107" y="524" type="line"/>
      <point x="107" y="495" type="line"/>
      <point x="138" y="495" type="line" smooth="yes"/>
      <point x="197" y="495"/>
      <point x="227" y="469"/>
      <point x="227" y="425" type="curve" smooth="yes"/>
      <point x="227" y="407"/>
      <point x="224" y="385"/>
      <point x="215" y="366" type="curve"/>
      <point x="188" y="360"/>
      <point x="168" y="359"/>
      <point x="138" y="359" type="curve" smooth="yes"/>
      <point x="105" y="359"/>
      <point x="78" y="362"/>
      <point x="46" y="370" type="curve"/>
      <point x="41" y="341" type="line"/>
      <point x="71" y="334"/>
      <point x="107" y="330"/>
      <point x="139" y="330" type="curve" smooth="yes"/>
    </contour>
  </outline>
</glyph>
<glyph name="paragraph" format="1">
  <advance width="636"/>
  <unicode hex="00B6"/>
  <note>
	paragraph
  </note>
  <outline>
    <contour>
      <point x="318" y="-120" type="line"/>
      <point x="318" y="586" type="line"/>
      <point x="433" y="586" type="line"/>
      <point x="433" y="-120" type="line"/>
      <point x="465" y="-120" type="line"/>
      <point x="465" y="616" type="line"/>
      <point x="268" y="616" type="line" smooth="yes"/>
      <point x="140" y="616"/>
      <point x="80" y="556"/>
      <point x="80" y="442" type="curve" smooth="yes"/>
      <point x="80" y="337"/>
      <point x="140" y="272"/>
      <point x="258" y="272" type="curve" smooth="yes"/>
      <point x="286" y="272" type="line"/>
      <point x="286" y="-120" type="line"/>
    </contour>
  </outline>
</glyph>
<glyph name="periodcentered" format="1">
  <advance width="336"/>
  <unicode hex="00B7"/>
  <note>
	periodcentered
  </note>
  <outline>
    <contour>
      <point x="192" y="235"/>
      <point x="205" y="247"/>
      <point x="205" y="269" type="curve" smooth="yes"/>
      <point x="205" y="293"/>
      <point x="192" y="305"/>
      <point x="169" y="305" type="curve" smooth="yes"/>
      <point x="146" y="305"/>
      <point x="132" y="293"/>
      <point x="132" y="269" type="curve" smooth="yes"/>
      <point x="132" y="247"/>
      <point x="146" y="235"/>
      <point x="169" y="235" type="curve" smooth="yes"/>
    </contour>
  </outline>
</glyph>
<glyph name="onehalf" format="1">
  <advance width="786"/>
  <unicode hex="00BD"/>
  <note>
	onehalf
  </note>
  <outline>
    <contour>
      <point x="580" y="611" type="line"/>
      <point x="553" y="618" type="line"/>
      <point x="168" y="3" type="line"/>
      <point x="195" y="-5" type="line"/>
    </contour>
    <contour>
      <point x="188" y="256" type="line"/>
      <point x="188" y="589" type="line" smooth="yes"/>
      <point x="188" y="597"/>
      <point x="168" y="613"/>
      <point x="147" y="614" type="curve"/>
      <point x="70" y="564" type="line"/>
      <point x="76" y="550" type="line"/>
      <point x="154" y="582" type="line"/>
      <point x="158" y="579" type="line"/>
      <point x="158" y="256" type="line"/>
    </contour>
    <contour>
      <point x="753" y="0" type="line"/>
      <point x="753" y="13" type="line" smooth="yes"/>
      <point x="753" y="30"/>
      <point x="751" y="46"/>
      <point x="745" y="61" type="curve"/>
      <point x="724" y="61" type="line"/>
      <point x="724" y="29" type="line"/>
      <point x="566" y="29" type="line"/>
      <point x="566" y="33" type="line"/>
      <point x="660" y="93"/>
      <point x="748" y="173"/>
      <point x="748" y="258" type="curve" smooth="yes"/>
      <point x="748" y="312"/>
      <point x="724" y="356"/>
      <point x="647" y="356" type="curve" smooth="yes"/>
      <point x="612" y="356"/>
      <point x="577" y="350"/>
      <point x="545" y="338" type="curve"/>
      <point x="545" y="324" type="line" smooth="yes"/>
      <point x="545" y="304"/>
      <point x="547" y="286"/>
      <point x="550" y="273" type="curve"/>
      <point x="576" y="273" type="line"/>
      <point x="576" y="321" type="line"/>
      <point x="600" y="325"/>
      <point x="619" y="327"/>
      <point x="643" y="327" type="curve" smooth="yes"/>
      <point x="696" y="327"/>
      <point x="717" y="308"/>
      <point x="717" y="256" type="curve" smooth="yes"/>
      <point x="717" y="192"/>
      <point x="649" y="116"/>
      <point x="534" y="46" type="curve"/>
      <point x="534" y="0" type="line"/>
    </contour>
  </outline>
</glyph>
<glyph name="Egrave" format="1">
  <advance width="513"/>
  <unicode hex="00C8"/>
  <note>
	Egrave
  </note>
  <outline>
    <contour>
      <point x="350" y="-10"/>
      <point x="394" y="-5"/>
      <point x="442" y="5" type="curve"/>
      <point x="434" y="34" type="line"/>
      <point x="388" y="25"/>
      <point x="344" y="20"/>
      <point x="287" y="20" type="curve" smooth="yes"/>
      <point x="221" y="20"/>
      <point x="178" y="24"/>
      <point x="122" y="36" type="curve"/>
      <point x="122" y="293" type="line"/>
      <point x="401" y="293" type="line"/>
      <point x="401" y="324" type="line"/>
      <point x="122" y="324" type="line"/>
      <point x="122" y="579" type="line"/>
      <point x="430" y="579" type="line"/>
      <point x="430" y="610" type="line"/>
      <point x="90" y="610" type="line"/>
      <point x="90" y="48" type="line" smooth="yes"/>
      <point x="90" y="4"/>
      <point x="179" y="-10"/>
      <point x="284" y="-10" type="curve" smooth="yes"/>
    </contour>
    <contour>
      <point x="287" y="720" type="line"/>
      <point x="203" y="859" type="line"/>
      <point x="158" y="854" type="line"/>
      <point x="268" y="716" type="line"/>
    </contour>
  </outline>
</glyph>
<glyph name="Igrave" format="1">
  <advance width="218"/>
  <unicode hex="00CC"/>
  <note>
	Igrave
  </note>
  <outline>
    <contour>
      <point x="125" y="0" type="line"/>
      <point x="125" y="610" type="line"/>
      <point x="93" y="610" type="line"/>
      <point x="93" y="0" type="line"/>
    </contour>
    <contour>
      <point x="124" y="720" type="line"/>
      <point x="40" y="859" type="line"/>
      <point x="-5" y="854" type="line"/>
      <point x="105" y="716" type="line"/>
    </contour>
  </outline>
</glyph>
<glyph name="Icircumflex" format="1">
  <advance width="218"/>
  <unicode hex="00CE"/>
  <note>
	Icircumflex
  </note>
  <outline>
    <contour>
      <point x="106" y="823" type="line"/>
      <point x="112" y="823" type="line"/>
      <point x="209" y="716" type="line"/>
      <point x="231" y="721" type="line"/>
      <point x="128" y="852" type="line"/>
      <point x="90" y="852" type="line"/>
      <point x="-13" y="721" type="line"/>
      <point x="9" y="716" type="line"/>
    </contour>
    <contour>
      <point x="125" y="0" type="line"/>
      <point x="125" y="610" type="line"/>
      <point x="93" y="610" type="line"/>
      <point x="93" y="0" type="line"/>
    </contour>
  </outline>
</glyph>
<glyph name="Idieresis" format="1">
  <advance width="218"/>
  <unicode hex="00CF"/>
  <note>
	Idieresis
  </note>
  <outline>
    <contour>
      <point x="125" y="0" type="line"/>
      <point x="125" y="610" type="line"/>
      <point x="93" y="610" type="line"/>
      <point x="93" y="0" type="line"/>
    </contour>
    <contour>
      <point x="47" y="716"/>
      <point x="57" y="726"/>
      <point x="57" y="743" type="curve" smooth="yes"/>
      <point x="57" y="761"/>
      <point x="47" y="770"/>
      <point x="30" y="770" type="curve" smooth="yes"/>
      <point x="13" y="770"/>
      <point x="2" y="761"/>
      <point x="2" y="743" type="curve" smooth="yes"/>
      <point x="2" y="726"/>
      <point x="13" y="716"/>
      <point x="30" y="716" type="curve" smooth="yes"/>
    </contour>
    <contour>
      <point x="205" y="716"/>
      <point x="215" y="726"/>
      <point x="215" y="743" type="curve" smooth="yes"/>
      <point x="215" y="761"/>
      <point x="205" y="770"/>
      <point x="188" y="770" type="curve" smooth="yes"/>
      <point x="170" y="770"/>
      <point x="159" y="761"/>
      <point x="159" y="743" type="curve" smooth="yes"/>
      <point x="159" y="726"/>
      <point x="170" y="716"/>
      <point x="188" y="716" type="curve" smooth="yes"/>
    </contour>
  </outline>
</glyph>
<glyph name="Ntilde" format="1">
  <advance width="603"/>
  <unicode hex="00D1"/>
  <note>
	Ntilde
  </note>
  <outline>
    <contour>
      <point x="121" y="0" type="line"/>
      <point x="121" y="322" type="line"/>
      <point x="115" y="559" type="line"/>
      <point x="121" y="561" type="line"/>
      <point x="477" y="0" type="line"/>
      <point x="513" y="0" type="line"/>
      <point x="513" y="610" type="line"/>
      <point x="482" y="610" type="line"/>
      <point x="482" y="288" type="line"/>
      <point x="488" y="51" type="line"/>
      <point x="482" y="49" type="line"/>
      <point x="126" y="610" type="line"/>
      <point x="90" y="610" type="line"/>
      <point x="90" y="0" type="line"/>
    </contour>
    <contour>
      <point x="403" y="721"/>
      <point x="428" y="754"/>
      <point x="431" y="801" type="curve"/>
      <point x="410" y="807" type="line"/>
      <point x="405" y="772"/>
      <point x="391" y="750"/>
      <point x="361" y="750" type="curve" smooth="yes"/>
      <point x="319" y="750"/>
      <point x="292" y="808"/>
      <point x="244" y="808" type="curve" smooth="yes"/>
      <point x="203" y="808"/>
      <point x="178" y="775"/>
      <point x="175" y="728" type="curve"/>
      <point x="196" y="722" type="line"/>
      <point x="201" y="757"/>
      <point x="215" y="779"/>
      <point x="245" y="779" type="curve" smooth="yes"/>
      <point x="282" y="779"/>
      <point x="312" y="721"/>
      <point x="362" y="721" type="curve" smooth="yes"/>
    </contour>
  </outline>
</glyph>
<glyph name="Uacute" format="1">
  <advance width="585"/>
  <unicode hex="00DA"/>
  <note>
	Uacute
  </note>
  <outline>
    <contour>
      <point x="415" y="-10"/>
      <point x="497" y="22"/>
      <point x="497" y="70" type="curve" smooth="yes"/>
      <point x="497" y="610" type="line"/>
      <point x="465" y="610" type="line"/>
      <point x="465" y="52" type="line"/>
      <point x="424" y="34"/>
      <point x="372" y="21"/>
      <point x="298" y="21" type="curve" smooth="yes"/>
      <point x="173" y="21"/>
      <point x="118" y="54"/>
      <point x="118" y="176" type="curve" smooth="yes"/>
      <point x="118" y="610" type="line"/>
      <point x="86" y="610" type="line"/>
      <point x="86" y="165" type="line" smooth="yes"/>
      <point x="86" y="45"/>
      <point x="153" y="-10"/>
      <point x="291" y="-10" type="curve" smooth="yes"/>
    </contour>
    <contour>
      <point x="406" y="853" type="line"/>
      <point x="361" y="858" type="line"/>
      <point x="277" y="719" type="line"/>
      <point x="296" y="715" type="line"/>
    </contour>
  </outline>
</glyph>
<glyph name="Ucircumflex" format="1">
  <advance width="585"/>
  <unicode hex="00DB"/>
  <note>
	Ucircumflex
  </note>
  <outline>
    <contour>
      <point x="415" y="-10"/>
      <point x="497" y="22"/>
      <point x="497" y="70" type="curve" smooth="yes"/>
      <point x="497" y="610" type="line"/>
      <point x="465" y="610" type="line"/>
      <point x="465" y="52" type="line"/>
      <point x="424" y="34"/>
      <point x="372" y="21"/>
      <point x="298" y="21" type="curve" smooth="yes"/>
      <point x="173" y="21"/>
      <point x="118" y="54"/>
      <point x="118" y="176" type="curve" smooth="yes"/>
      <point x="118" y="610" type="line"/>
      <point x="86" y="610" type="line"/>
      <point x="86" y="165" type="line" smooth="yes"/>
      <point x="86" y="45"/>
      <point x="153" y="-10"/>
      <point x="291" y="-10" type="curve" smooth="yes"/>
    </contour>
    <contour>
      <point x="291" y="823" type="line"/>
      <point x="297" y="823" type="line"/>
      <point x="394" y="716" type="line"/>
      <point x="416" y="721" type="line"/>
      <point x="313" y="852" type="line"/>
      <point x="275" y="852" type="line"/>
      <point x="172" y="721" type="line"/>
      <point x="194" y="716" type="line"/>
    </contour>
  </outline>
</glyph>
<glyph name="Udieresis" format="1">
  <advance width="585"/>
  <unicode hex="00DC"/>
  <note>
	Udieresis
  </note>
  <outline>
    <contour>
      <point x="415" y="-10"/>
      <point x="497" y="22"/>
      <point x="497" y="70" type="curve" smooth="yes"/>
      <point x="497" y="610" type="line"/>
      <point x="465" y="610" type="line"/>
      <point x="465" y="52" type="line"/>
      <point x="424" y="34"/>
      <point x="372" y="21"/>
      <point x="298" y="21" type="curve" smooth="yes"/>
      <point x="173" y="21"/>
      <point x="118" y="54"/>
      <point x="118" y="176" type="curve" smooth="yes"/>
      <point x="118" y="610" type="line"/>
      <point x="86" y="610" type="line"/>
      <point x="86" y="165" type="line" smooth="yes"/>
      <point x="86" y="45"/>
      <point x="153" y="-10"/>
      <point x="291" y="-10" type="curve" smooth="yes"/>
    </contour>
    <contour>
      <point x="233" y="716"/>
      <point x="243" y="726"/>
      <point x="243" y="743" type="curve" smooth="yes"/>
      <point x="243" y="761"/>
      <point x="233" y="770"/>
      <point x="216" y="770" type="curve" smooth="yes"/>
      <point x="199" y="770"/>
      <point x="188" y="761"/>
      <point x="188" y="743" type="curve" smooth="yes"/>
      <point x="188" y="726"/>
      <point x="199" y="716"/>
      <point x="216" y="716" type="curve" smooth="yes"/>
    </contour>
    <contour>
      <point x="391" y="716"/>
      <point x="401" y="726"/>
      <point x="401" y="743" type="curve" smooth="yes"/>
      <point x="401" y="761"/>
      <point x="391" y="770"/>
      <point x="374" y="770" type="curve" smooth="yes"/>
      <point x="356" y="770"/>
      <point x="345" y="761"/>
      <point x="345" y="743" type="curve" smooth="yes"/>
      <point x="345" y="726"/>
      <point x="356" y="716"/>
      <point x="374" y="716" type="curve" smooth="yes"/>
    </contour>
  </outline>
</glyph>
<glyph name="atilde" format="1">
  <advance width="453"/>
  <unicode hex="00E3"/>
  <note>
	atilde
  </note>
  <outline>
    <contour>
      <point x="251" y="-10"/>
      <point x="302" y="20"/>
      <point x="339" y="67" type="curve"/>
      <point x="345" y="67" type="line"/>
      <point x="349" y="0" type="line"/>
      <point x="372" y="0" type="line"/>
      <point x="372" y="332" type="line" smooth="yes"/>
      <point x="372" y="425"/>
      <point x="324" y="472"/>
      <point x="243" y="472" type="curve" smooth="yes"/>
      <point x="185" y="472"/>
      <point x="129" y="454"/>
      <point x="89" y="432" type="curve"/>
      <point x="89" y="423" type="line" smooth="yes"/>
      <point x="89" y="407"/>
      <point x="91" y="385"/>
      <point x="96" y="369" type="curve"/>
      <point x="118" y="369" type="line"/>
      <point x="128" y="437" type="line"/>
      <point x="158" y="441"/>
      <point x="194" y="444"/>
      <point x="222" y="444" type="curve" smooth="yes"/>
      <point x="307" y="444"/>
      <point x="342" y="413"/>
      <point x="342" y="322" type="curve" smooth="yes"/>
      <point x="342" y="245" type="line"/>
      <point x="318" y="248"/>
      <point x="284" y="251"/>
      <point x="248" y="251" type="curve" smooth="yes"/>
      <point x="121" y="251"/>
      <point x="52" y="199"/>
      <point x="52" y="101" type="curve" smooth="yes"/>
      <point x="52" y="34"/>
      <point x="95" y="-10"/>
      <point x="179" y="-10" type="curve" smooth="yes"/>
    </contour>
    <contour>
      <point x="122" y="18"/>
      <point x="82" y="38"/>
      <point x="82" y="109" type="curve" smooth="yes"/>
      <point x="82" y="147"/>
      <point x="94" y="180"/>
      <point x="114" y="209" type="curve"/>
      <point x="150" y="218"/>
      <point x="195" y="222"/>
      <point x="233" y="222" type="curve" smooth="yes"/>
      <point x="272" y="222"/>
      <point x="307" y="220"/>
      <point x="344" y="216" type="curve"/>
      <point x="344" y="104" type="line"/>
      <point x="309" y="52"/>
      <point x="255" y="18"/>
      <point x="186" y="18" type="curve" smooth="yes"/>
    </contour>
    <contour>
      <point x="341" y="566"/>
      <point x="366" y="599"/>
      <point x="369" y="646" type="curve"/>
      <point x="348" y="652" type="line"/>
      <point x="343" y="617"/>
      <point x="329" y="595"/>
      <point x="299" y="595" type="curve" smooth="yes"/>
      <point x="257" y="595"/>
      <point x="230" y="653"/>
      <point x="182" y="653" type="curve" smooth="yes"/>
      <point x="141" y="653"/>
      <point x="116" y="620"/>
      <point x="113" y="573" type="curve"/>
      <point x="134" y="567" type="line"/>
      <point x="139" y="602"/>
      <point x="153" y="624"/>
      <point x="183" y="624" type="curve" smooth="yes"/>
      <point x="220" y="624"/>
      <point x="250" y="566"/>
      <point x="300" y="566" type="curve" smooth="yes"/>
    </contour>
  </outline>
</glyph>
<glyph name="icircumflex" format="1">
  <advance width="212"/>
  <unicode hex="00EE"/>
  <note>
	icircumflex
  </note>
  <outline>
    <contour>
      <point x="103" y="673" type="line"/>
      <point x="109" y="673" type="line"/>
      <point x="206" y="566" type="line"/>
      <point x="228" y="571" type="line"/>
      <point x="125" y="702" type="line"/>
      <point x="87" y="702" type="line"/>
      <point x="-16" y="571" type="line"/>
      <point x="6" y="566" type="line"/>
    </contour>
    <contour>
      <point x="121" y="0" type="line"/>
      <point x="121" y="464" type="line"/>
      <point x="91" y="464" type="line"/>
      <point x="91" y="0" type="line"/>
    </contour>
  </outline>
</glyph>
<glyph name="eth" format="1">
  <advance width="553"/>
  <unicode hex="00F0"/>
  <note>
	eth
  </note>
  <outline>
    <contour>
      <point x="426" y="-4"/>
      <point x="446" y="108"/>
      <point x="446" y="249" type="curve" smooth="yes"/>
      <point x="446" y="344"/>
      <point x="431" y="416"/>
      <point x="373" y="496" type="curve"/>
      <point x="473" y="532" type="line"/>
      <point x="462" y="556" type="line"/>
      <point x="357" y="518" type="line"/>
      <point x="322" y="558"/>
      <point x="279" y="588"/>
      <point x="233" y="612" type="curve"/>
      <point x="219" y="593" type="line"/>
      <point x="260" y="573"/>
      <point x="298" y="544"/>
      <point x="333" y="507" type="curve"/>
      <point x="221" y="465" type="line"/>
      <point x="231" y="441" type="line"/>
      <point x="348" y="485" type="line"/>
      <point x="389" y="432"/>
      <point x="415" y="359"/>
      <point x="417" y="272" type="curve"/>
      <point x="413" y="272" type="line"/>
      <point x="382" y="308"/>
      <point x="334" y="342"/>
      <point x="263" y="342" type="curve" smooth="yes"/>
      <point x="159" y="342"/>
      <point x="90" y="283"/>
      <point x="90" y="171" type="curve" smooth="yes"/>
      <point x="90" y="56"/>
      <point x="160" y="-4"/>
      <point x="263" y="-4" type="curve" smooth="yes"/>
    </contour>
    <contour>
      <point x="179" y="27"/>
      <point x="122" y="72"/>
      <point x="122" y="173" type="curve" smooth="yes"/>
      <point x="122" y="265"/>
      <point x="169" y="311"/>
      <point x="268" y="311" type="curve" smooth="yes"/>
      <point x="337" y="311"/>
      <point x="376" y="280"/>
      <point x="413" y="239" type="curve"/>
      <point x="415" y="218"/>
      <point x="415" y="214"/>
      <point x="415" y="198" type="curve" smooth="yes"/>
      <point x="415" y="145"/>
      <point x="405" y="90"/>
      <point x="385" y="50" type="curve"/>
      <point x="347" y="33"/>
      <point x="317" y="27"/>
      <point x="271" y="27" type="curve" smooth="yes"/>
    </contour>
  </outline>
</glyph>
<glyph name="ntilde" format="1">
  <advance width="503"/>
  <unicode hex="00F1"/>
  <note>
	ntilde
  </note>
  <outline>
    <contour>
      <point x="118" y="0" type="line"/>
      <point x="118" y="367" type="line"/>
      <point x="162" y="409"/>
      <point x="236" y="443"/>
      <point x="302" y="443" type="curve" smooth="yes"/>
      <point x="340" y="443"/>
      <point x="361" y="439"/>
      <point x="388" y="429" type="curve"/>
      <point x="388" y="0" type="line"/>
      <point x="418" y="0" type="line"/>
      <point x="418" y="398" type="line" smooth="yes"/>
      <point x="418" y="449"/>
      <point x="379" y="472"/>
      <point x="308" y="472" type="curve" smooth="yes"/>
      <point x="241" y="472"/>
      <point x="178" y="446"/>
      <point x="120" y="397" type="curve"/>
      <point x="114" y="397" type="line"/>
      <point x="111" y="464" type="line"/>
      <point x="88" y="464" type="line"/>
      <point x="88" y="0" type="line"/>
    </contour>
    <contour>
      <point x="354" y="566"/>
      <point x="379" y="599"/>
      <point x="382" y="646" type="curve"/>
      <point x="361" y="652" type="line"/>
      <point x="356" y="617"/>
      <point x="342" y="595"/>
      <point x="312" y="595" type="curve" smooth="yes"/>
      <point x="270" y="595"/>
      <point x="243" y="653"/>
      <point x="195" y="653" type="curve" smooth="yes"/>
      <point x="154" y="653"/>
      <point x="129" y="620"/>
      <point x="126" y="573" type="curve"/>
      <point x="147" y="567" type="line"/>
      <point x="152" y="602"/>
      <point x="166" y="624"/>
      <point x="196" y="624" type="curve" smooth="yes"/>
      <point x="233" y="624"/>
      <point x="263" y="566"/>
      <point x="313" y="566" type="curve" smooth="yes"/>
    </contour>
  </outline>
</glyph>
<glyph name="ocircumflex" format="1">
  <advance width="492"/>
  <unicode hex="00F4"/>
  <note>
	ocircumflex
  </note>
  <outline>
    <contour>
      <point x="397" y="-10"/>
      <point x="430" y="111"/>
      <point x="430" y="246" type="curve" smooth="yes"/>
      <point x="430" y="390"/>
      <point x="371" y="481"/>
      <point x="257" y="481" type="curve" smooth="yes"/>
      <point x="95" y="481"/>
      <point x="62" y="360"/>
      <point x="62" y="225" type="curve" smooth="yes"/>
      <point x="62" y="81"/>
      <point x="121" y="-10"/>
      <point x="235" y="-10" type="curve" smooth="yes"/>
    </contour>
    <contour>
      <point x="143" y="19"/>
      <point x="92" y="89"/>
      <point x="92" y="233" type="curve" smooth="yes"/>
      <point x="92" y="308"/>
      <point x="110" y="385"/>
      <point x="135" y="425" type="curve"/>
      <point x="166" y="444"/>
      <point x="206" y="452"/>
      <point x="250" y="452" type="curve" smooth="yes"/>
      <point x="349" y="452"/>
      <point x="400" y="382"/>
      <point x="400" y="238" type="curve" smooth="yes"/>
      <point x="400" y="163"/>
      <point x="382" y="86"/>
      <point x="357" y="46" type="curve"/>
      <point x="326" y="27"/>
      <point x="286" y="19"/>
      <point x="242" y="19" type="curve" smooth="yes"/>
    </contour>
    <contour>
      <point x="243" y="673" type="line"/>
      <point x="249" y="673" type="line"/>
      <point x="346" y="566" type="line"/>
      <point x="368" y="571" type="line"/>
      <point x="265" y="702" type="line"/>
      <point x="227" y="702" type="line"/>
      <point x="124" y="571" type="line"/>
      <point x="146" y="566" type="line"/>
    </contour>
  </outline>
</glyph>
<glyph name="divide" format="1">
  <advance width="520"/>
  <unicode hex="00F7"/>
  <note>
	divide
  </note>
  <outline>
    <contour>
      <point x="455" y="292" type="line"/>
      <point x="455" y="322" type="line"/>
      <point x="65" y="322" type="line"/>
      <point x="65" y="292" type="line"/>
    </contour>
    <contour>
      <point x="283" y="113"/>
      <point x="296" y="125"/>
      <point x="296" y="147" type="curve" smooth="yes"/>
      <point x="296" y="171"/>
      <point x="283" y="183"/>
      <point x="260" y="183" type="curve" smooth="yes"/>
      <point x="237" y="183"/>
      <point x="223" y="171"/>
      <point x="223" y="147" type="curve" smooth="yes"/>
      <point x="223" y="125"/>
      <point x="237" y="113"/>
      <point x="260" y="113" type="curve" smooth="yes"/>
    </contour>
    <contour>
      <point x="283" y="430"/>
      <point x="296" y="442"/>
      <point x="296" y="464" type="curve" smooth="yes"/>
      <point x="296" y="488"/>
      <point x="283" y="500"/>
      <point x="260" y="500" type="curve" smooth="yes"/>
      <point x="237" y="500"/>
      <point x="223" y="488"/>
      <point x="223" y="464" type="curve" smooth="yes"/>
      <point x="223" y="442"/>
      <point x="237" y="430"/>
      <point x="260" y="430" type="curve" smooth="yes"/>
    </contour>
  </outline>
</glyph>
<glyph name="thorn" format="1">
  <advance width="475"/>
  <unicode hex="00FE"/>
  <note>
	thorn
  </note>
  <outline>
    <contour>
      <point x="122" y="-180" type="line"/>
      <point x="122" y="120" type="line"/>
      <point x="128" y="120" type="line"/>
      <point x="168" y="91"/>
      <point x="212" y="74"/>
      <point x="269" y="74" type="curve" smooth="yes"/>
      <point x="371" y="74"/>
      <point x="420" y="151"/>
      <point x="420" y="267" type="curve" smooth="yes"/>
      <point x="420" y="384"/>
      <point x="380" y="453"/>
      <point x="274" y="453" type="curve" smooth="yes"/>
      <point x="214" y="453"/>
      <point x="169" y="430"/>
      <point x="128" y="403" type="curve"/>
      <point x="122" y="403" type="line"/>
      <point x="122" y="670" type="line"/>
      <point x="90" y="670" type="line"/>
      <point x="90" y="-180" type="line"/>
    </contour>
    <contour>
      <point x="206" y="105"/>
      <point x="167" y="123"/>
      <point x="122" y="151" type="curve"/>
      <point x="122" y="371" type="line"/>
      <point x="166" y="402"/>
      <point x="214" y="422"/>
      <point x="264" y="422" type="curve" smooth="yes"/>
      <point x="364" y="422"/>
      <point x="388" y="366"/>
      <point x="388" y="267" type="curve" smooth="yes"/>
      <point x="388" y="169"/>
      <point x="360" y="105"/>
      <point x="264" y="105" type="curve" smooth="yes"/>
    </contour>
  </outline>
</glyph>
<glyph name="Dcaron" format="1">
  <advance width="556"/>
  <unicode hex="010E"/>
  <note>
	Dcaron
  </note>
  <outline>
    <contour>
      <point x="270" y="0" type="line" smooth="yes"/>
      <point x="453" y="0"/>
      <point x="502" y="159"/>
      <point x="502" y="318" type="curve" smooth="yes"/>
      <point x="502" y="519"/>
      <point x="424" y="620"/>
      <point x="245" y="620" type="curve" smooth="yes"/>
      <point x="186" y="620"/>
      <point x="140" y="614"/>
      <point x="90" y="604" type="curve"/>
      <point x="90" y="0" type="line"/>
    </contour>
    <contour>
      <point x="122" y="579" type="line"/>
      <point x="168" y="586"/>
      <point x="201" y="589"/>
      <point x="241" y="589" type="curve" smooth="yes"/>
      <point x="400" y="589"/>
      <point x="470" y="505"/>
      <point x="470" y="315" type="curve" smooth="yes"/>
      <point x="470" y="193"/>
      <point x="441" y="103"/>
      <point x="384" y="48" type="curve"/>
      <point x="346" y="35"/>
      <point x="316" y="31"/>
      <point x="266" y="31" type="curve" smooth="yes"/>
      <point x="122" y="31" type="line"/>
    </contour>
    <contour>
      <point x="294" y="721" type="line"/>
      <point x="397" y="852" type="line"/>
      <point x="375" y="857" type="line"/>
      <point x="278" y="750" type="line"/>
      <point x="272" y="750" type="line"/>
      <point x="175" y="857" type="line"/>
      <point x="153" y="852" type="line"/>
      <point x="256" y="721" type="line"/>
    </contour>
  </outline>
</glyph>
<glyph name="dcroat" format="1">
  <advance width="510"/>
  <unicode hex="0111"/>
  <note>
	dcroat
  </note>
  <outline>
    <contour>
      <point x="302" y="-10"/>
      <point x="355" y="27"/>
      <point x="384" y="69" type="curve"/>
      <point x="391" y="69" type="line"/>
      <point x="394" y="0" type="line"/>
      <point x="416" y="0" type="line"/>
      <point x="416" y="553" type="line"/>
      <point x="475" y="553" type="line"/>
      <point x="475" y="582" type="line"/>
      <point x="416" y="582" type="line"/>
      <point x="416" y="665" type="line"/>
      <point x="386" y="665" type="line"/>
      <point x="386" y="582" type="line"/>
      <point x="246" y="582" type="line"/>
      <point x="246" y="553" type="line"/>
      <point x="386" y="553" type="line"/>
      <point x="386" y="500" type="line"/>
      <point x="391" y="409" type="line"/>
      <point x="384" y="409" type="line"/>
      <point x="341" y="447"/>
      <point x="302" y="472"/>
      <point x="238" y="472" type="curve" smooth="yes"/>
      <point x="111" y="472"/>
      <point x="62" y="355"/>
      <point x="62" y="234" type="curve" smooth="yes"/>
      <point x="62" y="82"/>
      <point x="114" y="-10"/>
      <point x="236" y="-10" type="curve" smooth="yes"/>
    </contour>
    <contour>
      <point x="127" y="19"/>
      <point x="92" y="103"/>
      <point x="92" y="231" type="curve" smooth="yes"/>
      <point x="92" y="366"/>
      <point x="140" y="443"/>
      <point x="245" y="443" type="curve" smooth="yes"/>
      <point x="301" y="443"/>
      <point x="335" y="423"/>
      <point x="386" y="377" type="curve"/>
      <point x="386" y="108" type="line"/>
      <point x="360" y="62"/>
      <point x="312" y="19"/>
      <point x="240" y="19" type="curve" smooth="yes"/>
    </contour>
  </outline>
</glyph>
<glyph name="eogonek" format="1">
  <advance width="460"/>
  <unicode hex="0119"/>
  <note>
	eogonek
  </note>
  <outline>
    <contour>
      <point x="382" y="-150"/>
      <point x="397" y="-146"/>
      <point x="412" y="-139" type="curve"/>
      <point x="407" y="-116" type="line"/>
      <point x="392" y="-119"/>
      <point x="379" y="-121"/>
      <point x="366" y="-121" type="curve" smooth="yes"/>
      <point x="351" y="-121"/>
      <point x="341" y="-120"/>
      <point x="326" y="-117" type="curve"/>
      <point x="319" y="-105"/>
      <point x="316" y="-90"/>
      <point x="316" y="-76" type="curve" smooth="yes"/>
      <point x="316" y="-39"/>
      <point x="329" y="-14"/>
      <point x="370" y="12" type="curve"/>
      <point x="379" y="16"/>
      <point x="387" y="21"/>
      <point x="396" y="25" type="curve"/>
      <point x="385" y="50" type="line"/>
      <point x="346" y="29"/>
      <point x="311" y="19"/>
      <point x="252" y="19" type="curve" smooth="yes"/>
      <point x="141" y="19"/>
      <point x="96" y="88"/>
      <point x="92" y="219" type="curve"/>
      <point x="368" y="219" type="line"/>
      <point x="406" y="260" type="line"/>
      <point x="422" y="398"/>
      <point x="350" y="472"/>
      <point x="248" y="472" type="curve" smooth="yes"/>
      <point x="118" y="472"/>
      <point x="62" y="377"/>
      <point x="62" y="231" type="curve" smooth="yes"/>
      <point x="62" y="76"/>
      <point x="122" y="-10"/>
      <point x="252" y="-10" type="curve" smooth="yes"/>
      <point x="275" y="-10"/>
      <point x="295" y="-8"/>
      <point x="313" y="-5" type="curve"/>
      <point x="294" y="-24"/>
      <point x="286" y="-47"/>
      <point x="286" y="-75" type="curve" smooth="yes"/>
      <point x="286" y="-119"/>
      <point x="309" y="-150"/>
      <point x="359" y="-150" type="curve" smooth="yes"/>
    </contour>
    <contour>
      <point x="100" y="365"/>
      <point x="133" y="443"/>
      <point x="245" y="443" type="curve" smooth="yes"/>
      <point x="335" y="443"/>
      <point x="381" y="383"/>
      <point x="381" y="295" type="curve" smooth="yes"/>
      <point x="381" y="277"/>
      <point x="380" y="262"/>
      <point x="376" y="249" type="curve"/>
      <point x="92" y="244" type="line"/>
    </contour>
  </outline>
</glyph>
<glyph name="Ecaron" format="1">
  <advance width="513"/>
  <unicode hex="011A"/>
  <note>
	Ecaron
  </note>
  <outline>
    <contour>
      <point x="350" y="-10"/>
      <point x="394" y="-5"/>
      <point x="442" y="5" type="curve"/>
      <point x="434" y="34" type="line"/>
      <point x="388" y="25"/>
      <point x="344" y="20"/>
      <point x="287" y="20" type="curve" smooth="yes"/>
      <point x="221" y="20"/>
      <point x="178" y="24"/>
      <point x="122" y="36" type="curve"/>
      <point x="122" y="293" type="line"/>
      <point x="401" y="293" type="line"/>
      <point x="401" y="324" type="line"/>
      <point x="122" y="324" type="line"/>
      <point x="122" y="579" type="line"/>
      <point x="430" y="579" type="line"/>
      <point x="430" y="610" type="line"/>
      <point x="90" y="610" type="line"/>
      <point x="90" y="48" type="line" smooth="yes"/>
      <point x="90" y="4"/>
      <point x="179" y="-10"/>
      <point x="284" y="-10" type="curve" smooth="yes"/>
    </contour>
    <contour>
      <point x="275" y="721" type="line"/>
      <point x="378" y="852" type="line"/>
      <point x="356" y="857" type="line"/>
      <point x="259" y="750" type="line"/>
      <point x="253" y="750" type="line"/>
      <point x="156" y="857" type="line"/>
      <point x="134" y="852" type="line"/>
      <point x="237" y="721" type="line"/>
    </contour>
  </outline>
</glyph>
<glyph name="gbreve" format="1">
  <advance width="491"/>
  <unicode hex="011F"/>
  <note>
	gbreve
  </note>
  <outline>
    <contour>
      <point x="337" y="-185"/>
      <point x="406" y="-156"/>
      <point x="406" y="-68" type="curve" smooth="yes"/>
      <point x="406" y="468" type="line"/>
      <point x="381" y="468" type="line"/>
      <point x="378" y="395" type="line"/>
      <point x="372" y="395" type="line"/>
      <point x="342" y="438"/>
      <point x="301" y="473"/>
      <point x="235" y="473" type="curve" smooth="yes"/>
      <point x="117" y="473"/>
      <point x="64" y="379"/>
      <point x="64" y="231" type="curve" smooth="yes"/>
      <point x="64" y="91"/>
      <point x="118" y="4"/>
      <point x="227" y="4" type="curve" smooth="yes"/>
      <point x="294" y="4"/>
      <point x="341" y="38"/>
      <point x="373" y="78" type="curve"/>
      <point x="380" y="78" type="line"/>
      <point x="377" y="20" type="line"/>
      <point x="377" y="-125" type="line"/>
      <point x="346" y="-146"/>
      <point x="305" y="-156"/>
      <point x="240" y="-156" type="curve" smooth="yes"/>
      <point x="193" y="-156"/>
      <point x="144" y="-145"/>
      <point x="104" y="-128" type="curve"/>
      <point x="94" y="-154" type="line"/>
      <point x="133" y="-172"/>
      <point x="180" y="-185"/>
      <point x="241" y="-185" type="curve" smooth="yes"/>
    </contour>
    <contour>
      <point x="137" y="33"/>
      <point x="94" y="102"/>
      <point x="94" y="232" type="curve" smooth="yes"/>
      <point x="94" y="366"/>
      <point x="134" y="444"/>
      <point x="236" y="444" type="curve" smooth="yes"/>
      <point x="303" y="444"/>
      <point x="347" y="400"/>
      <point x="377" y="358" type="curve"/>
      <point x="377" y="113" type="line"/>
      <point x="343" y="69"/>
      <point x="299" y="33"/>
      <point x="230" y="33" type="curve" smooth="yes"/>
    </contour>
    <contour>
      <point x="335" y="566"/>
      <point x="366" y="610"/>
      <point x="378" y="662" type="curve"/>
      <point x="345" y="668" type="line"/>
      <point x="336" y="626"/>
      <point x="318" y="595"/>
      <point x="261" y="595" type="curve" smooth="yes"/>
      <point x="204" y="595"/>
      <point x="186" y="626"/>
      <point x="177" y="668" type="curve"/>
      <point x="144" y="662" type="line"/>
      <point x="156" y="610"/>
      <point x="187" y="566"/>
      <point x="261" y="566" type="curve" smooth="yes"/>
    </contour>
  </outline>
</glyph>
<glyph name="Gdotaccent" format="1">
  <advance width="573"/>
  <unicode hex="0120"/>
  <note>
	Gdotaccent
  </note>
  <outline>
    <contour>
      <point x="427" y="-10"/>
      <point x="497" y="29"/>
      <point x="497" y="88" type="curve" smooth="yes"/>
      <point x="497" y="285" type="line"/>
      <point x="465" y="309" type="line"/>
      <point x="326" y="309" type="line"/>
      <point x="326" y="278" type="line"/>
      <point x="465" y="278" type="line"/>
      <point x="465" y="52" type="line"/>
      <point x="423" y="32"/>
      <point x="386" y="21"/>
      <point x="315" y="21" type="curve" smooth="yes"/>
      <point x="174" y="21"/>
      <point x="94" y="109"/>
      <point x="94" y="295" type="curve" smooth="yes"/>
      <point x="94" y="409"/>
      <point x="122" y="494"/>
      <point x="181" y="567" type="curve"/>
      <point x="227" y="583"/>
      <point x="276" y="589"/>
      <point x="320" y="589" type="curve" smooth="yes"/>
      <point x="369" y="589"/>
      <point x="415" y="584"/>
      <point x="450" y="576" type="curve"/>
      <point x="461" y="490" type="line"/>
      <point x="477" y="490" type="line"/>
      <point x="481" y="504"/>
      <point x="484" y="534"/>
      <point x="484" y="554" type="curve" smooth="yes"/>
      <point x="484" y="585" type="line"/>
      <point x="448" y="604"/>
      <point x="392" y="620"/>
      <point x="323" y="620" type="curve" smooth="yes"/>
      <point x="135" y="620"/>
      <point x="62" y="473"/>
      <point x="62" y="295" type="curve" smooth="yes"/>
      <point x="62" y="98"/>
      <point x="151" y="-10"/>
      <point x="313" y="-10" type="curve" smooth="yes"/>
    </contour>
    <contour>
      <point x="337" y="716"/>
      <point x="350" y="728"/>
      <point x="350" y="750" type="curve" smooth="yes"/>
      <point x="350" y="774"/>
      <point x="337" y="786"/>
      <point x="314" y="786" type="curve" smooth="yes"/>
      <point x="291" y="786"/>
      <point x="277" y="774"/>
      <point x="277" y="750" type="curve" smooth="yes"/>
      <point x="277" y="728"/>
      <point x="291" y="716"/>
      <point x="314" y="716" type="curve" smooth="yes"/>
    </contour>
  </outline>
</glyph>
<glyph name="gdotaccent" format="1">
  <advance width="491"/>
  <unicode hex="0121"/>
  <note>
	gdotaccent
  </note>
  <outline>
    <contour>
      <point x="337" y="-185"/>
      <point x="406" y="-156"/>
      <point x="406" y="-68" type="curve" smooth="yes"/>
      <point x="406" y="468" type="line"/>
      <point x="381" y="468" type="line"/>
      <point x="378" y="395" type="line"/>
      <point x="372" y="395" type="line"/>
      <point x="342" y="438"/>
      <point x="301" y="473"/>
      <point x="235" y="473" type="curve" smooth="yes"/>
      <point x="117" y="473"/>
      <point x="64" y="379"/>
      <point x="64" y="231" type="curve" smooth="yes"/>
      <point x="64" y="91"/>
      <point x="118" y="4"/>
      <point x="227" y="4" type="curve" smooth="yes"/>
      <point x="294" y="4"/>
      <point x="341" y="38"/>
      <point x="373" y="78" type="curve"/>
      <point x="380" y="78" type="line"/>
      <point x="377" y="20" type="line"/>
      <point x="377" y="-125" type="line"/>
      <point x="346" y="-146"/>
      <point x="305" y="-156"/>
      <point x="240" y="-156" type="curve" smooth="yes"/>
      <point x="193" y="-156"/>
      <point x="144" y="-145"/>
      <point x="104" y="-128" type="curve"/>
      <point x="94" y="-154" type="line"/>
      <point x="133" y="-172"/>
      <point x="180" y="-185"/>
      <point x="241" y="-185" type="curve" smooth="yes"/>
    </contour>
    <contour>
      <point x="137" y="33"/>
      <point x="94" y="102"/>
      <point x="94" y="232" type="curve" smooth="yes"/>
      <point x="94" y="366"/>
      <point x="134" y="444"/>
      <point x="236" y="444" type="curve" smooth="yes"/>
      <point x="303" y="444"/>
      <point x="347" y="400"/>
      <point x="377" y="358" type="curve"/>
      <point x="377" y="113" type="line"/>
      <point x="343" y="69"/>
      <point x="299" y="33"/>
      <point x="230" y="33" type="curve" smooth="yes"/>
    </contour>
    <contour>
      <point x="281" y="566"/>
      <point x="294" y="578"/>
      <point x="294" y="600" type="curve" smooth="yes"/>
      <point x="294" y="624"/>
      <point x="281" y="636"/>
      <point x="258" y="636" type="curve" smooth="yes"/>
      <point x="235" y="636"/>
      <point x="221" y="624"/>
      <point x="221" y="600" type="curve" smooth="yes"/>
      <point x="221" y="578"/>
      <point x="235" y="566"/>
      <point x="258" y="566" type="curve" smooth="yes"/>
    </contour>
  </outline>
</glyph>
<glyph name="Hcircumflex" format="1">
  <advance width="578"/>
  <unicode hex="0124"/>
  <note>
	Hcircumflex
  </note>
  <outline>
    <contour>
      <point x="122" y="0" type="line"/>
      <point x="122" y="280" type="line"/>
      <point x="456" y="280" type="line"/>
      <point x="456" y="0" type="line"/>
      <point x="488" y="0" type="line"/>
      <point x="488" y="610" type="line"/>
      <point x="456" y="610" type="line"/>
      <point x="456" y="311" type="line"/>
      <point x="122" y="311" type="line"/>
      <point x="122" y="610" type="line"/>
      <point x="90" y="610" type="line"/>
      <point x="90" y="0" type="line"/>
    </contour>
    <contour>
      <point x="286" y="823" type="line"/>
      <point x="292" y="823" type="line"/>
      <point x="389" y="716" type="line"/>
      <point x="411" y="721" type="line"/>
      <point x="308" y="852" type="line"/>
      <point x="270" y="852" type="line"/>
      <point x="167" y="721" type="line"/>
      <point x="189" y="716" type="line"/>
    </contour>
  </outline>
</glyph>
<glyph name="hcircumflex" format="1">
  <advance width="504"/>
  <unicode hex="0125"/>
  <note>
	hcircumflex
  </note>
  <outline>
    <contour>
      <point x="119" y="0" type="line"/>
      <point x="119" y="367" type="line"/>
      <point x="163" y="409"/>
      <point x="237" y="443"/>
      <point x="303" y="443" type="curve" smooth="yes"/>
      <point x="341" y="443"/>
      <point x="362" y="439"/>
      <point x="389" y="429" type="curve"/>
      <point x="389" y="0" type="line"/>
      <point x="419" y="0" type="line"/>
      <point x="419" y="398" type="line" smooth="yes"/>
      <point x="419" y="449"/>
      <point x="380" y="472"/>
      <point x="309" y="472" type="curve" smooth="yes"/>
      <point x="242" y="472"/>
      <point x="179" y="446"/>
      <point x="121" y="397" type="curve"/>
      <point x="115" y="397" type="line"/>
      <point x="119" y="492" type="line"/>
      <point x="119" y="665" type="line"/>
      <point x="89" y="665" type="line"/>
      <point x="89" y="0" type="line"/>
    </contour>
    <contour>
      <point x="264" y="823" type="line"/>
      <point x="270" y="823" type="line"/>
      <point x="367" y="716" type="line"/>
      <point x="389" y="721" type="line"/>
      <point x="286" y="852" type="line"/>
      <point x="248" y="852" type="line"/>
      <point x="145" y="721" type="line"/>
      <point x="167" y="716" type="line"/>
    </contour>
  </outline>
</glyph>
<glyph name="Hbar" format="1">
  <advance width="659"/>
  <unicode hex="0126"/>
  <note>
	Hbar
  </note>
  <outline>
    <contour>
      <point x="163" y="0" type="line"/>
      <point x="163" y="280" type="line"/>
      <point x="497" y="280" type="line"/>
      <point x="497" y="0" type="line"/>
      <point x="529" y="0" type="line"/>
      <point x="529" y="454" type="line"/>
      <point x="594" y="454" type="line"/>
      <point x="594" y="484" type="line"/>
      <point x="529" y="484" type="line"/>
      <point x="529" y="610" type="line"/>
      <point x="497" y="610" type="line"/>
      <point x="497" y="484" type="line"/>
      <point x="163" y="484" type="line"/>
      <point x="163" y="610" type="line"/>
      <point x="131" y="610" type="line"/>
      <point x="131" y="484" type="line"/>
      <point x="65" y="484" type="line"/>
      <point x="65" y="454" type="line"/>
      <point x="131" y="454" type="line"/>
      <point x="131" y="0" type="line"/>
    </contour>
    <contour>
      <point x="163" y="454" type="line"/>
      <point x="497" y="454" type="line"/>
      <point x="497" y="311" type="line"/>
      <point x="163" y="311" type="line"/>
    </contour>
  </outline>
</glyph>
<glyph name="Itilde" format="1">
  <advance width="218"/>
  <unicode hex="0128"/>
  <note>
	Itilde
  </note>
  <outline>
    <contour>
      <point x="209" y="717"/>
      <point x="234" y="750"/>
      <point x="237" y="797" type="curve"/>
      <point x="216" y="803" type="line"/>
      <point x="211" y="768"/>
      <point x="197" y="746"/>
      <point x="167" y="746" type="curve" smooth="yes"/>
      <point x="125" y="746"/>
      <point x="98" y="804"/>
      <point x="50" y="804" type="curve" smooth="yes"/>
      <point x="9" y="804"/>
      <point x="-16" y="771"/>
      <point x="-19" y="724" type="curve"/>
      <point x="2" y="718" type="line"/>
      <point x="7" y="753"/>
      <point x="21" y="775"/>
      <point x="51" y="775" type="curve" smooth="yes"/>
      <point x="88" y="775"/>
      <point x="118" y="717"/>
      <point x="168" y="717" type="curve" smooth="yes"/>
    </contour>
    <contour>
      <point x="125" y="0" type="line"/>
      <point x="125" y="610" type="line"/>
      <point x="93" y="610" type="line"/>
      <point x="93" y="0" type="line"/>
    </contour>
  </outline>
</glyph>
<glyph name="Imacron" format="1">
  <advance width="218"/>
  <unicode hex="012A"/>
  <note>
	Imacron
  </note>
  <outline>
    <contour>
      <point x="125" y="0" type="line"/>
      <point x="125" y="610" type="line"/>
      <point x="93" y="610" type="line"/>
      <point x="93" y="0" type="line"/>
    </contour>
    <contour>
      <point x="237" y="721" type="line"/>
      <point x="237" y="750" type="line"/>
      <point x="-19" y="750" type="line"/>
      <point x="-19" y="721" type="line"/>
    </contour>
  </outline>
</glyph>
<glyph name="Ibreve" format="1">
  <advance width="218"/>
  <unicode hex="012C"/>
  <note>
	Ibreve
  </note>
  <outline>
    <contour>
      <point x="183" y="716"/>
      <point x="214" y="760"/>
      <point x="226" y="812" type="curve"/>
      <point x="193" y="818" type="line"/>
      <point x="184" y="776"/>
      <point x="166" y="745"/>
      <point x="109" y="745" type="curve" smooth="yes"/>
      <point x="52" y="745"/>
      <point x="34" y="776"/>
      <point x="25" y="818" type="curve"/>
      <point x="-8" y="812" type="line"/>
      <point x="4" y="760"/>
      <point x="35" y="716"/>
      <point x="109" y="716" type="curve" smooth="yes"/>
    </contour>
    <contour>
      <point x="125" y="0" type="line"/>
      <point x="125" y="610" type="line"/>
      <point x="93" y="610" type="line"/>
      <point x="93" y="0" type="line"/>
    </contour>
  </outline>
</glyph>
<glyph name="ibreve" format="1">
  <advance width="212"/>
  <unicode hex="012D"/>
  <note>
	ibreve
  </note>
  <outline>
    <contour>
      <point x="180" y="566"/>
      <point x="211" y="610"/>
      <point x="223" y="662" type="curve"/>
      <point x="190" y="668" type="line"/>
      <point x="181" y="626"/>
      <point x="163" y="595"/>
      <point x="106" y="595" type="curve" smooth="yes"/>
      <point x="49" y="595"/>
      <point x="31" y="626"/>
      <point x="22" y="668" type="curve"/>
      <point x="-11" y="662" type="line"/>
      <point x="1" y="610"/>
      <point x="32" y="566"/>
      <point x="106" y="566" type="curve" smooth="yes"/>
    </contour>
    <contour>
      <point x="121" y="0" type="line"/>
      <point x="121" y="464" type="line"/>
      <point x="91" y="464" type="line"/>
      <point x="91" y="0" type="line"/>
    </contour>
  </outline>
</glyph>
<glyph name="IJ" format="1">
  <advance width="637"/>
  <unicode hex="0132"/>
  <note>
	IJ
  </note>
  <outline>
    <contour>
      <point x="497" y="-10"/>
      <point x="549" y="24"/>
      <point x="549" y="108" type="curve" smooth="yes"/>
      <point x="549" y="616" type="line"/>
      <point x="517" y="616" type="line"/>
      <point x="517" y="110" type="line" smooth="yes"/>
      <point x="517" y="81"/>
      <point x="514" y="64"/>
      <point x="507" y="45" type="curve"/>
      <point x="482" y="31"/>
      <point x="445" y="21"/>
      <point x="396" y="21" type="curve" smooth="yes"/>
      <point x="352" y="21"/>
      <point x="309" y="29"/>
      <point x="273" y="42" type="curve"/>
      <point x="263" y="12" type="line"/>
      <point x="301" y="-1"/>
      <point x="348" y="-10"/>
      <point x="391" y="-10" type="curve" smooth="yes"/>
    </contour>
    <contour>
      <point x="125" y="0" type="line"/>
      <point x="125" y="610" type="line"/>
      <point x="93" y="610" type="line"/>
      <point x="93" y="0" type="line"/>
    </contour>
  </outline>
</glyph>
<glyph name="Jcircumflex" format="1">
  <advance width="406"/>
  <unicode hex="0134"/>
  <note>
	Jcircumflex
  </note>
  <outline>
    <contour>
      <point x="266" y="-10"/>
      <point x="318" y="24"/>
      <point x="318" y="108" type="curve" smooth="yes"/>
      <point x="318" y="616" type="line"/>
      <point x="286" y="616" type="line"/>
      <point x="286" y="110" type="line" smooth="yes"/>
      <point x="286" y="81"/>
      <point x="283" y="64"/>
      <point x="276" y="45" type="curve"/>
      <point x="251" y="31"/>
      <point x="214" y="21"/>
      <point x="165" y="21" type="curve" smooth="yes"/>
      <point x="121" y="21"/>
      <point x="78" y="29"/>
      <point x="42" y="42" type="curve"/>
      <point x="32" y="12" type="line"/>
      <point x="70" y="-1"/>
      <point x="117" y="-10"/>
      <point x="160" y="-10" type="curve" smooth="yes"/>
    </contour>
    <contour>
      <point x="299" y="823" type="line"/>
      <point x="305" y="823" type="line"/>
      <point x="402" y="716" type="line"/>
      <point x="424" y="721" type="line"/>
      <point x="321" y="852" type="line"/>
      <point x="283" y="852" type="line"/>
      <point x="180" y="721" type="line"/>
      <point x="202" y="716" type="line"/>
    </contour>
  </outline>
</glyph>
<glyph name="kcommaaccent" format="1">
  <advance width="470"/>
  <unicode hex="0137"/>
  <note>
	kcommaaccent
  </note>
  <outline>
    <contour>
      <point x="433" y="-5"/>
      <point x="437" y="-4"/>
      <point x="448" y="-2" type="curve"/>
      <point x="448" y="17" type="line"/>
      <point x="409" y="22" type="line"/>
      <point x="350" y="151" type="line" smooth="yes"/>
      <point x="327" y="201"/>
      <point x="304" y="228"/>
      <point x="250" y="245" type="curve"/>
      <point x="250" y="251" type="line"/>
      <point x="301" y="265"/>
      <point x="322" y="291"/>
      <point x="344" y="337" type="curve" smooth="yes"/>
      <point x="401" y="457" type="line"/>
      <point x="372" y="468" type="line"/>
      <point x="318" y="352" type="line" smooth="yes"/>
      <point x="294" y="301"/>
      <point x="266" y="261"/>
      <point x="185" y="261" type="curve" smooth="yes"/>
      <point x="115" y="261" type="line"/>
      <point x="115" y="666" type="line"/>
      <point x="85" y="666" type="line"/>
      <point x="85" y="0" type="line"/>
      <point x="115" y="0" type="line"/>
      <point x="115" y="232" type="line"/>
      <point x="190" y="232" type="line" smooth="yes"/>
      <point x="263" y="232"/>
      <point x="295" y="201"/>
      <point x="325" y="135" type="curve" smooth="yes"/>
      <point x="376" y="23" type="line" smooth="yes"/>
      <point x="384" y="6"/>
      <point x="398" y="-5"/>
      <point x="419" y="-5" type="curve" smooth="yes"/>
    </contour>
    <contour>
      <point x="268" y="-186"/>
      <point x="283" y="-145"/>
      <point x="283" y="-98" type="curve" smooth="yes"/>
      <point x="283" y="-60"/>
      <point x="265" y="-40"/>
      <point x="230" y="-40" type="curve" smooth="yes"/>
      <point x="217" y="-40"/>
      <point x="206" y="-42"/>
      <point x="197" y="-45" type="curve"/>
      <point x="197" y="-69" type="line"/>
      <point x="253" y="-69" type="line"/>
      <point x="253" y="-137"/>
      <point x="240" y="-177"/>
      <point x="216" y="-219" type="curve"/>
      <point x="238" y="-224" type="line"/>
    </contour>
  </outline>
</glyph>
<glyph name="kgreenlandic" format="1">
  <advance width="494"/>
  <unicode hex="0138"/>
  <note>
	kgreenlandic
  </note>
  <outline>
    <contour>
      <point x="429" y="-4"/>
      <point x="435" y="-3"/>
      <point x="444" y="0" type="curve"/>
      <point x="444" y="16" type="line"/>
      <point x="408" y="24" type="line"/>
      <point x="353" y="151" type="line" smooth="yes"/>
      <point x="330" y="204"/>
      <point x="311" y="225"/>
      <point x="259" y="244" type="curve"/>
      <point x="259" y="250" type="line"/>
      <point x="311" y="269"/>
      <point x="331" y="294"/>
      <point x="349" y="335" type="curve" smooth="yes"/>
      <point x="404" y="461" type="line"/>
      <point x="375" y="472" type="line"/>
      <point x="321" y="345" type="line" smooth="yes"/>
      <point x="301" y="297"/>
      <point x="274" y="261"/>
      <point x="185" y="261" type="curve" smooth="yes"/>
      <point x="115" y="261" type="line"/>
      <point x="115" y="477" type="line"/>
      <point x="85" y="477" type="line"/>
      <point x="85" y="0" type="line"/>
      <point x="115" y="0" type="line"/>
      <point x="115" y="232" type="line"/>
      <point x="190" y="232" type="line" smooth="yes"/>
      <point x="279" y="232"/>
      <point x="302" y="190"/>
      <point x="330" y="128" type="curve" smooth="yes"/>
      <point x="376" y="25" type="line" smooth="yes"/>
      <point x="385" y="5"/>
      <point x="395" y="-4"/>
      <point x="416" y="-4" type="curve" smooth="yes"/>
    </contour>
  </outline>
</glyph>
<glyph name="lcommaaccent" format="1">
  <advance width="258"/>
  <unicode hex="013C"/>
  <note>
	lcommaaccent
  </note>
  <outline>
    <contour>
      <point x="172" y="1"/>
      <point x="199" y="14"/>
      <point x="225" y="35" type="curve"/>
      <point x="211" y="52" type="line"/>
      <point x="141" y="21" type="line"/>
      <point x="125" y="21" type="line"/>
      <point x="116" y="37"/>
      <point x="113" y="45"/>
      <point x="113" y="74" type="curve" smooth="yes"/>
      <point x="113" y="665" type="line"/>
      <point x="83" y="665" type="line"/>
      <point x="83" y="63" type="line" smooth="yes"/>
      <point x="83" y="36"/>
      <point x="108" y="10"/>
      <point x="136" y="-6" type="curve"/>
    </contour>
    <contour>
      <point x="168" y="-186"/>
      <point x="183" y="-145"/>
      <point x="183" y="-98" type="curve" smooth="yes"/>
      <point x="183" y="-60"/>
      <point x="165" y="-40"/>
      <point x="130" y="-40" type="curve" smooth="yes"/>
      <point x="117" y="-40"/>
      <point x="106" y="-42"/>
      <point x="97" y="-45" type="curve"/>
      <point x="97" y="-69" type="line"/>
      <point x="153" y="-69" type="line"/>
      <point x="153" y="-137"/>
      <point x="140" y="-177"/>
      <point x="116" y="-219" type="curve"/>
      <point x="138" y="-224" type="line"/>
    </contour>
  </outline>
</glyph>
<glyph name="ldot" format="1">
  <advance width="258"/>
  <unicode hex="0140"/>
  <note>
	ldot
  </note>
  <outline>
    <contour>
      <point x="172" y="1"/>
      <point x="199" y="14"/>
      <point x="225" y="35" type="curve"/>
      <point x="211" y="52" type="line"/>
      <point x="141" y="21" type="line"/>
      <point x="125" y="21" type="line"/>
      <point x="116" y="37"/>
      <point x="113" y="45"/>
      <point x="113" y="74" type="curve" smooth="yes"/>
      <point x="113" y="665" type="line"/>
      <point x="83" y="665" type="line"/>
      <point x="83" y="63" type="line" smooth="yes"/>
      <point x="83" y="36"/>
      <point x="108" y="10"/>
      <point x="136" y="-6" type="curve"/>
    </contour>
    <contour>
      <point x="256" y="265"/>
      <point x="269" y="277"/>
      <point x="269" y="299" type="curve" smooth="yes"/>
      <point x="269" y="323"/>
      <point x="256" y="335"/>
      <point x="233" y="335" type="curve" smooth="yes"/>
      <point x="210" y="335"/>
      <point x="196" y="323"/>
      <point x="196" y="299" type="curve" smooth="yes"/>
      <point x="196" y="277"/>
      <point x="210" y="265"/>
      <point x="233" y="265" type="curve" smooth="yes"/>
    </contour>
  </outline>
</glyph>
<glyph name="Lslash" format="1">
  <advance width="462"/>
  <unicode hex="0141"/>
  <note>
	Lslash
  </note>
  <outline>
    <contour>
      <point x="425" y="0" type="line"/>
      <point x="425" y="31" type="line"/>
      <point x="151" y="31" type="line"/>
      <point x="151" y="290" type="line"/>
      <point x="278" y="332" type="line"/>
      <point x="269" y="360" type="line"/>
      <point x="151" y="321" type="line"/>
      <point x="151" y="610" type="line"/>
      <point x="119" y="610" type="line"/>
      <point x="119" y="310" type="line"/>
      <point x="15" y="276" type="line"/>
      <point x="24" y="248" type="line"/>
      <point x="119" y="279" type="line"/>
      <point x="119" y="0" type="line"/>
    </contour>
  </outline>
</glyph>
<glyph name="Nacute" format="1">
  <advance width="603"/>
  <unicode hex="0143"/>
  <note>
	Nacute
  </note>
  <outline>
    <contour>
      <point x="121" y="0" type="line"/>
      <point x="121" y="322" type="line"/>
      <point x="115" y="559" type="line"/>
      <point x="121" y="561" type="line"/>
      <point x="477" y="0" type="line"/>
      <point x="513" y="0" type="line"/>
      <point x="513" y="610" type="line"/>
      <point x="482" y="610" type="line"/>
      <point x="482" y="288" type="line"/>
      <point x="488" y="51" type="line"/>
      <point x="482" y="49" type="line"/>
      <point x="126" y="610" type="line"/>
      <point x="90" y="610" type="line"/>
      <point x="90" y="0" type="line"/>
    </contour>
    <contour>
      <point x="418" y="855" type="line"/>
      <point x="373" y="860" type="line"/>
      <point x="289" y="721" type="line"/>
      <point x="308" y="717" type="line"/>
    </contour>
  </outline>
</glyph>
<glyph name="Ncommaaccent" format="1">
  <advance width="603"/>
  <unicode hex="0145"/>
  <note>
	Ncommaaccent
  </note>
  <outline>
    <contour>
      <point x="121" y="0" type="line"/>
      <point x="121" y="322" type="line"/>
      <point x="115" y="559" type="line"/>
      <point x="121" y="561" type="line"/>
      <point x="477" y="0" type="line"/>
      <point x="513" y="0" type="line"/>
      <point x="513" y="610" type="line"/>
      <point x="482" y="610" type="line"/>
      <point x="482" y="288" type="line"/>
      <point x="488" y="51" type="line"/>
      <point x="482" y="49" type="line"/>
      <point x="126" y="610" type="line"/>
      <point x="90" y="610" type="line"/>
      <point x="90" y="0" type="line"/>
    </contour>
    <contour>
      <point x="344" y="-186"/>
      <point x="359" y="-145"/>
      <point x="359" y="-98" type="curve" smooth="yes"/>
      <point x="359" y="-60"/>
      <point x="341" y="-40"/>
      <point x="306" y="-40" type="curve" smooth="yes"/>
      <point x="293" y="-40"/>
      <point x="282" y="-42"/>
      <point x="273" y="-45" type="curve"/>
      <point x="273" y="-69" type="line"/>
      <point x="329" y="-69" type="line"/>
      <point x="329" y="-137"/>
      <point x="316" y="-177"/>
      <point x="292" y="-219" type="curve"/>
      <point x="314" y="-224" type="line"/>
    </contour>
  </outline>
</glyph>
<glyph name="ncommaaccent" format="1">
  <advance width="503"/>
  <unicode hex="0146"/>
  <note>
	ncommaaccent
  </note>
  <outline>
    <contour>
      <point x="118" y="0" type="line"/>
      <point x="118" y="367" type="line"/>
      <point x="162" y="409"/>
      <point x="236" y="443"/>
      <point x="302" y="443" type="curve" smooth="yes"/>
      <point x="340" y="443"/>
      <point x="361" y="439"/>
      <point x="388" y="429" type="curve"/>
      <point x="388" y="0" type="line"/>
      <point x="418" y="0" type="line"/>
      <point x="418" y="398" type="line" smooth="yes"/>
      <point x="418" y="449"/>
      <point x="379" y="472"/>
      <point x="308" y="472" type="curve" smooth="yes"/>
      <point x="241" y="472"/>
      <point x="178" y="446"/>
      <point x="120" y="397" type="curve"/>
      <point x="114" y="397" type="line"/>
      <point x="111" y="464" type="line"/>
      <point x="88" y="464" type="line"/>
      <point x="88" y="0" type="line"/>
    </contour>
    <contour>
      <point x="299" y="-186"/>
      <point x="314" y="-145"/>
      <point x="314" y="-98" type="curve" smooth="yes"/>
      <point x="314" y="-60"/>
      <point x="296" y="-40"/>
      <point x="261" y="-40" type="curve" smooth="yes"/>
      <point x="248" y="-40"/>
      <point x="237" y="-42"/>
      <point x="228" y="-45" type="curve"/>
      <point x="228" y="-69" type="line"/>
      <point x="284" y="-69" type="line"/>
      <point x="284" y="-137"/>
      <point x="271" y="-177"/>
      <point x="247" y="-219" type="curve"/>
      <point x="269" y="-224" type="line"/>
    </contour>
  </outline>
</glyph>
<glyph name="Ncaron" format="1">
  <advance width="603"/>
  <unicode hex="0147"/>
  <note>
	Ncaron
  </note>
  <outline>
    <contour>
      <point x="121" y="0" type="line"/>
      <point x="121" y="322" type="line"/>
      <point x="115" y="559" type="line"/>
      <point x="121" y="561" type="line"/>
      <point x="477" y="0" type="line"/>
      <point x="513" y="0" type="line"/>
      <point x="513" y="610" type="line"/>
      <point x="482" y="610" type="line"/>
      <point x="482" y="288" type="line"/>
      <point x="488" y="51" type="line"/>
      <point x="482" y="49" type="line"/>
      <point x="126" y="610" type="line"/>
      <point x="90" y="610" type="line"/>
      <point x="90" y="0" type="line"/>
    </contour>
    <contour>
      <point x="336" y="721" type="line"/>
      <point x="439" y="852" type="line"/>
      <point x="417" y="857" type="line"/>
      <point x="320" y="750" type="line"/>
      <point x="314" y="750" type="line"/>
      <point x="217" y="857" type="line"/>
      <point x="195" y="852" type="line"/>
      <point x="298" y="721" type="line"/>
    </contour>
  </outline>
</glyph>
<glyph name="napostrophe" format="1">
  <advance width="583"/>
  <unicode hex="0149"/>
  <note>
	napostrophe
  </note>
  <outline>
    <contour>
      <point x="198" y="0" type="line"/>
      <point x="198" y="367" type="line"/>
      <point x="242" y="409"/>
      <point x="316" y="443"/>
      <point x="382" y="443" type="curve" smooth="yes"/>
      <point x="420" y="443"/>
      <point x="441" y="439"/>
      <point x="468" y="429" type="curve"/>
      <point x="468" y="0" type="line"/>
      <point x="498" y="0" type="line"/>
      <point x="498" y="398" type="line" smooth="yes"/>
      <point x="498" y="449"/>
      <point x="459" y="472"/>
      <point x="388" y="472" type="curve" smooth="yes"/>
      <point x="321" y="472"/>
      <point x="258" y="446"/>
      <point x="200" y="397" type="curve"/>
      <point x="194" y="397" type="line"/>
      <point x="191" y="464" type="line"/>
      <point x="168" y="464" type="line"/>
      <point x="168" y="0" type="line"/>
    </contour>
    <contour>
      <point x="87" y="323"/>
      <point x="102" y="364"/>
      <point x="102" y="411" type="curve" smooth="yes"/>
      <point x="102" y="449"/>
      <point x="84" y="469"/>
      <point x="49" y="469" type="curve" smooth="yes"/>
      <point x="36" y="469"/>
      <point x="25" y="467"/>
      <point x="16" y="464" type="curve"/>
      <point x="16" y="440" type="line"/>
      <point x="72" y="440" type="line"/>
      <point x="72" y="372"/>
      <point x="59" y="332"/>
      <point x="35" y="290" type="curve"/>
      <point x="57" y="285" type="line"/>
    </contour>
  </outline>
</glyph>
<glyph name="OE" format="1">
  <advance width="870"/>
  <unicode hex="0152"/>
  <note>
	OE
  </note>
  <outline>
    <contour>
      <point x="358" y="-10"/>
      <point x="414" y="2"/>
      <point x="452" y="26" type="curve"/>
      <point x="459" y="26" type="line"/>
      <point x="483" y="0"/>
      <point x="549" y="-10"/>
      <point x="637" y="-10" type="curve" smooth="yes"/>
      <point x="703" y="-10"/>
      <point x="747" y="-5"/>
      <point x="795" y="5" type="curve"/>
      <point x="787" y="35" type="line"/>
      <point x="741" y="26"/>
      <point x="697" y="21"/>
      <point x="640" y="21" type="curve" smooth="yes"/>
      <point x="574" y="21"/>
      <point x="531" y="25"/>
      <point x="475" y="37" type="curve"/>
      <point x="475" y="293" type="line"/>
      <point x="754" y="293" type="line"/>
      <point x="754" y="324" type="line"/>
      <point x="475" y="324" type="line"/>
      <point x="475" y="579" type="line"/>
      <point x="783" y="579" type="line"/>
      <point x="783" y="610" type="line"/>
      <point x="444" y="610" type="line"/>
      <point x="407" y="618"/>
      <point x="370" y="620"/>
      <point x="318" y="620" type="curve" smooth="yes"/>
      <point x="127" y="620"/>
      <point x="64" y="491"/>
      <point x="64" y="298" type="curve" smooth="yes"/>
      <point x="64" y="98"/>
      <point x="131" y="-10"/>
      <point x="289" y="-10" type="curve" smooth="yes"/>
    </contour>
    <contour>
      <point x="147" y="21"/>
      <point x="96" y="117"/>
      <point x="96" y="305" type="curve" smooth="yes"/>
      <point x="96" y="411"/>
      <point x="118" y="496"/>
      <point x="161" y="557" type="curve"/>
      <point x="196" y="578"/>
      <point x="257" y="589"/>
      <point x="309" y="589" type="curve" smooth="yes"/>
      <point x="373" y="589"/>
      <point x="406" y="586"/>
      <point x="443" y="578" type="curve"/>
      <point x="443" y="53" type="line"/>
      <point x="405" y="33"/>
      <point x="350" y="21"/>
      <point x="304" y="21" type="curve" smooth="yes"/>
    </contour>
  </outline>
</glyph>
<glyph name="oe" format="1">
  <advance width="795"/>
  <unicode hex="0153"/>
  <note>
	oe
  </note>
  <outline>
    <contour>
      <point x="338" y="-4"/>
      <point x="389" y="44"/>
      <point x="412" y="114" type="curve"/>
      <point x="416" y="114" type="line"/>
      <point x="442" y="37"/>
      <point x="498" y="-4"/>
      <point x="590" y="-4" type="curve" smooth="yes"/>
      <point x="659" y="-4"/>
      <point x="697" y="11"/>
      <point x="734" y="31" type="curve"/>
      <point x="723" y="56" type="line"/>
      <point x="684" y="35"/>
      <point x="649" y="25"/>
      <point x="590" y="25" type="curve" smooth="yes"/>
      <point x="479" y="25"/>
      <point x="434" y="92"/>
      <point x="430" y="219" type="curve"/>
      <point x="706" y="219" type="line"/>
      <point x="744" y="260" type="line"/>
      <point x="760" y="398"/>
      <point x="688" y="472"/>
      <point x="586" y="472" type="curve" smooth="yes"/>
      <point x="499" y="472"/>
      <point x="444" y="429"/>
      <point x="419" y="357" type="curve"/>
      <point x="416" y="357" type="line"/>
      <point x="392" y="436"/>
      <point x="338" y="481"/>
      <point x="257" y="481" type="curve" smooth="yes"/>
      <point x="95" y="481"/>
      <point x="62" y="363"/>
      <point x="62" y="228" type="curve" smooth="yes"/>
      <point x="62" y="84"/>
      <point x="121" y="-4"/>
      <point x="235" y="-4" type="curve" smooth="yes"/>
    </contour>
    <contour>
      <point x="143" y="25"/>
      <point x="92" y="92"/>
      <point x="92" y="236" type="curve" smooth="yes"/>
      <point x="92" y="311"/>
      <point x="110" y="385"/>
      <point x="135" y="425" type="curve"/>
      <point x="166" y="444"/>
      <point x="206" y="452"/>
      <point x="250" y="452" type="curve" smooth="yes"/>
      <point x="349" y="452"/>
      <point x="400" y="385"/>
      <point x="400" y="231" type="curve" smooth="yes"/>
      <point x="400" y="159"/>
      <point x="380" y="90"/>
      <point x="357" y="52" type="curve"/>
      <point x="326" y="33"/>
      <point x="286" y="25"/>
      <point x="242" y="25" type="curve" smooth="yes"/>
    </contour>
    <contour>
      <point x="438" y="365"/>
      <point x="471" y="443"/>
      <point x="583" y="443" type="curve" smooth="yes"/>
      <point x="673" y="443"/>
      <point x="719" y="383"/>
      <point x="719" y="295" type="curve" smooth="yes"/>
      <point x="719" y="277"/>
      <point x="718" y="262"/>
      <point x="714" y="249" type="curve"/>
      <point x="430" y="244" type="line"/>
    </contour>
  </outline>
</glyph>
<glyph name="Racute" format="1">
  <advance width="560"/>
  <unicode hex="0154"/>
  <note>
	Racute
  </note>
  <outline>
    <contour>
      <point x="509" y="-5"/>
      <point x="520" y="-3"/>
      <point x="531" y="1" type="curve"/>
      <point x="531" y="20" type="line"/>
      <point x="482" y="27" type="line"/>
      <point x="409" y="192" type="line" smooth="yes"/>
      <point x="389" y="234"/>
      <point x="377" y="254"/>
      <point x="340" y="271" type="curve"/>
      <point x="340" y="277" type="line"/>
      <point x="402" y="314"/>
      <point x="440" y="365"/>
      <point x="440" y="443" type="curve" smooth="yes"/>
      <point x="440" y="555"/>
      <point x="383" y="620"/>
      <point x="241" y="620" type="curve" smooth="yes"/>
      <point x="201" y="620"/>
      <point x="143" y="614"/>
      <point x="90" y="601" type="curve"/>
      <point x="90" y="0" type="line"/>
      <point x="121" y="0" type="line"/>
      <point x="121" y="264" type="line"/>
      <point x="251" y="264" type="line" smooth="yes"/>
      <point x="342" y="264"/>
      <point x="362" y="219"/>
      <point x="383" y="171" type="curve" smooth="yes"/>
      <point x="447" y="27" type="line" smooth="yes"/>
      <point x="457" y="6"/>
      <point x="470" y="-5"/>
      <point x="496" y="-5" type="curve" smooth="yes"/>
    </contour>
    <contour>
      <point x="121" y="577" type="line"/>
      <point x="157" y="584"/>
      <point x="199" y="589"/>
      <point x="235" y="589" type="curve" smooth="yes"/>
      <point x="355" y="589"/>
      <point x="408" y="544"/>
      <point x="408" y="442" type="curve" smooth="yes"/>
      <point x="408" y="369"/>
      <point x="378" y="332"/>
      <point x="325" y="295" type="curve"/>
      <point x="121" y="295" type="line"/>
    </contour>
    <contour>
      <point x="367" y="854" type="line"/>
      <point x="322" y="859" type="line"/>
      <point x="238" y="720" type="line"/>
      <point x="257" y="716" type="line"/>
    </contour>
  </outline>
</glyph>
<glyph name="Rcommaaccent" format="1">
  <advance width="560"/>
  <unicode hex="0156"/>
  <note>
	Rcommaaccent
  </note>
  <outline>
    <contour>
      <point x="509" y="-5"/>
      <point x="520" y="-3"/>
      <point x="531" y="1" type="curve"/>
      <point x="531" y="20" type="line"/>
      <point x="482" y="27" type="line"/>
      <point x="409" y="192" type="line" smooth="yes"/>
      <point x="389" y="234"/>
      <point x="377" y="254"/>
      <point x="340" y="271" type="curve"/>
      <point x="340" y="277" type="line"/>
      <point x="402" y="314"/>
      <point x="440" y="365"/>
      <point x="440" y="443" type="curve" smooth="yes"/>
      <point x="440" y="555"/>
      <point x="383" y="620"/>
      <point x="241" y="620" type="curve" smooth="yes"/>
      <point x="201" y="620"/>
      <point x="143" y="614"/>
      <point x="90" y="601" type="curve"/>
      <point x="90" y="0" type="line"/>
      <point x="121" y="0" type="line"/>
      <point x="121" y="264" type="line"/>
      <point x="251" y="264" type="line" smooth="yes"/>
      <point x="342" y="264"/>
      <point x="362" y="219"/>
      <point x="383" y="171" type="curve" smooth="yes"/>
      <point x="447" y="27" type="line" smooth="yes"/>
      <point x="457" y="6"/>
      <point x="470" y="-5"/>
      <point x="496" y="-5" type="curve" smooth="yes"/>
    </contour>
    <contour>
      <point x="322" y="-186"/>
      <point x="337" y="-145"/>
      <point x="337" y="-98" type="curve" smooth="yes"/>
      <point x="337" y="-60"/>
      <point x="319" y="-40"/>
      <point x="284" y="-40" type="curve" smooth="yes"/>
      <point x="271" y="-40"/>
      <point x="260" y="-42"/>
      <point x="251" y="-45" type="curve"/>
      <point x="251" y="-69" type="line"/>
      <point x="307" y="-69" type="line"/>
      <point x="307" y="-137"/>
      <point x="294" y="-177"/>
      <point x="270" y="-219" type="curve"/>
      <point x="292" y="-224" type="line"/>
    </contour>
    <contour>
      <point x="121" y="577" type="line"/>
      <point x="157" y="584"/>
      <point x="199" y="589"/>
      <point x="235" y="589" type="curve" smooth="yes"/>
      <point x="355" y="589"/>
      <point x="408" y="544"/>
      <point x="408" y="442" type="curve" smooth="yes"/>
      <point x="408" y="369"/>
      <point x="378" y="332"/>
      <point x="325" y="295" type="curve"/>
      <point x="121" y="295" type="line"/>
    </contour>
  </outline>
</glyph>
<glyph name="scedilla" format="1">
  <advance width="404"/>
  <unicode hex="015F"/>
  <note>
	scedilla
  </note>
  <outline>
    <contour>
      <point x="262" y="-216"/>
      <point x="298" y="-191"/>
      <point x="298" y="-133" type="curve" smooth="yes"/>
      <point x="298" y="-87"/>
      <point x="277" y="-62"/>
      <point x="228" y="-62" type="curve" smooth="yes"/>
      <point x="207" y="-62"/>
      <point x="189" y="-65"/>
      <point x="175" y="-71" type="curve"/>
      <point x="222" y="-9" type="line"/>
      <point x="323" y="0"/>
      <point x="347" y="65"/>
      <point x="347" y="123" type="curve" smooth="yes"/>
      <point x="347" y="193"/>
      <point x="311" y="223"/>
      <point x="223" y="247" type="curve" smooth="yes"/>
      <point x="124" y="274"/>
      <point x="93" y="291"/>
      <point x="93" y="354" type="curve" smooth="yes"/>
      <point x="93" y="413"/>
      <point x="127" y="444"/>
      <point x="215" y="444" type="curve" smooth="yes"/>
      <point x="249" y="444"/>
      <point x="271" y="442"/>
      <point x="297" y="438" type="curve"/>
      <point x="303" y="376" type="line"/>
      <point x="317" y="376" type="line"/>
      <point x="322" y="393"/>
      <point x="326" y="414"/>
      <point x="326" y="432" type="curve" smooth="yes"/>
      <point x="326" y="448" type="line"/>
      <point x="297" y="464"/>
      <point x="260" y="472"/>
      <point x="219" y="472" type="curve" smooth="yes"/>
      <point x="102" y="472"/>
      <point x="63" y="411"/>
      <point x="63" y="345" type="curve" smooth="yes"/>
      <point x="63" y="267"/>
      <point x="120" y="240"/>
      <point x="213" y="217" type="curve" smooth="yes"/>
      <point x="290" y="198"/>
      <point x="317" y="181"/>
      <point x="317" y="114" type="curve" smooth="yes"/>
      <point x="317" y="85"/>
      <point x="312" y="59"/>
      <point x="302" y="35" type="curve"/>
      <point x="273" y="24"/>
      <point x="246" y="19"/>
      <point x="204" y="19" type="curve" smooth="yes"/>
      <point x="150" y="19"/>
      <point x="113" y="26"/>
      <point x="67" y="44" type="curve"/>
      <point x="56" y="17" type="line"/>
      <point x="103" y="-4"/>
      <point x="149" y="-10"/>
      <point x="197" y="-10" type="curve"/>
      <point x="146" y="-70" type="line"/>
      <point x="173" y="-97" type="line"/>
      <point x="189" y="-92"/>
      <point x="202" y="-91"/>
      <point x="221" y="-91" type="curve" smooth="yes"/>
      <point x="257" y="-91"/>
      <point x="268" y="-107"/>
      <point x="268" y="-138" type="curve" smooth="yes"/>
      <point x="268" y="-153"/>
      <point x="265" y="-170"/>
      <point x="261" y="-180" type="curve"/>
      <point x="246" y="-185"/>
      <point x="232" y="-187"/>
      <point x="207" y="-187" type="curve" smooth="yes"/>
      <point x="180" y="-187"/>
      <point x="157" y="-183"/>
      <point x="134" y="-175" type="curve"/>
      <point x="124" y="-201" type="line"/>
      <point x="154" y="-213"/>
      <point x="176" y="-216"/>
      <point x="201" y="-216" type="curve" smooth="yes"/>
    </contour>
  </outline>
</glyph>
<glyph name="Tcedilla" format="1">
  <advance width="505"/>
  <unicode hex="0162"/>
  <note>
	Tcedilla
  </note>
  <outline>
    <contour>
      <point x="288" y="-217"/>
      <point x="324" y="-192"/>
      <point x="324" y="-134" type="curve" smooth="yes"/>
      <point x="324" y="-88"/>
      <point x="303" y="-63"/>
      <point x="254" y="-63" type="curve" smooth="yes"/>
      <point x="233" y="-63"/>
      <point x="215" y="-66"/>
      <point x="201" y="-72" type="curve"/>
      <point x="256" y="0" type="line"/>
      <point x="269" y="0" type="line"/>
      <point x="269" y="579" type="line"/>
      <point x="467" y="579" type="line"/>
      <point x="467" y="610" type="line"/>
      <point x="38" y="610" type="line"/>
      <point x="38" y="579" type="line"/>
      <point x="237" y="579" type="line"/>
      <point x="237" y="5" type="line"/>
      <point x="172" y="-71" type="line"/>
      <point x="199" y="-98" type="line"/>
      <point x="215" y="-93"/>
      <point x="228" y="-92"/>
      <point x="247" y="-92" type="curve" smooth="yes"/>
      <point x="283" y="-92"/>
      <point x="294" y="-108"/>
      <point x="294" y="-139" type="curve" smooth="yes"/>
      <point x="294" y="-154"/>
      <point x="291" y="-171"/>
      <point x="287" y="-181" type="curve"/>
      <point x="272" y="-186"/>
      <point x="258" y="-188"/>
      <point x="233" y="-188" type="curve" smooth="yes"/>
      <point x="206" y="-188"/>
      <point x="183" y="-184"/>
      <point x="160" y="-176" type="curve"/>
      <point x="150" y="-202" type="line"/>
      <point x="180" y="-214"/>
      <point x="202" y="-217"/>
      <point x="227" y="-217" type="curve" smooth="yes"/>
    </contour>
  </outline>
</glyph>
<glyph name="tcedilla" format="1">
  <advance width="346"/>
  <unicode hex="0163"/>
  <note>
	tcedilla
  </note>
  <outline>
    <contour>
      <point x="236" y="-216"/>
      <point x="272" y="-191"/>
      <point x="272" y="-133" type="curve" smooth="yes"/>
      <point x="272" y="-87"/>
      <point x="251" y="-62"/>
      <point x="202" y="-62" type="curve" smooth="yes"/>
      <point x="181" y="-62"/>
      <point x="163" y="-65"/>
      <point x="149" y="-71" type="curve"/>
      <point x="201" y="-3" type="line"/>
      <point x="209" y="-4"/>
      <point x="218" y="-4"/>
      <point x="227" y="-4" type="curve" smooth="yes"/>
      <point x="257" y="-4"/>
      <point x="290" y="4"/>
      <point x="308" y="14" type="curve"/>
      <point x="298" y="40" type="line"/>
      <point x="280" y="31"/>
      <point x="251" y="25"/>
      <point x="222" y="25" type="curve" smooth="yes"/>
      <point x="200" y="25"/>
      <point x="179" y="27"/>
      <point x="156" y="33" type="curve"/>
      <point x="149" y="53"/>
      <point x="147" y="63"/>
      <point x="147" y="95" type="curve" smooth="yes"/>
      <point x="147" y="435" type="line"/>
      <point x="296" y="435" type="line"/>
      <point x="300" y="464" type="line"/>
      <point x="147" y="464" type="line"/>
      <point x="147" y="595" type="line"/>
      <point x="116" y="595" type="line"/>
      <point x="116" y="464" type="line"/>
      <point x="42" y="464" type="line"/>
      <point x="38" y="435" type="line"/>
      <point x="116" y="435" type="line"/>
      <point x="116" y="84" type="line" smooth="yes"/>
      <point x="116" y="23"/>
      <point x="155" y="10"/>
      <point x="180" y="0" type="curve"/>
      <point x="120" y="-70" type="line"/>
      <point x="147" y="-97" type="line"/>
      <point x="163" y="-92"/>
      <point x="176" y="-91"/>
      <point x="195" y="-91" type="curve" smooth="yes"/>
      <point x="231" y="-91"/>
      <point x="242" y="-107"/>
      <point x="242" y="-138" type="curve" smooth="yes"/>
      <point x="242" y="-153"/>
      <point x="239" y="-170"/>
      <point x="235" y="-180" type="curve"/>
      <point x="220" y="-185"/>
      <point x="206" y="-187"/>
      <point x="181" y="-187" type="curve" smooth="yes"/>
      <point x="154" y="-187"/>
      <point x="131" y="-183"/>
      <point x="108" y="-175" type="curve"/>
      <point x="98" y="-201" type="line"/>
      <point x="128" y="-213"/>
      <point x="150" y="-216"/>
      <point x="175" y="-216" type="curve" smooth="yes"/>
    </contour>
  </outline>
</glyph>
<glyph name="Tcaron" format="1">
  <advance width="505"/>
  <unicode hex="0164"/>
  <note>
	Tcaron
  </note>
  <outline>
    <contour>
      <point x="269" y="0" type="line"/>
      <point x="269" y="579" type="line"/>
      <point x="467" y="579" type="line"/>
      <point x="467" y="610" type="line"/>
      <point x="38" y="610" type="line"/>
      <point x="38" y="579" type="line"/>
      <point x="237" y="579" type="line"/>
      <point x="237" y="0" type="line"/>
    </contour>
    <contour>
      <point x="271" y="721" type="line"/>
      <point x="374" y="852" type="line"/>
      <point x="352" y="857" type="line"/>
      <point x="255" y="750" type="line"/>
      <point x="249" y="750" type="line"/>
      <point x="152" y="857" type="line"/>
      <point x="130" y="852" type="line"/>
      <point x="233" y="721" type="line"/>
    </contour>
  </outline>
</glyph>
<glyph name="Utilde" format="1">
  <advance width="585"/>
  <unicode hex="0168"/>
  <note>
	Utilde
  </note>
  <outline>
    <contour>
      <point x="415" y="-10"/>
      <point x="497" y="22"/>
      <point x="497" y="70" type="curve" smooth="yes"/>
      <point x="497" y="610" type="line"/>
      <point x="465" y="610" type="line"/>
      <point x="465" y="52" type="line"/>
      <point x="424" y="34"/>
      <point x="372" y="21"/>
      <point x="298" y="21" type="curve" smooth="yes"/>
      <point x="173" y="21"/>
      <point x="118" y="54"/>
      <point x="118" y="176" type="curve" smooth="yes"/>
      <point x="118" y="610" type="line"/>
      <point x="86" y="610" type="line"/>
      <point x="86" y="165" type="line" smooth="yes"/>
      <point x="86" y="45"/>
      <point x="153" y="-10"/>
      <point x="291" y="-10" type="curve" smooth="yes"/>
    </contour>
    <contour>
      <point x="391" y="716"/>
      <point x="416" y="749"/>
      <point x="419" y="796" type="curve"/>
      <point x="398" y="802" type="line"/>
      <point x="393" y="767"/>
      <point x="379" y="745"/>
      <point x="349" y="745" type="curve" smooth="yes"/>
      <point x="307" y="745"/>
      <point x="280" y="803"/>
      <point x="232" y="803" type="curve" smooth="yes"/>
      <point x="191" y="803"/>
      <point x="166" y="770"/>
      <point x="163" y="723" type="curve"/>
      <point x="184" y="717" type="line"/>
      <point x="189" y="752"/>
      <point x="203" y="774"/>
      <point x="233" y="774" type="curve" smooth="yes"/>
      <point x="270" y="774"/>
      <point x="300" y="716"/>
      <point x="350" y="716" type="curve" smooth="yes"/>
    </contour>
  </outline>
</glyph>
<glyph name="utilde" format="1">
  <advance width="498"/>
  <unicode hex="0169"/>
  <note>
	utilde
  </note>
  <outline>
    <contour>
      <point x="270" y="-10"/>
      <point x="322" y="21"/>
      <point x="377" y="71" type="curve"/>
      <point x="383" y="71" type="line"/>
      <point x="386" y="0" type="line"/>
      <point x="409" y="0" type="line"/>
      <point x="409" y="464" type="line"/>
      <point x="379" y="464" type="line"/>
      <point x="379" y="101" type="line"/>
      <point x="339" y="58"/>
      <point x="272" y="19"/>
      <point x="198" y="19" type="curve" smooth="yes"/>
      <point x="162" y="19"/>
      <point x="140" y="23"/>
      <point x="113" y="33" type="curve"/>
      <point x="113" y="464" type="line"/>
      <point x="83" y="464" type="line"/>
      <point x="83" y="64" type="line" smooth="yes"/>
      <point x="83" y="13"/>
      <point x="124" y="-10"/>
      <point x="193" y="-10" type="curve" smooth="yes"/>
    </contour>
    <contour>
      <point x="349" y="566"/>
      <point x="374" y="599"/>
      <point x="377" y="646" type="curve"/>
      <point x="356" y="652" type="line"/>
      <point x="351" y="617"/>
      <point x="337" y="595"/>
      <point x="307" y="595" type="curve" smooth="yes"/>
      <point x="265" y="595"/>
      <point x="238" y="653"/>
      <point x="190" y="653" type="curve" smooth="yes"/>
      <point x="149" y="653"/>
      <point x="124" y="620"/>
      <point x="121" y="573" type="curve"/>
      <point x="142" y="567" type="line"/>
      <point x="147" y="602"/>
      <point x="161" y="624"/>
      <point x="191" y="624" type="curve" smooth="yes"/>
      <point x="228" y="624"/>
      <point x="258" y="566"/>
      <point x="308" y="566" type="curve" smooth="yes"/>
    </contour>
  </outline>
</glyph>
<glyph name="Uring" format="1">
  <advance width="585"/>
  <unicode hex="016E"/>
  <note>
	Uring
  </note>
  <outline>
    <contour>
      <point x="415" y="-10"/>
      <point x="497" y="22"/>
      <point x="497" y="70" type="curve" smooth="yes"/>
      <point x="497" y="610" type="line"/>
      <point x="465" y="610" type="line"/>
      <point x="465" y="52" type="line"/>
      <point x="424" y="34"/>
      <point x="372" y="21"/>
      <point x="298" y="21" type="curve" smooth="yes"/>
      <point x="173" y="21"/>
      <point x="118" y="54"/>
      <point x="118" y="176" type="curve" smooth="yes"/>
      <point x="118" y="610" type="line"/>
      <point x="86" y="610" type="line"/>
      <point x="86" y="165" type="line" smooth="yes"/>
      <point x="86" y="45"/>
      <point x="153" y="-10"/>
      <point x="291" y="-10" type="curve" smooth="yes"/>
    </contour>
    <contour>
      <point x="357" y="598"/>
      <point x="394" y="642"/>
      <point x="394" y="690" type="curve" smooth="yes"/>
      <point x="394" y="742"/>
      <point x="366" y="767"/>
      <point x="301" y="767" type="curve" smooth="yes"/>
      <point x="233" y="767"/>
      <point x="189" y="723"/>
      <point x="189" y="675" type="curve" smooth="yes"/>
      <point x="189" y="625"/>
      <point x="221" y="598"/>
      <point x="282" y="598" type="curve" smooth="yes"/>
    </contour>
    <contour>
      <point x="239" y="623"/>
      <point x="217" y="642"/>
      <point x="217" y="678" type="curve" smooth="yes"/>
      <point x="217" y="696"/>
      <point x="219" y="709"/>
      <point x="227" y="732" type="curve"/>
      <point x="252" y="740"/>
      <point x="271" y="742"/>
      <point x="297" y="742" type="curve" smooth="yes"/>
      <point x="344" y="742"/>
      <point x="366" y="727"/>
      <point x="366" y="687" type="curve" smooth="yes"/>
      <point x="366" y="669"/>
      <point x="363" y="653"/>
      <point x="356" y="633" type="curve"/>
      <point x="331" y="625"/>
      <point x="312" y="623"/>
      <point x="286" y="623" type="curve" smooth="yes"/>
    </contour>
  </outline>
</glyph>
<glyph name="Uhungarumlaut" format="1">
  <advance width="585"/>
  <unicode hex="0170"/>
  <note>
	Uhungarumlaut
  </note>
  <outline>
    <contour>
      <point x="415" y="-10"/>
      <point x="497" y="22"/>
      <point x="497" y="70" type="curve" smooth="yes"/>
      <point x="497" y="610" type="line"/>
      <point x="465" y="610" type="line"/>
      <point x="465" y="52" type="line"/>
      <point x="424" y="34"/>
      <point x="372" y="21"/>
      <point x="298" y="21" type="curve" smooth="yes"/>
      <point x="173" y="21"/>
      <point x="118" y="54"/>
      <point x="118" y="176" type="curve" smooth="yes"/>
      <point x="118" y="610" type="line"/>
      <point x="86" y="610" type="line"/>
      <point x="86" y="165" type="line" smooth="yes"/>
      <point x="86" y="45"/>
      <point x="153" y="-10"/>
      <point x="291" y="-10" type="curve" smooth="yes"/>
    </contour>
    <contour>
      <point x="237" y="754"/>
      <point x="252" y="795"/>
      <point x="252" y="842" type="curve" smooth="yes"/>
      <point x="252" y="880"/>
      <point x="234" y="900"/>
      <point x="199" y="900" type="curve" smooth="yes"/>
      <point x="186" y="900"/>
      <point x="175" y="898"/>
      <point x="166" y="895" type="curve"/>
      <point x="166" y="871" type="line"/>
      <point x="222" y="871" type="line"/>
      <point x="222" y="803"/>
      <point x="209" y="763"/>
      <point x="185" y="721" type="curve"/>
      <point x="207" y="716" type="line"/>
    </contour>
    <contour>
      <point x="402" y="754"/>
      <point x="417" y="795"/>
      <point x="417" y="842" type="curve" smooth="yes"/>
      <point x="417" y="880"/>
      <point x="399" y="900"/>
      <point x="364" y="900" type="curve" smooth="yes"/>
      <point x="351" y="900"/>
      <point x="340" y="898"/>
      <point x="331" y="895" type="curve"/>
      <point x="331" y="871" type="line"/>
      <point x="387" y="871" type="line"/>
      <point x="387" y="803"/>
      <point x="374" y="763"/>
      <point x="350" y="721" type="curve"/>
      <point x="372" y="716" type="line"/>
    </contour>
  </outline>
</glyph>
<glyph name="uhungarumlaut" format="1">
  <advance width="498"/>
  <unicode hex="0171"/>
  <note>
	uhungarumlaut
  </note>
  <outline>
    <contour>
      <point x="270" y="-10"/>
      <point x="322" y="21"/>
      <point x="377" y="71" type="curve"/>
      <point x="383" y="71" type="line"/>
      <point x="386" y="0" type="line"/>
      <point x="409" y="0" type="line"/>
      <point x="409" y="464" type="line"/>
      <point x="379" y="464" type="line"/>
      <point x="379" y="101" type="line"/>
      <point x="339" y="58"/>
      <point x="272" y="19"/>
      <point x="198" y="19" type="curve" smooth="yes"/>
      <point x="162" y="19"/>
      <point x="140" y="23"/>
      <point x="113" y="33" type="curve"/>
      <point x="113" y="464" type="line"/>
      <point x="83" y="464" type="line"/>
      <point x="83" y="64" type="line" smooth="yes"/>
      <point x="83" y="13"/>
      <point x="124" y="-10"/>
      <point x="193" y="-10" type="curve" smooth="yes"/>
    </contour>
    <contour>
      <point x="194" y="603"/>
      <point x="209" y="644"/>
      <point x="209" y="691" type="curve" smooth="yes"/>
      <point x="209" y="729"/>
      <point x="191" y="749"/>
      <point x="156" y="749" type="curve" smooth="yes"/>
      <point x="143" y="749"/>
      <point x="132" y="747"/>
      <point x="123" y="744" type="curve"/>
      <point x="123" y="720" type="line"/>
      <point x="179" y="720" type="line"/>
      <point x="179" y="652"/>
      <point x="166" y="612"/>
      <point x="142" y="570" type="curve"/>
      <point x="164" y="565" type="line"/>
    </contour>
    <contour>
      <point x="359" y="603"/>
      <point x="374" y="644"/>
      <point x="374" y="691" type="curve" smooth="yes"/>
      <point x="374" y="729"/>
      <point x="356" y="749"/>
      <point x="321" y="749" type="curve" smooth="yes"/>
      <point x="308" y="749"/>
      <point x="297" y="747"/>
      <point x="288" y="744" type="curve"/>
      <point x="288" y="720" type="line"/>
      <point x="344" y="720" type="line"/>
      <point x="344" y="652"/>
      <point x="331" y="612"/>
      <point x="307" y="570" type="curve"/>
      <point x="329" y="565" type="line"/>
    </contour>
  </outline>
</glyph>
<glyph name="Uogonek" format="1">
  <advance width="585"/>
  <unicode hex="0172"/>
  <note>
	Uogonek
  </note>
  <outline>
    <contour>
      <point x="350" y="-161"/>
      <point x="365" y="-157"/>
      <point x="380" y="-150" type="curve"/>
      <point x="375" y="-127" type="line"/>
      <point x="360" y="-130"/>
      <point x="347" y="-132"/>
      <point x="334" y="-132" type="curve" smooth="yes"/>
      <point x="319" y="-132"/>
      <point x="309" y="-131"/>
      <point x="294" y="-128" type="curve"/>
      <point x="287" y="-116"/>
      <point x="284" y="-101"/>
      <point x="284" y="-87" type="curve" smooth="yes"/>
      <point x="284" y="-54"/>
      <point x="294" y="-31"/>
      <point x="323" y="-9" type="curve"/>
      <point x="429" y="-4"/>
      <point x="497" y="26"/>
      <point x="497" y="70" type="curve" smooth="yes"/>
      <point x="497" y="610" type="line"/>
      <point x="465" y="610" type="line"/>
      <point x="465" y="52" type="line"/>
      <point x="424" y="34"/>
      <point x="372" y="21"/>
      <point x="298" y="21" type="curve" smooth="yes"/>
      <point x="173" y="21"/>
      <point x="118" y="54"/>
      <point x="118" y="176" type="curve" smooth="yes"/>
      <point x="118" y="610" type="line"/>
      <point x="86" y="610" type="line"/>
      <point x="86" y="165" type="line" smooth="yes"/>
      <point x="86" y="46"/>
      <point x="152" y="-9"/>
      <point x="288" y="-10" type="curve"/>
      <point x="264" y="-30"/>
      <point x="254" y="-55"/>
      <point x="254" y="-86" type="curve" smooth="yes"/>
      <point x="254" y="-129"/>
      <point x="278" y="-161"/>
      <point x="327" y="-161" type="curve" smooth="yes"/>
    </contour>
  </outline>
</glyph>
<glyph name="Wcircumflex" format="1">
  <advance width="816"/>
  <unicode hex="0174"/>
  <note>
	Wcircumflex
  </note>
  <outline>
    <contour>
      <point x="252" y="0" type="line"/>
      <point x="323" y="154"/>
      <point x="380" y="303"/>
      <point x="417" y="423" type="curve"/>
      <point x="424" y="423" type="line"/>
      <point x="461" y="285"/>
      <point x="497" y="172"/>
      <point x="562" y="0" type="curve"/>
      <point x="606" y="0" type="line"/>
      <point x="658" y="168"/>
      <point x="713" y="381"/>
      <point x="763" y="610" type="curve"/>
      <point x="729" y="616" type="line"/>
      <point x="685" y="391"/>
      <point x="625" y="166"/>
      <point x="585" y="31" type="curve"/>
      <point x="579" y="31" type="line"/>
      <point x="521" y="185"/>
      <point x="451" y="411"/>
      <point x="411" y="609" type="curve"/>
      <point x="379" y="604" type="line"/>
      <point x="384" y="577"/>
      <point x="398" y="511"/>
      <point x="404" y="484" type="curve"/>
      <point x="359" y="328"/>
      <point x="293" y="156"/>
      <point x="237" y="31" type="curve"/>
      <point x="231" y="31" type="line"/>
      <point x="191" y="166"/>
      <point x="131" y="391"/>
      <point x="87" y="616" type="curve"/>
      <point x="53" y="610" type="line"/>
      <point x="103" y="381"/>
      <point x="158" y="168"/>
      <point x="210" y="0" type="curve"/>
    </contour>
    <contour>
      <point x="405" y="822" type="line"/>
      <point x="411" y="822" type="line"/>
      <point x="508" y="715" type="line"/>
      <point x="530" y="720" type="line"/>
      <point x="427" y="851" type="line"/>
      <point x="389" y="851" type="line"/>
      <point x="286" y="720" type="line"/>
      <point x="308" y="715" type="line"/>
    </contour>
  </outline>
</glyph>
<glyph name="Zdotaccent" format="1">
  <advance width="538"/>
  <unicode hex="017B"/>
  <note>
	Zdotaccent
  </note>
  <outline>
    <contour>
      <point x="475" y="0" type="line"/>
      <point x="475" y="23" type="line" smooth="yes"/>
      <point x="475" y="57"/>
      <point x="470" y="87"/>
      <point x="462" y="110" type="curve"/>
      <point x="444" y="110" type="line"/>
      <point x="444" y="31" type="line"/>
      <point x="97" y="31" type="line"/>
      <point x="97" y="37" type="line"/>
      <point x="468" y="565" type="line"/>
      <point x="468" y="610" type="line"/>
      <point x="83" y="610" type="line"/>
      <point x="83" y="587" type="line" smooth="yes"/>
      <point x="83" y="552"/>
      <point x="89" y="529"/>
      <point x="96" y="506" type="curve"/>
      <point x="114" y="506" type="line"/>
      <point x="114" y="579" type="line"/>
      <point x="436" y="579" type="line"/>
      <point x="436" y="573" type="line"/>
      <point x="65" y="49" type="line"/>
      <point x="65" y="0" type="line"/>
    </contour>
    <contour>
      <point x="300" y="716"/>
      <point x="313" y="728"/>
      <point x="313" y="750" type="curve" smooth="yes"/>
      <point x="313" y="774"/>
      <point x="300" y="786"/>
      <point x="277" y="786" type="curve" smooth="yes"/>
      <point x="254" y="786"/>
      <point x="240" y="774"/>
      <point x="240" y="750" type="curve" smooth="yes"/>
      <point x="240" y="728"/>
      <point x="254" y="716"/>
      <point x="277" y="716" type="curve" smooth="yes"/>
    </contour>
  </outline>
</glyph>
<glyph name="zdotaccent" format="1">
  <advance width="431"/>
  <unicode hex="017C"/>
  <note>
	zdotaccent
  </note>
  <outline>
    <contour>
      <point x="371" y="0" type="line"/>
      <point x="371" y="31" type="line" smooth="yes"/>
      <point x="371" y="48"/>
      <point x="368" y="74"/>
      <point x="363" y="95" type="curve"/>
      <point x="344" y="95" type="line"/>
      <point x="340" y="29" type="line"/>
      <point x="92" y="29" type="line"/>
      <point x="92" y="35" type="line"/>
      <point x="359" y="418" type="line"/>
      <point x="359" y="464" type="line"/>
      <point x="71" y="464" type="line"/>
      <point x="71" y="438" type="line" smooth="yes"/>
      <point x="71" y="416"/>
      <point x="74" y="394"/>
      <point x="78" y="375" type="curve"/>
      <point x="98" y="375" type="line"/>
      <point x="102" y="435" type="line"/>
      <point x="329" y="435" type="line"/>
      <point x="329" y="429" type="line"/>
      <point x="62" y="44" type="line"/>
      <point x="62" y="0" type="line"/>
    </contour>
    <contour>
      <point x="244" y="566"/>
      <point x="257" y="578"/>
      <point x="257" y="600" type="curve" smooth="yes"/>
      <point x="257" y="624"/>
      <point x="244" y="636"/>
      <point x="221" y="636" type="curve" smooth="yes"/>
      <point x="198" y="636"/>
      <point x="184" y="624"/>
      <point x="184" y="600" type="curve" smooth="yes"/>
      <point x="184" y="578"/>
      <point x="198" y="566"/>
      <point x="221" y="566" type="curve" smooth="yes"/>
    </contour>
  </outline>
</glyph>
<glyph name="zcaron" format="1">
  <advance width="431"/>
  <unicode hex="017E"/>
  <note>
	zcaron
  </note>
  <outline>
    <contour>
      <point x="371" y="0" type="line"/>
      <point x="371" y="31" type="line" smooth="yes"/>
      <point x="371" y="48"/>
      <point x="368" y="74"/>
      <point x="363" y="95" type="curve"/>
      <point x="344" y="95" type="line"/>
      <point x="340" y="29" type="line"/>
      <point x="92" y="29" type="line"/>
      <point x="92" y="35" type="line"/>
      <point x="359" y="418" type="line"/>
      <point x="359" y="464" type="line"/>
      <point x="71" y="464" type="line"/>
      <point x="71" y="438" type="line" smooth="yes"/>
      <point x="71" y="416"/>
      <point x="74" y="394"/>
      <point x="78" y="375" type="curve"/>
      <point x="98" y="375" type="line"/>
      <point x="102" y="435" type="line"/>
      <point x="329" y="435" type="line"/>
      <point x="329" y="429" type="line"/>
      <point x="62" y="44" type="line"/>
      <point x="62" y="0" type="line"/>
    </contour>
    <contour>
      <point x="239" y="571" type="line"/>
      <point x="342" y="702" type="line"/>
      <point x="320" y="707" type="line"/>
      <point x="223" y="600" type="line"/>
      <point x="217" y="600" type="line"/>
      <point x="120" y="707" type="line"/>
      <point x="98" y="702" type="line"/>
      <point x="201" y="571" type="line"/>
    </contour>
  </outline>
</glyph>
<glyph name="uni018F" format="1">
  <advance width="606"/>
  <unicode hex="018F"/>
  <note>
	uni018F
  </note>
  <outline>
    <contour>
      <point x="466" y="-4"/>
      <point x="526" y="107"/>
      <point x="526" y="314" type="curve" smooth="yes"/>
      <point x="526" y="529"/>
      <point x="429" y="620"/>
      <point x="283" y="620" type="curve" smooth="yes"/>
      <point x="182" y="620"/>
      <point x="122" y="591"/>
      <point x="68" y="559" type="curve"/>
      <point x="83" y="535" type="line"/>
      <point x="134" y="565"/>
      <point x="196" y="589"/>
      <point x="276" y="589" type="curve" smooth="yes"/>
      <point x="412" y="589"/>
      <point x="494" y="507"/>
      <point x="494" y="324" type="curve"/>
      <point x="132" y="327" type="line"/>
      <point x="68" y="278" type="line"/>
      <point x="66" y="266"/>
      <point x="65" y="245"/>
      <point x="65" y="235" type="curve" smooth="yes"/>
      <point x="65" y="88"/>
      <point x="136" y="-4"/>
      <point x="286" y="-4" type="curve" smooth="yes"/>
    </contour>
    <contour>
      <point x="166" y="27"/>
      <point x="97" y="100"/>
      <point x="97" y="225" type="curve" smooth="yes"/>
      <point x="97" y="246"/>
      <point x="98" y="265"/>
      <point x="102" y="291" type="curve"/>
      <point x="495" y="297" type="line"/>
      <point x="495" y="131"/>
      <point x="445" y="27"/>
      <point x="288" y="27" type="curve" smooth="yes"/>
    </contour>
  </outline>
</glyph>
<glyph name="icaron" format="1">
  <advance width="212"/>
  <unicode hex="01D0"/>
  <note>
	icaron
  </note>
  <outline>
    <contour>
      <point x="125" y="571" type="line"/>
      <point x="228" y="702" type="line"/>
      <point x="206" y="707" type="line"/>
      <point x="109" y="600" type="line"/>
      <point x="103" y="600" type="line"/>
      <point x="6" y="707" type="line"/>
      <point x="-16" y="702" type="line"/>
      <point x="87" y="571" type="line"/>
    </contour>
    <contour>
      <point x="121" y="0" type="line"/>
      <point x="121" y="469" type="line"/>
      <point x="91" y="469" type="line"/>
      <point x="91" y="0" type="line"/>
    </contour>
  </outline>
</glyph>
<glyph name="Udieresismacron" format="1">
  <advance width="585"/>
  <unicode hex="01D5"/>
  <note>
	Udieresismacron
  </note>
  <outline>
    <contour>
      <point x="415" y="-10"/>
      <point x="497" y="22"/>
      <point x="497" y="70" type="curve" smooth="yes"/>
      <point x="497" y="610" type="line"/>
      <point x="465" y="610" type="line"/>
      <point x="465" y="52" type="line"/>
      <point x="424" y="34"/>
      <point x="372" y="21"/>
      <point x="298" y="21" type="curve" smooth="yes"/>
      <point x="173" y="21"/>
      <point x="118" y="54"/>
      <point x="118" y="176" type="curve" smooth="yes"/>
      <point x="118" y="610" type="line"/>
      <point x="86" y="610" type="line"/>
      <point x="86" y="165" type="line" smooth="yes"/>
      <point x="86" y="45"/>
      <point x="153" y="-10"/>
      <point x="291" y="-10" type="curve" smooth="yes"/>
    </contour>
    <contour>
      <point x="232" y="721"/>
      <point x="242" y="731"/>
      <point x="242" y="748" type="curve" smooth="yes"/>
      <point x="242" y="766"/>
      <point x="232" y="775"/>
      <point x="215" y="775" type="curve" smooth="yes"/>
      <point x="198" y="775"/>
      <point x="187" y="766"/>
      <point x="187" y="748" type="curve" smooth="yes"/>
      <point x="187" y="731"/>
      <point x="198" y="721"/>
      <point x="215" y="721" type="curve" smooth="yes"/>
    </contour>
    <contour>
      <point x="390" y="721"/>
      <point x="400" y="731"/>
      <point x="400" y="748" type="curve" smooth="yes"/>
      <point x="400" y="766"/>
      <point x="390" y="775"/>
      <point x="373" y="775" type="curve" smooth="yes"/>
      <point x="355" y="775"/>
      <point x="344" y="766"/>
      <point x="344" y="748" type="curve" smooth="yes"/>
      <point x="344" y="731"/>
      <point x="355" y="721"/>
      <point x="373" y="721" type="curve" smooth="yes"/>
    </contour>
    <contour>
      <point x="424" y="844" type="line"/>
      <point x="424" y="873" type="line"/>
      <point x="168" y="873" type="line"/>
      <point x="168" y="844" type="line"/>
    </contour>
  </outline>
</glyph>
<glyph name="udieresismacron" format="1">
  <advance width="498"/>
  <unicode hex="01D6"/>
  <note>
	udieresismacron
  </note>
  <outline>
    <contour>
      <point x="270" y="-10"/>
      <point x="322" y="21"/>
      <point x="377" y="71" type="curve"/>
      <point x="383" y="71" type="line"/>
      <point x="386" y="0" type="line"/>
      <point x="409" y="0" type="line"/>
      <point x="409" y="464" type="line"/>
      <point x="379" y="464" type="line"/>
      <point x="379" y="101" type="line"/>
      <point x="339" y="58"/>
      <point x="272" y="19"/>
      <point x="198" y="19" type="curve" smooth="yes"/>
      <point x="162" y="19"/>
      <point x="140" y="23"/>
      <point x="113" y="33" type="curve"/>
      <point x="113" y="464" type="line"/>
      <point x="83" y="464" type="line"/>
      <point x="83" y="64" type="line" smooth="yes"/>
      <point x="83" y="13"/>
      <point x="124" y="-10"/>
      <point x="193" y="-10" type="curve" smooth="yes"/>
    </contour>
    <contour>
      <point x="184" y="566"/>
      <point x="194" y="576"/>
      <point x="194" y="593" type="curve" smooth="yes"/>
      <point x="194" y="611"/>
      <point x="184" y="620"/>
      <point x="167" y="620" type="curve" smooth="yes"/>
      <point x="150" y="620"/>
      <point x="139" y="611"/>
      <point x="139" y="593" type="curve" smooth="yes"/>
      <point x="139" y="576"/>
      <point x="150" y="566"/>
      <point x="167" y="566" type="curve" smooth="yes"/>
    </contour>
    <contour>
      <point x="342" y="566"/>
      <point x="352" y="576"/>
      <point x="352" y="593" type="curve" smooth="yes"/>
      <point x="352" y="611"/>
      <point x="342" y="620"/>
      <point x="325" y="620" type="curve" smooth="yes"/>
      <point x="307" y="620"/>
      <point x="296" y="611"/>
      <point x="296" y="593" type="curve" smooth="yes"/>
      <point x="296" y="576"/>
      <point x="307" y="566"/>
      <point x="325" y="566" type="curve" smooth="yes"/>
    </contour>
    <contour>
      <point x="376" y="689" type="line"/>
      <point x="376" y="718" type="line"/>
      <point x="120" y="718" type="line"/>
      <point x="120" y="689" type="line"/>
    </contour>
  </outline>
</glyph>
<glyph name="Udieresiscaron" format="1">
  <advance width="585"/>
  <unicode hex="01D9"/>
  <note>
	Udieresiscaron
  </note>
  <outline>
    <contour>
      <point x="415" y="-10"/>
      <point x="497" y="22"/>
      <point x="497" y="70" type="curve" smooth="yes"/>
      <point x="497" y="610" type="line"/>
      <point x="465" y="610" type="line"/>
      <point x="465" y="52" type="line"/>
      <point x="424" y="34"/>
      <point x="372" y="21"/>
      <point x="298" y="21" type="curve" smooth="yes"/>
      <point x="173" y="21"/>
      <point x="118" y="54"/>
      <point x="118" y="176" type="curve" smooth="yes"/>
      <point x="118" y="610" type="line"/>
      <point x="86" y="610" type="line"/>
      <point x="86" y="165" type="line" smooth="yes"/>
      <point x="86" y="45"/>
      <point x="153" y="-10"/>
      <point x="291" y="-10" type="curve" smooth="yes"/>
    </contour>
    <contour>
      <point x="227" y="716"/>
      <point x="237" y="726"/>
      <point x="237" y="743" type="curve" smooth="yes"/>
      <point x="237" y="761"/>
      <point x="227" y="770"/>
      <point x="210" y="770" type="curve" smooth="yes"/>
      <point x="193" y="770"/>
      <point x="182" y="761"/>
      <point x="182" y="743" type="curve" smooth="yes"/>
      <point x="182" y="726"/>
      <point x="193" y="716"/>
      <point x="210" y="716" type="curve" smooth="yes"/>
    </contour>
    <contour>
      <point x="385" y="716"/>
      <point x="395" y="726"/>
      <point x="395" y="743" type="curve" smooth="yes"/>
      <point x="395" y="761"/>
      <point x="385" y="770"/>
      <point x="368" y="770" type="curve" smooth="yes"/>
      <point x="350" y="770"/>
      <point x="339" y="761"/>
      <point x="339" y="743" type="curve" smooth="yes"/>
      <point x="339" y="726"/>
      <point x="350" y="716"/>
      <point x="368" y="716" type="curve" smooth="yes"/>
    </contour>
    <contour>
      <point x="310" y="834" type="line"/>
      <point x="401" y="951" type="line"/>
      <point x="381" y="956" type="line"/>
      <point x="294" y="860" type="line"/>
      <point x="288" y="860" type="line"/>
      <point x="202" y="956" type="line"/>
      <point x="181" y="951" type="line"/>
      <point x="272" y="834" type="line"/>
    </contour>
  </outline>
</glyph>
<glyph name="aringacute" format="1">
  <advance width="453"/>
  <unicode hex="01FB"/>
  <note>
	aringacute
  </note>
  <outline>
    <contour>
      <point x="251" y="-10"/>
      <point x="302" y="20"/>
      <point x="339" y="67" type="curve"/>
      <point x="345" y="67" type="line"/>
      <point x="349" y="0" type="line"/>
      <point x="372" y="0" type="line"/>
      <point x="372" y="332" type="line" smooth="yes"/>
      <point x="372" y="425"/>
      <point x="324" y="472"/>
      <point x="243" y="472" type="curve" smooth="yes"/>
      <point x="185" y="472"/>
      <point x="129" y="454"/>
      <point x="89" y="432" type="curve"/>
      <point x="89" y="423" type="line" smooth="yes"/>
      <point x="89" y="407"/>
      <point x="91" y="385"/>
      <point x="96" y="369" type="curve"/>
      <point x="118" y="369" type="line"/>
      <point x="128" y="437" type="line"/>
      <point x="158" y="441"/>
      <point x="194" y="444"/>
      <point x="222" y="444" type="curve" smooth="yes"/>
      <point x="307" y="444"/>
      <point x="342" y="413"/>
      <point x="342" y="322" type="curve" smooth="yes"/>
      <point x="342" y="245" type="line"/>
      <point x="318" y="248"/>
      <point x="284" y="251"/>
      <point x="248" y="251" type="curve" smooth="yes"/>
      <point x="121" y="251"/>
      <point x="52" y="199"/>
      <point x="52" y="101" type="curve" smooth="yes"/>
      <point x="52" y="34"/>
      <point x="95" y="-10"/>
      <point x="179" y="-10" type="curve" smooth="yes"/>
    </contour>
    <contour>
      <point x="122" y="18"/>
      <point x="82" y="38"/>
      <point x="82" y="109" type="curve" smooth="yes"/>
      <point x="82" y="147"/>
      <point x="94" y="180"/>
      <point x="114" y="209" type="curve"/>
      <point x="150" y="218"/>
      <point x="195" y="222"/>
      <point x="233" y="222" type="curve" smooth="yes"/>
      <point x="272" y="222"/>
      <point x="307" y="220"/>
      <point x="344" y="216" type="curve"/>
      <point x="344" y="104" type="line"/>
      <point x="309" y="52"/>
      <point x="255" y="18"/>
      <point x="186" y="18" type="curve" smooth="yes"/>
    </contour>
    <contour>
      <point x="306" y="561"/>
      <point x="343" y="605"/>
      <point x="343" y="653" type="curve" smooth="yes"/>
      <point x="343" y="705"/>
      <point x="315" y="730"/>
      <point x="250" y="730" type="curve" smooth="yes"/>
      <point x="182" y="730"/>
      <point x="138" y="686"/>
      <point x="138" y="638" type="curve" smooth="yes"/>
      <point x="138" y="588"/>
      <point x="170" y="561"/>
      <point x="231" y="561" type="curve" smooth="yes"/>
    </contour>
    <contour>
      <point x="188" y="586"/>
      <point x="166" y="605"/>
      <point x="166" y="641" type="curve" smooth="yes"/>
      <point x="166" y="659"/>
      <point x="168" y="672"/>
      <point x="176" y="695" type="curve"/>
      <point x="201" y="703"/>
      <point x="220" y="705"/>
      <point x="246" y="705" type="curve" smooth="yes"/>
      <point x="293" y="705"/>
      <point x="315" y="690"/>
      <point x="315" y="650" type="curve" smooth="yes"/>
      <point x="315" y="632"/>
      <point x="312" y="616"/>
      <point x="305" y="596" type="curve"/>
      <point x="280" y="588"/>
      <point x="261" y="586"/>
      <point x="235" y="586" type="curve" smooth="yes"/>
    </contour>
    <contour>
      <point x="363" y="937" type="line"/>
      <point x="318" y="942" type="line"/>
      <point x="234" y="803" type="line"/>
      <point x="253" y="799" type="line"/>
    </contour>
  </outline>
</glyph>
<glyph name="aeacute" format="1">
  <advance width="743"/>
  <unicode hex="01FD"/>
  <note>
	aeacute
  </note>
  <outline>
    <contour>
      <point x="275" y="-10"/>
      <point x="322" y="26"/>
      <point x="375" y="88" type="curve"/>
      <point x="404" y="28"/>
      <point x="458" y="-4"/>
      <point x="538" y="-4" type="curve" smooth="yes"/>
      <point x="607" y="-4"/>
      <point x="645" y="11"/>
      <point x="682" y="31" type="curve"/>
      <point x="671" y="56" type="line"/>
      <point x="632" y="35"/>
      <point x="597" y="25"/>
      <point x="538" y="25" type="curve" smooth="yes"/>
      <point x="427" y="25"/>
      <point x="382" y="92"/>
      <point x="378" y="219" type="curve"/>
      <point x="654" y="219" type="line"/>
      <point x="692" y="260" type="line"/>
      <point x="708" y="398"/>
      <point x="636" y="472"/>
      <point x="534" y="472" type="curve" smooth="yes"/>
      <point x="452" y="472"/>
      <point x="400" y="434"/>
      <point x="372" y="371" type="curve"/>
      <point x="359" y="438"/>
      <point x="308" y="472"/>
      <point x="240" y="472" type="curve" smooth="yes"/>
      <point x="182" y="472"/>
      <point x="129" y="454"/>
      <point x="89" y="432" type="curve"/>
      <point x="89" y="423" type="line" smooth="yes"/>
      <point x="89" y="407"/>
      <point x="91" y="385"/>
      <point x="96" y="369" type="curve"/>
      <point x="118" y="369" type="line"/>
      <point x="128" y="437" type="line"/>
      <point x="158" y="441"/>
      <point x="191" y="444"/>
      <point x="219" y="444" type="curve" smooth="yes"/>
      <point x="304" y="444"/>
      <point x="346" y="413"/>
      <point x="346" y="322" type="curve" smooth="yes"/>
      <point x="346" y="245" type="line"/>
      <point x="322" y="248"/>
      <point x="281" y="251"/>
      <point x="245" y="251" type="curve" smooth="yes"/>
      <point x="118" y="251"/>
      <point x="52" y="199"/>
      <point x="52" y="101" type="curve" smooth="yes"/>
      <point x="52" y="34"/>
      <point x="95" y="-10"/>
      <point x="176" y="-10" type="curve" smooth="yes"/>
    </contour>
    <contour>
      <point x="120" y="18"/>
      <point x="82" y="38"/>
      <point x="82" y="109" type="curve" smooth="yes"/>
      <point x="82" y="147"/>
      <point x="94" y="180"/>
      <point x="114" y="209" type="curve"/>
      <point x="150" y="218"/>
      <point x="192" y="222"/>
      <point x="230" y="222" type="curve" smooth="yes"/>
      <point x="269" y="222"/>
      <point x="311" y="220"/>
      <point x="348" y="216" type="curve"/>
      <point x="348" y="100" type="line"/>
      <point x="308" y="50"/>
      <point x="259" y="18"/>
      <point x="183" y="18" type="curve" smooth="yes"/>
    </contour>
    <contour>
      <point x="386" y="365"/>
      <point x="419" y="443"/>
      <point x="531" y="443" type="curve" smooth="yes"/>
      <point x="621" y="443"/>
      <point x="667" y="383"/>
      <point x="667" y="295" type="curve" smooth="yes"/>
      <point x="667" y="277"/>
      <point x="666" y="262"/>
      <point x="662" y="249" type="curve"/>
      <point x="378" y="244" type="line"/>
    </contour>
    <contour>
      <point x="495" y="705" type="line"/>
      <point x="450" y="710" type="line"/>
      <point x="366" y="571" type="line"/>
      <point x="385" y="567" type="line"/>
    </contour>
  </outline>
</glyph>
<glyph name="Scommaaccent" format="1">
  <advance width="508"/>
  <unicode hex="0218"/>
  <note>
	Scommaaccent
  </note>
  <outline>
    <contour>
      <point x="402" y="-10"/>
      <point x="434" y="78"/>
      <point x="434" y="169" type="curve" smooth="yes"/>
      <point x="434" y="251"/>
      <point x="389" y="290"/>
      <point x="267" y="321" type="curve" smooth="yes"/>
      <point x="160" y="348"/>
      <point x="104" y="375"/>
      <point x="104" y="460" type="curve" smooth="yes"/>
      <point x="104" y="546"/>
      <point x="147" y="590"/>
      <point x="256" y="590" type="curve" smooth="yes"/>
      <point x="296" y="590"/>
      <point x="340" y="586"/>
      <point x="378" y="581" type="curve"/>
      <point x="384" y="488" type="line"/>
      <point x="404" y="488" type="line"/>
      <point x="411" y="512"/>
      <point x="416" y="541"/>
      <point x="416" y="566" type="curve" smooth="yes"/>
      <point x="416" y="588" type="line"/>
      <point x="377" y="608"/>
      <point x="332" y="620"/>
      <point x="262" y="620" type="curve" smooth="yes"/>
      <point x="109" y="620"/>
      <point x="72" y="540"/>
      <point x="72" y="452" type="curve" smooth="yes"/>
      <point x="72" y="348"/>
      <point x="157" y="313"/>
      <point x="253" y="289" type="curve" smooth="yes"/>
      <point x="351" y="264"/>
      <point x="401" y="233"/>
      <point x="401" y="150" type="curve" smooth="yes"/>
      <point x="401" y="110"/>
      <point x="392" y="77"/>
      <point x="378" y="53" type="curve"/>
      <point x="351" y="35"/>
      <point x="310" y="20"/>
      <point x="247" y="20" type="curve" smooth="yes"/>
      <point x="182" y="20"/>
      <point x="129" y="31"/>
      <point x="72" y="56" type="curve"/>
      <point x="60" y="28" type="line"/>
      <point x="120" y="1"/>
      <point x="181" y="-10"/>
      <point x="244" y="-10" type="curve" smooth="yes"/>
    </contour>
    <contour>
      <point x="288" y="-186"/>
      <point x="303" y="-145"/>
      <point x="303" y="-98" type="curve" smooth="yes"/>
      <point x="303" y="-60"/>
      <point x="285" y="-40"/>
      <point x="250" y="-40" type="curve" smooth="yes"/>
      <point x="237" y="-40"/>
      <point x="226" y="-42"/>
      <point x="217" y="-45" type="curve"/>
      <point x="217" y="-69" type="line"/>
      <point x="273" y="-69" type="line"/>
      <point x="273" y="-137"/>
      <point x="260" y="-177"/>
      <point x="236" y="-219" type="curve"/>
      <point x="258" y="-224" type="line"/>
    </contour>
  </outline>
</glyph>
<glyph name="tcommaaccent" format="1">
  <advance width="346"/>
  <unicode hex="021B"/>
  <note>
	tcommaaccent
  </note>
  <outline>
    <contour>
      <point x="257" y="-4"/>
      <point x="290" y="4"/>
      <point x="308" y="14" type="curve"/>
      <point x="298" y="40" type="line"/>
      <point x="280" y="31"/>
      <point x="251" y="25"/>
      <point x="222" y="25" type="curve" smooth="yes"/>
      <point x="200" y="25"/>
      <point x="179" y="27"/>
      <point x="156" y="33" type="curve"/>
      <point x="149" y="53"/>
      <point x="147" y="63"/>
      <point x="147" y="95" type="curve" smooth="yes"/>
      <point x="147" y="435" type="line"/>
      <point x="296" y="435" type="line"/>
      <point x="300" y="464" type="line"/>
      <point x="147" y="464" type="line"/>
      <point x="147" y="595" type="line"/>
      <point x="116" y="595" type="line"/>
      <point x="116" y="464" type="line"/>
      <point x="42" y="464" type="line"/>
      <point x="38" y="435" type="line"/>
      <point x="116" y="435" type="line"/>
      <point x="116" y="84" type="line" smooth="yes"/>
      <point x="116" y="39"/>
      <point x="140" y="18"/>
      <point x="171" y="2" type="curve"/>
      <point x="188" y="-2"/>
      <point x="207" y="-4"/>
      <point x="227" y="-4" type="curve" smooth="yes"/>
    </contour>
    <contour>
      <point x="236" y="-186"/>
      <point x="251" y="-145"/>
      <point x="251" y="-98" type="curve" smooth="yes"/>
      <point x="251" y="-60"/>
      <point x="233" y="-40"/>
      <point x="198" y="-40" type="curve" smooth="yes"/>
      <point x="185" y="-40"/>
      <point x="174" y="-42"/>
      <point x="165" y="-45" type="curve"/>
      <point x="165" y="-69" type="line"/>
      <point x="221" y="-69" type="line"/>
      <point x="221" y="-137"/>
      <point x="208" y="-177"/>
      <point x="184" y="-219" type="curve"/>
      <point x="206" y="-224" type="line"/>
    </contour>
  </outline>
</glyph>
<glyph name="ascript" format="1">
  <advance width="495"/>
  <unicode hex="0251"/>
  <note>
	ascript
  </note>
  <outline>
    <contour>
      <point x="300" y="-4"/>
      <point x="337" y="34"/>
      <point x="374" y="76" type="curve"/>
      <point x="380" y="76" type="line"/>
      <point x="385" y="-1" type="line"/>
      <point x="410" y="0" type="line"/>
      <point x="410" y="474" type="line"/>
      <point x="385" y="474" type="line"/>
      <point x="380" y="388" type="line"/>
      <point x="374" y="388" type="line"/>
      <point x="340" y="436"/>
      <point x="302" y="472"/>
      <point x="232" y="472" type="curve" smooth="yes"/>
      <point x="110" y="472"/>
      <point x="65" y="369"/>
      <point x="65" y="221" type="curve" smooth="yes"/>
      <point x="65" y="76"/>
      <point x="114" y="-4"/>
      <point x="217" y="-4" type="curve" smooth="yes"/>
    </contour>
    <contour>
      <point x="131" y="24"/>
      <point x="93" y="92"/>
      <point x="93" y="223" type="curve" smooth="yes"/>
      <point x="93" y="357"/>
      <point x="132" y="444"/>
      <point x="234" y="444" type="curve" smooth="yes"/>
      <point x="301" y="444"/>
      <point x="346" y="400"/>
      <point x="380" y="346" type="curve"/>
      <point x="380" y="115" type="line"/>
      <point x="339" y="60"/>
      <point x="291" y="24"/>
      <point x="224" y="24" type="curve" smooth="yes"/>
    </contour>
  </outline>
</glyph>
<glyph name="uni02BB" format="1">
  <advance width="266"/>
  <unicode hex="02BB"/>
  <note>
	uni02BB
  </note>
  <outline>
    <contour>
      <point x="156" y="432"/>
      <point x="167" y="434"/>
      <point x="176" y="437" type="curve"/>
      <point x="176" y="461" type="line"/>
      <point x="120" y="461" type="line"/>
      <point x="120" y="529"/>
      <point x="133" y="569"/>
      <point x="157" y="611" type="curve"/>
      <point x="135" y="616" type="line"/>
      <point x="105" y="578"/>
      <point x="90" y="537"/>
      <point x="90" y="490" type="curve" smooth="yes"/>
      <point x="90" y="452"/>
      <point x="108" y="432"/>
      <point x="143" y="432" type="curve" smooth="yes"/>
    </contour>
  </outline>
</glyph>
<glyph name="uni02BC" format="1">
  <advance width="266"/>
  <unicode hex="02BC"/>
  <note>
	uni02BC
  </note>
  <outline>
    <contour>
      <point x="161" y="470"/>
      <point x="176" y="511"/>
      <point x="176" y="558" type="curve" smooth="yes"/>
      <point x="176" y="596"/>
      <point x="158" y="616"/>
      <point x="123" y="616" type="curve" smooth="yes"/>
      <point x="110" y="616"/>
      <point x="99" y="614"/>
      <point x="90" y="611" type="curve"/>
      <point x="90" y="587" type="line"/>
      <point x="146" y="587" type="line"/>
      <point x="146" y="519"/>
      <point x="133" y="479"/>
      <point x="109" y="437" type="curve"/>
      <point x="131" y="432" type="line"/>
    </contour>
  </outline>
</glyph>
<glyph name="caron" format="1">
  <advance width="334"/>
  <unicode hex="02C7"/>
  <note>
	caron
  </note>
  <outline>
    <contour>
      <point x="186" y="474" type="line"/>
      <point x="289" y="605" type="line"/>
      <point x="267" y="610" type="line"/>
      <point x="170" y="503" type="line"/>
      <point x="164" y="503" type="line"/>
      <point x="67" y="610" type="line"/>
      <point x="45" y="605" type="line"/>
      <point x="148" y="474" type="line"/>
    </contour>
  </outline>
</glyph>
<glyph name="uni02C9" format="1">
  <advance width="297"/>
  <unicode hex="02C9"/>
  <note>
	uni02C9
  </note>
  <outline>
    <contour>
      <point x="232" y="510" type="line"/>
      <point x="232" y="539" type="line"/>
      <point x="65" y="539" type="line"/>
      <point x="65" y="510" type="line"/>
    </contour>
  </outline>
</glyph>
<glyph name="uni02CB" format="1">
  <advance width="240"/>
  <unicode hex="02CB"/>
  <note>
	uni02CB
  </note>
  <outline>
    <contour>
      <point x="176" y="478" type="line"/>
      <point x="106" y="598" type="line"/>
      <point x="61" y="593" type="line"/>
      <point x="157" y="475" type="line"/>
    </contour>
  </outline>
</glyph>
<glyph name="tilde" format="1">
  <advance width="416"/>
  <unicode hex="02DC"/>
  <note>
	tilde
  </note>
  <outline>
    <contour>
      <point x="308" y="532"/>
      <point x="333" y="565"/>
      <point x="336" y="612" type="curve"/>
      <point x="315" y="618" type="line"/>
      <point x="310" y="583"/>
      <point x="296" y="561"/>
      <point x="266" y="561" type="curve" smooth="yes"/>
      <point x="224" y="561"/>
      <point x="197" y="619"/>
      <point x="149" y="619" type="curve" smooth="yes"/>
      <point x="108" y="619"/>
      <point x="83" y="586"/>
      <point x="80" y="539" type="curve"/>
      <point x="101" y="533" type="line"/>
      <point x="106" y="568"/>
      <point x="120" y="590"/>
      <point x="150" y="590" type="curve" smooth="yes"/>
      <point x="187" y="590"/>
      <point x="217" y="532"/>
      <point x="267" y="532" type="curve" smooth="yes"/>
    </contour>
  </outline>
</glyph>
<glyph name="hungarumlaut" format="1">
  <advance width="431"/>
  <unicode hex="02DD"/>
  <note>
	hungarumlaut
  </note>
  <outline>
    <contour>
      <point x="326" y="470"/>
      <point x="341" y="511"/>
      <point x="341" y="558" type="curve" smooth="yes"/>
      <point x="341" y="596"/>
      <point x="323" y="616"/>
      <point x="288" y="616" type="curve" smooth="yes"/>
      <point x="275" y="616"/>
      <point x="264" y="614"/>
      <point x="255" y="611" type="curve"/>
      <point x="255" y="587" type="line"/>
      <point x="311" y="587" type="line"/>
      <point x="311" y="519"/>
      <point x="298" y="479"/>
      <point x="274" y="437" type="curve"/>
      <point x="296" y="432" type="line"/>
    </contour>
    <contour>
      <point x="161" y="470"/>
      <point x="176" y="511"/>
      <point x="176" y="558" type="curve" smooth="yes"/>
      <point x="176" y="596"/>
      <point x="158" y="616"/>
      <point x="123" y="616" type="curve" smooth="yes"/>
      <point x="110" y="616"/>
      <point x="99" y="614"/>
      <point x="90" y="611" type="curve"/>
      <point x="90" y="587" type="line"/>
      <point x="146" y="587" type="line"/>
      <point x="146" y="519"/>
      <point x="133" y="479"/>
      <point x="109" y="437" type="curve"/>
      <point x="131" y="432" type="line"/>
    </contour>
  </outline>
</glyph>
<glyph name="tildecomb" format="1">
  <advance width="0"/>
  <unicode hex="0303"/>
  <note>
	tildecomb
  </note>
  <outline>
    <contour>
      <point x="-150" y="532"/>
      <point x="-125" y="565"/>
      <point x="-122" y="612" type="curve"/>
      <point x="-143" y="618" type="line"/>
      <point x="-148" y="583"/>
      <point x="-162" y="561"/>
      <point x="-192" y="561" type="curve" smooth="yes"/>
      <point x="-234" y="561"/>
      <point x="-261" y="619"/>
      <point x="-309" y="619" type="curve" smooth="yes"/>
      <point x="-350" y="619"/>
      <point x="-375" y="586"/>
      <point x="-378" y="539" type="curve"/>
      <point x="-357" y="533" type="line"/>
      <point x="-352" y="568"/>
      <point x="-338" y="590"/>
      <point x="-308" y="590" type="curve" smooth="yes"/>
      <point x="-271" y="590"/>
      <point x="-241" y="532"/>
      <point x="-191" y="532" type="curve" smooth="yes"/>
    </contour>
  </outline>
</glyph>
<glyph name="uni0306" format="1">
  <advance width="0"/>
  <unicode hex="0306"/>
  <note>
	uni0306
  </note>
  <outline>
    <contour>
      <point x="-164" y="510"/>
      <point x="-133" y="554"/>
      <point x="-121" y="606" type="curve"/>
      <point x="-154" y="612" type="line"/>
      <point x="-163" y="570"/>
      <point x="-181" y="539"/>
      <point x="-238" y="539" type="curve" smooth="yes"/>
      <point x="-295" y="539"/>
      <point x="-313" y="570"/>
      <point x="-322" y="612" type="curve"/>
      <point x="-355" y="606" type="line"/>
      <point x="-343" y="554"/>
      <point x="-312" y="510"/>
      <point x="-238" y="510" type="curve" smooth="yes"/>
    </contour>
  </outline>
</glyph>
<glyph name="uni0307" format="1">
  <advance width="0"/>
  <unicode hex="0307"/>
  <note>
	uni0307
  </note>
  <outline>
    <contour>
      <point x="-163" y="516"/>
      <point x="-150" y="528"/>
      <point x="-150" y="550" type="curve" smooth="yes"/>
      <point x="-150" y="574"/>
      <point x="-163" y="586"/>
      <point x="-186" y="586" type="curve" smooth="yes"/>
      <point x="-209" y="586"/>
      <point x="-223" y="574"/>
      <point x="-223" y="550" type="curve" smooth="yes"/>
      <point x="-223" y="528"/>
      <point x="-209" y="516"/>
      <point x="-186" y="516" type="curve" smooth="yes"/>
    </contour>
  </outline>
</glyph>
<glyph name="uni030A" format="1">
  <advance width="0"/>
  <unicode hex="030A"/>
  <note>
	uni030A
  </note>
  <outline>
    <contour>
      <point x="-141" y="452"/>
      <point x="-104" y="496"/>
      <point x="-104" y="544" type="curve" smooth="yes"/>
      <point x="-104" y="596"/>
      <point x="-132" y="621"/>
      <point x="-197" y="621" type="curve" smooth="yes"/>
      <point x="-265" y="621"/>
      <point x="-309" y="577"/>
      <point x="-309" y="529" type="curve" smooth="yes"/>
      <point x="-309" y="479"/>
      <point x="-277" y="452"/>
      <point x="-216" y="452" type="curve" smooth="yes"/>
    </contour>
    <contour>
      <point x="-259" y="477"/>
      <point x="-281" y="496"/>
      <point x="-281" y="532" type="curve" smooth="yes"/>
      <point x="-281" y="550"/>
      <point x="-279" y="563"/>
      <point x="-271" y="586" type="curve"/>
      <point x="-246" y="594"/>
      <point x="-227" y="596"/>
      <point x="-201" y="596" type="curve" smooth="yes"/>
      <point x="-154" y="596"/>
      <point x="-132" y="581"/>
      <point x="-132" y="541" type="curve" smooth="yes"/>
      <point x="-132" y="523"/>
      <point x="-135" y="507"/>
      <point x="-142" y="487" type="curve"/>
      <point x="-167" y="479"/>
      <point x="-186" y="477"/>
      <point x="-212" y="477" type="curve" smooth="yes"/>
    </contour>
  </outline>
</glyph>
<glyph name="uni0324" format="1">
  <advance width="0"/>
  <unicode hex="0324"/>
  <note>
	uni0324
  </note>
  <outline>
    <contour>
      <point x="-219" y="-142"/>
      <point x="-209" y="-132"/>
      <point x="-209" y="-115" type="curve" smooth="yes"/>
      <point x="-209" y="-97"/>
      <point x="-219" y="-88"/>
      <point x="-236" y="-88" type="curve" smooth="yes"/>
      <point x="-254" y="-88"/>
      <point x="-265" y="-97"/>
      <point x="-265" y="-115" type="curve" smooth="yes"/>
      <point x="-265" y="-132"/>
      <point x="-254" y="-142"/>
      <point x="-236" y="-142" type="curve" smooth="yes"/>
    </contour>
    <contour>
      <point x="-377" y="-142"/>
      <point x="-367" y="-132"/>
      <point x="-367" y="-115" type="curve" smooth="yes"/>
      <point x="-367" y="-97"/>
      <point x="-377" y="-88"/>
      <point x="-394" y="-88" type="curve" smooth="yes"/>
      <point x="-411" y="-88"/>
      <point x="-422" y="-97"/>
      <point x="-422" y="-115" type="curve" smooth="yes"/>
      <point x="-422" y="-132"/>
      <point x="-411" y="-142"/>
      <point x="-394" y="-142" type="curve" smooth="yes"/>
    </contour>
  </outline>
</glyph>
<glyph name="uni032E" format="1">
  <advance width="0"/>
  <unicode hex="032E"/>
  <note>
	uni032E
  </note>
  <outline>
    <contour>
      <point x="92" y="-109"/>
      <point x="110" y="-78"/>
      <point x="167" y="-78" type="curve" smooth="yes"/>
      <point x="224" y="-78"/>
      <point x="242" y="-109"/>
      <point x="251" y="-151" type="curve"/>
      <point x="284" y="-145" type="line"/>
      <point x="272" y="-93"/>
      <point x="241" y="-49"/>
      <point x="167" y="-49" type="curve" smooth="yes"/>
      <point x="93" y="-49"/>
      <point x="62" y="-93"/>
      <point x="50" y="-145" type="curve"/>
      <point x="83" y="-151" type="line"/>
    </contour>
  </outline>
</glyph>
<glyph name="uni0331" format="1">
  <advance width="0"/>
  <unicode hex="0331"/>
  <note>
	uni0331
  </note>
  <outline>
    <contour>
      <point x="-90" y="-105" type="line"/>
      <point x="-90" y="-76" type="line"/>
      <point x="-360" y="-76" type="line"/>
      <point x="-360" y="-105" type="line"/>
    </contour>
  </outline>
</glyph>
<glyph name="pi" format="1">
  <advance width="587"/>
  <unicode hex="03C0"/>
  <note>
	pi
  </note>
  <outline>
    <contour>
      <point x="494" y="-4"/>
      <point x="508" y="-3"/>
      <point x="516" y="-2" type="curve"/>
      <point x="516" y="27" type="line"/>
      <point x="508" y="26"/>
      <point x="495" y="25"/>
      <point x="483" y="25" type="curve" smooth="yes"/>
      <point x="466" y="25"/>
      <point x="452" y="26"/>
      <point x="432" y="31" type="curve"/>
      <point x="428" y="48"/>
      <point x="428" y="58"/>
      <point x="428" y="78" type="curve" smooth="yes"/>
      <point x="428" y="439" type="line"/>
      <point x="517" y="439" type="line"/>
      <point x="517" y="468" type="line"/>
      <point x="50" y="468" type="line"/>
      <point x="50" y="439" type="line"/>
      <point x="137" y="439" type="line"/>
      <point x="137" y="0" type="line"/>
      <point x="169" y="0" type="line"/>
      <point x="169" y="439" type="line"/>
      <point x="396" y="439" type="line"/>
      <point x="396" y="92" type="line" smooth="yes"/>
      <point x="396" y="18"/>
      <point x="420" y="-4"/>
      <point x="481" y="-4" type="curve" smooth="yes"/>
    </contour>
  </outline>
</glyph>
<glyph name="khoKhai-thai" format="1">
  <advance width="489"/>
  <unicode hex="0E02"/>
  <note>
	khoKhai-thai
  </note>
  <outline>
    <contour>
      <point x="354" y="-10"/>
      <point x="399" y="32"/>
      <point x="399" y="86" type="curve" smooth="yes"/>
      <point x="399" y="510" type="line"/>
      <point x="368" y="510" type="line"/>
      <point x="368" y="41" type="line"/>
      <point x="337" y="28"/>
      <point x="302" y="20"/>
      <point x="249" y="20" type="curve" smooth="yes"/>
      <point x="131" y="20"/>
      <point x="105" y="74"/>
      <point x="105" y="147" type="curve" smooth="yes"/>
      <point x="105" y="225" type="line" smooth="yes"/>
      <point x="105" y="308"/>
      <point x="190" y="343"/>
      <point x="190" y="425" type="curve" smooth="yes"/>
      <point x="190" y="468"/>
      <point x="173" y="510"/>
      <point x="109" y="510" type="curve" smooth="yes"/>
      <point x="65" y="510" type="line"/>
      <point x="65" y="480" type="line"/>
      <point x="102" y="480" type="line" smooth="yes"/>
      <point x="148" y="480"/>
      <point x="159" y="461"/>
      <point x="159" y="421" type="curve" smooth="yes"/>
      <point x="159" y="351"/>
      <point x="74" y="312"/>
      <point x="74" y="230" type="curve" smooth="yes"/>
      <point x="74" y="148" type="line" smooth="yes"/>
      <point x="74" y="62"/>
      <point x="111" y="-10"/>
      <point x="249" y="-10" type="curve" smooth="yes"/>
    </contour>
  </outline>
</glyph>
